<svg width="29" height="26" viewBox="0 0 29 26" fill="none" xmlns="http://www.w3.org/2000/svg">
<path fill-rule="evenodd" clip-rule="evenodd" d="M3.3369 15.5395C3.82256 16.3535 4.68712 17.0852 6.10653 18.2863L6.29146 18.4428C6.84696 18.9132 7.18876 19.2025 7.56617 19.4377C8.34639 19.924 9.23747 20.2375 10.1702 20.3538C10.6213 20.4101 11.0849 20.4041 11.8383 20.3943L17.1744 20.3251C18.8732 20.3033 19.9098 20.29 20.7774 20.0341C22.6943 19.4689 24.1881 18.0694 24.7729 16.2908C25.0377 15.4858 25.0375 14.528 25.0372 12.9585L25.0372 12.6613C25.0375 11.0918 25.0377 10.134 24.7729 9.32905C24.1881 7.5504 22.6943 6.15091 20.7774 5.58566C19.9098 5.32984 18.8732 5.31654 17.1745 5.29474L11.8383 5.22553C11.0849 5.21571 10.6213 5.20967 10.1702 5.26596C9.23747 5.38232 8.34639 5.69581 7.56618 6.18205C7.18875 6.41727 6.84695 6.70665 6.29143 7.17697L6.10654 7.33347C4.68714 8.53462 3.82256 9.26626 3.3369 10.0803C2.3231 11.7795 2.3231 13.8403 3.3369 15.5395ZM7.32157 17.314C5.72297 15.9608 5.07759 15.4011 4.73536 14.8275C3.98602 13.5715 3.98602 12.0483 4.73536 10.7923C5.07759 10.2187 5.72297 9.65901 7.32157 8.30577C7.94079 7.78159 8.19202 7.57148 8.45918 7.40497C9.03587 7.04558 9.69449 6.81387 10.3839 6.72786C10.7032 6.68801 11.0421 6.69053 11.8819 6.70142L16.9912 6.7677C18.9018 6.79248 19.6801 6.81058 20.2918 6.99099C21.7087 7.40878 22.8128 8.44318 23.2451 9.75784C23.4318 10.3255 23.4404 11.0447 23.4404 12.8099C23.4404 14.5751 23.4318 15.2943 23.2451 15.862C22.8128 17.1766 21.7087 18.211 20.2918 18.6288C19.6801 18.8092 18.9018 18.8273 16.9912 18.8521L11.8819 18.9184C11.0421 18.9293 10.7032 18.9318 10.3839 18.8919C9.69449 18.8059 9.03586 18.5742 8.45918 18.2148C8.19202 18.0483 7.94079 17.8382 7.32157 17.314Z" fill="#828282"/>
<path d="M17.915 10.4956C18.0283 10.3822 18.0283 10.1984 17.915 10.085C17.8016 9.97166 17.6178 9.97166 17.5044 10.085L15 12.5894L12.4956 10.085C12.3822 9.97166 12.1984 9.97166 12.085 10.085C11.9717 10.1984 11.9717 10.3822 12.085 10.4956L14.5894 13L12.085 15.5044C11.9717 15.6178 11.9717 15.8016 12.085 15.915C12.1984 16.0283 12.3822 16.0283 12.4956 15.915L15 13.4106L17.5044 15.915C17.6178 16.0283 17.8016 16.0283 17.915 15.915C18.0283 15.8016 18.0283 15.6178 17.915 15.5044L15.4106 13L17.915 10.4956Z" fill="#828282"/>
</svg>
