<svg width="18" height="22" viewBox="0 0 18 22" fill="none" xmlns="http://www.w3.org/2000/svg">
<path d="M17.75 9C17.75 8.58579 17.4142 8.25 17 8.25C16.5858 8.25 16.25 8.58579 16.25 9H17.75ZM1.75 9C1.75 8.58579 1.41421 8.25 1 8.25C0.585786 8.25 0.25 8.58579 0.25 9H1.75ZM9 20H8.25V20.0133L8.25047 20.0267L9 20ZM6.8181 20.2724C6.41625 20.3729 6.17193 20.7801 6.27239 21.1819C6.37285 21.5837 6.78006 21.8281 7.1819 21.7276L6.8181 20.2724ZM7.78732 20.8032L7.60542 20.0756L7.78732 20.8032ZM10.2127 20.8032L10.3946 20.0756L10.2127 20.8032ZM10.8181 21.7276C11.2199 21.8281 11.6271 21.5837 11.7276 21.1819C11.8281 20.7801 11.5837 20.3729 11.1819 20.2724L10.8181 21.7276ZM9.73717 4.78849C9.34422 4.6575 8.91948 4.86987 8.78849 5.26283C8.6575 5.65578 8.86987 6.08052 9.26283 6.21151L9.73717 4.78849ZM9.61871 5.53957L9.38154 6.25108L9.38154 6.25108L9.61871 5.53957ZM9.1819 7.77239C8.78006 7.67193 8.37285 7.91625 8.27239 8.3181C8.17193 8.71994 8.41625 9.12715 8.8181 9.22761L9.1819 7.77239ZM9.78732 8.69683L9.60542 9.42444L9.78732 8.69683ZM12.2127 8.69683L12.3946 9.42444L12.2127 8.69683ZM12.25 5V9H13.75V5H12.25ZM5.75 9V5H4.25V9H5.75ZM9 12.25C7.20507 12.25 5.75 10.7949 5.75 9H4.25C4.25 11.6234 6.37665 13.75 9 13.75V12.25ZM12.25 9C12.25 10.7949 10.7949 12.25 9 12.25V13.75C11.6234 13.75 13.75 11.6234 13.75 9H12.25ZM9 1.75C10.7949 1.75 12.25 3.20507 12.25 5H13.75C13.75 2.37665 11.6234 0.25 9 0.25V1.75ZM9 0.25C6.37665 0.25 4.25 2.37665 4.25 5H5.75C5.75 3.20507 7.20507 1.75 9 1.75V0.25ZM16.25 9C16.25 13.0041 13.0041 16.25 9 16.25V17.75C13.8325 17.75 17.75 13.8325 17.75 9H16.25ZM9 16.25C4.99594 16.25 1.75 13.0041 1.75 9H0.25C0.25 13.8325 4.16751 17.75 9 17.75V16.25ZM8.25 17V20H9.75V17H8.25ZM7.1819 21.7276L7.96922 21.5308L7.60542 20.0756L6.8181 20.2724L7.1819 21.7276ZM10.0308 21.5308L10.8181 21.7276L11.1819 20.2724L10.3946 20.0756L10.0308 21.5308ZM9.26283 6.21151L9.38154 6.25108L9.85589 4.82806L9.73717 4.78849L9.26283 6.21151ZM9.38154 6.25108C10.419 6.5969 11.5335 6.6397 12.5944 6.37447L12.2306 4.91926C11.4465 5.1153 10.6227 5.08366 9.85588 4.82806L9.38154 6.25108ZM8.8181 9.22761L9.60542 9.42444L9.96922 7.96922L9.1819 7.77239L8.8181 9.22761ZM12.3946 9.42444L13.1819 9.22761L12.8181 7.77239L12.0308 7.96922L12.3946 9.42444ZM9.60542 9.42444C10.5211 9.65335 11.479 9.65335 12.3946 9.42444L12.0308 7.96922C11.354 8.13842 10.646 8.13842 9.96922 7.96922L9.60542 9.42444ZM12.25 8.5V9H13.75V8.5H12.25ZM12.25 6.10555V8.5H13.75V6.10555H12.25ZM7.96922 21.5308C8.31405 21.4446 8.66699 21.4023 9.01978 21.4039L9.02676 19.9039C8.54946 19.9017 8.07195 19.9589 7.60542 20.0756L7.96922 21.5308ZM9.01978 21.4039C9.35938 21.4055 9.69883 21.4478 10.0308 21.5308L10.3946 20.0756C9.94548 19.9633 9.48621 19.9061 9.02676 19.9039L9.01978 21.4039ZM8.25047 20.0267L8.27374 20.6806L9.77279 20.6273L9.74953 19.9733L8.25047 20.0267ZM12.5944 6.37447C12.4195 6.41821 12.25 6.28589 12.25 6.10555H13.75C13.75 5.31003 13.0024 4.72632 12.2306 4.91926L12.5944 6.37447Z" fill="#828282"/>
</svg>
