<svg width="24" height="24" viewBox="0 0 24 24" fill="none" xmlns="http://www.w3.org/2000/svg">
<path d="M12.0103 17C11.1603 17 10.3003 16.78 9.63031 16.35L3.61031 12.42C2.49031 11.69 1.82031 10.46 1.82031 9.12003C1.82031 7.78003 2.49031 6.55003 3.61031 5.82003L9.64031 1.90003C10.9803 1.03003 13.0703 1.03003 14.4003 1.91003L20.3903 5.84003C21.5003 6.57003 22.1703 7.80003 22.1703 9.13003C22.1703 10.46 21.5003 11.69 20.3903 12.42L14.4003 16.35C13.7303 16.79 12.8703 17 12.0103 17ZM12.0103 2.75003C11.4403 2.75003 10.8703 2.88003 10.4603 3.16003L4.44031 7.08003C3.74031 7.54003 3.33031 8.28003 3.33031 9.12003C3.33031 9.96003 3.73031 10.7 4.44031 11.16L10.4603 15.09C11.2903 15.63 12.7503 15.63 13.5803 15.09L19.5703 11.16C20.2703 10.7 20.6703 9.96003 20.6703 9.12003C20.6703 8.28003 20.2703 7.54003 19.5703 7.08003L13.5803 3.15003C13.1603 2.89003 12.5903 2.75003 12.0103 2.75003Z" fill="#040C1A"/>
<path d="M12.0012 22.75C11.5612 22.75 11.1112 22.69 10.7512 22.57L7.56116 21.51C6.05116 21.01 4.86116 19.36 4.87116 17.77L4.88116 13.08C4.88116 12.67 5.22116 12.33 5.63116 12.33C6.04116 12.33 6.38116 12.67 6.38116 13.08L6.37116 17.77C6.37116 18.71 7.15116 19.79 8.04116 20.09L11.2312 21.15C11.6312 21.28 12.3712 21.28 12.7712 21.15L15.9612 20.09C16.8512 19.79 17.6312 18.71 17.6312 17.78V13.14C17.6312 12.73 17.9712 12.39 18.3812 12.39C18.7912 12.39 19.1312 12.73 19.1312 13.14V17.78C19.1312 19.37 17.9512 21.01 16.4412 21.52L13.2512 22.58C12.8912 22.69 12.4412 22.75 12.0012 22.75Z" fill="#040C1A"/>
<path d="M21.3984 15.75C20.9884 15.75 20.6484 15.41 20.6484 15V9C20.6484 8.59 20.9884 8.25 21.3984 8.25C21.8084 8.25 22.1484 8.59 22.1484 9V15C22.1484 15.41 21.8084 15.75 21.3984 15.75Z" fill="#040C1A"/>
</svg>
