<svg width="12" height="21" viewBox="0 0 12 21" fill="none" xmlns="http://www.w3.org/2000/svg">
<path fill-rule="evenodd" clip-rule="evenodd" d="M8.1792 1.60108C7.07837 0.171059 4.9218 0.171059 3.82096 1.60108L0.95632 5.32236C-0.435721 7.13067 0.853376 9.74984 3.13543 9.74984L5.25009 9.74984L5.25009 19.9999C5.25009 20.4141 5.58587 20.7499 6.00009 20.7499C6.4143 20.7499 6.75009 20.4141 6.75009 19.9999L6.75009 9.74985H8.86472C11.1468 9.74985 12.4359 7.13068 11.0438 5.32236L8.1792 1.60108ZM5.00957 2.51607C5.50995 1.86606 6.49021 1.86606 6.99059 2.51607L9.85523 6.23735C10.488 7.05931 9.90202 8.24985 8.86472 8.24985L3.13543 8.24984C2.09814 8.24984 1.51218 7.05931 2.14493 6.23735L5.00957 2.51607Z" fill="#828282"/>
</svg>
