<svg width="18" height="19" viewBox="0 0 18 19" fill="none" xmlns="http://www.w3.org/2000/svg">
<path d="M2.34387 0.835796C2.34541 0.490622 2.06683 0.209554 1.72166 0.208014C1.37649 0.206474 1.09542 0.485045 1.09388 0.83022L1.08633 2.52108C1.08351 3.15013 1.08116 3.67481 1.12722 4.09663C1.17554 4.53907 1.28353 4.94685 1.55767 5.30108C1.63191 5.39701 1.71361 5.48675 1.80198 5.5695C1.85402 5.61823 1.90836 5.66454 1.96484 5.70825C2.31908 5.98239 2.72685 6.09039 3.1693 6.1387C3.59112 6.18477 4.11577 6.18241 4.74482 6.17959L6.43571 6.17205C6.78088 6.17051 7.05945 5.88944 7.05791 5.54426C7.05637 5.19909 6.7753 4.92052 6.43013 4.92206L4.77537 4.92944C4.10085 4.93245 3.64778 4.93353 3.305 4.89609C3.27922 4.89328 3.25455 4.89028 3.23093 4.88712C3.57552 4.4986 3.95875 4.1451 4.37457 3.83269C5.66295 2.86471 7.2636 2.29134 8.99996 2.29134C13.2572 2.29134 16.7083 5.74248 16.7083 9.99967C16.7083 14.2569 13.2572 17.708 8.99996 17.708C4.74276 17.708 1.29163 14.2569 1.29163 9.99967C1.29163 9.6545 1.0118 9.37467 0.666626 9.37467C0.321448 9.37467 0.041626 9.6545 0.041626 9.99967C0.041626 14.9472 4.05241 18.958 8.99996 18.958C13.9475 18.958 17.9583 14.9472 17.9583 9.99967C17.9583 5.05212 13.9475 1.04134 8.99996 1.04134C6.98357 1.04134 5.12116 1.70827 3.62373 2.83332C3.17101 3.17346 2.75161 3.55547 2.37125 3.97365L2.36983 3.96093C2.3324 3.61815 2.33347 3.16507 2.33648 2.49056L2.34387 0.835796Z" fill="#6C6C6C"/>
</svg>
