<svg width="18" height="18" viewBox="0 0 18 18" fill="none" xmlns="http://www.w3.org/2000/svg">
<path fill-rule="evenodd" clip-rule="evenodd" d="M11.0227 1.72272L11.1127 1.77472C11.8909 2.22393 12.5397 2.59852 13.0148 2.96516C13.5163 3.35216 13.9143 3.79635 14.0811 4.41854C14.2478 5.04072 14.1252 5.62442 13.8844 6.21031C13.6562 6.76538 13.2816 7.41421 12.8323 8.1923L8.95681 14.905C8.65987 15.4203 8.42508 15.8278 8.06772 16.1348C7.71037 16.4419 7.27222 16.6126 6.71809 16.8286L6.56835 16.887C5.54013 17.2888 4.69257 17.6199 3.99851 17.7821C3.27263 17.9517 2.57176 17.9728 1.91849 17.5956C1.26522 17.2185 0.933064 16.6009 0.716992 15.8875C0.510393 15.2054 0.373413 14.3058 0.207228 13.2144L0.18297 13.0555C0.0929405 12.4677 0.0217532 12.0028 0.108988 11.5398C0.119892 11.482 0.133113 11.4249 0.148482 11.3685C0.256063 10.9734 0.468907 10.6054 0.72947 10.155L4.60509 3.44231C5.0543 2.66419 5.42889 2.01533 5.79553 1.54022C6.18253 1.03873 6.62672 0.640707 7.24891 0.473993C7.87109 0.30728 8.45479 0.429885 9.04068 0.670685C9.59576 0.898823 10.2446 1.27345 11.0227 1.72272ZM5.50313 4.88686L11.1323 8.13686L7.70885 14.0664C7.3359 14.7124 7.22926 14.8776 7.09017 14.9971C6.95108 15.1166 6.77174 15.1972 6.07696 15.4686C4.98049 15.897 4.23373 16.1868 3.65725 16.3214C3.10038 16.4515 2.84769 16.4001 2.66849 16.2966C2.48929 16.1931 2.31836 16 2.1526 15.4527C1.981 14.8861 1.85857 14.0945 1.68132 12.9308C1.56901 12.1934 1.5491 11.9978 1.58305 11.8176C1.61701 11.6373 1.70673 11.4624 2.07969 10.8164L5.50313 4.88686ZM12.497 5.64009C12.3645 5.96253 12.1618 6.34165 11.8807 6.83691L6.2547 3.58873C6.54308 3.0977 6.77007 2.73261 6.98305 2.45662C7.26751 2.08801 7.45912 1.97058 7.63713 1.92288C7.81515 1.87518 8.0398 1.88107 8.47046 2.05807C8.92125 2.24335 9.48285 2.56575 10.3177 3.04776C11.1526 3.52976 11.7126 3.85492 12.0984 4.15268C12.467 4.43714 12.5845 4.62875 12.6322 4.80677C12.6799 4.98478 12.674 5.20943 12.497 5.64009Z" fill="#040C1A"/>
<path d="M9.65967 17.251C9.65967 16.8368 9.99545 16.501 10.4097 16.501H16.4097C16.8239 16.501 17.1597 16.8368 17.1597 17.251C17.1597 17.6652 16.8239 18.001 16.4097 18.001H10.4097C9.99545 18.001 9.65967 17.6652 9.65967 17.251Z" fill="#040C1A"/>
</svg>
