<svg width="16" height="14" viewBox="0 0 16 14" fill="none" xmlns="http://www.w3.org/2000/svg">
<path d="M5 0.25C4.58579 0.25 4.25 0.585786 4.25 1C4.25 1.41421 4.58579 1.75 5 1.75H11C11.4142 1.75 11.75 1.41421 11.75 1C11.75 0.585786 11.4142 0.25 11 0.25H5Z" fill="#040C1A"/>
<path d="M1 6.25C0.585786 6.25 0.25 6.58579 0.25 7C0.25 7.41421 0.585786 7.75 1 7.75H15C15.4142 7.75 15.75 7.41421 15.75 7C15.75 6.58579 15.4142 6.25 15 6.25H1Z" fill="#040C1A"/>
<path d="M5 12.25C4.58579 12.25 4.25 12.5858 4.25 13C4.25 13.4142 4.58579 13.75 5 13.75H11C11.4142 13.75 11.75 13.4142 11.75 13C11.75 12.5858 11.4142 12.25 11 12.25H5Z" fill="#040C1A"/>
</svg>
