<svg width="428" height="112" viewBox="0 0 428 112" fill="none" xmlns="http://www.w3.org/2000/svg">
<g clip-path="url(#clip0_4535_7016)">
<path d="M178.792 45.4422C171.003 36.3496 161.638 26.3471 149.7 25.4431L25 16C11.1929 16 0 27.1929 0 41V92C0 103.046 8.9543 112 20 112H408C419.046 112 428 103.046 428 92V41C428 27.1929 416.807 16 403 16L277.312 25.4528C265.368 26.3511 255.996 36.3561 248.201 45.4504C239.722 55.3438 226.29 62 213.5 62C200.707 62 187.271 55.3401 178.792 45.4422Z" fill="url(#paint0_linear_4535_7016)"/>
</g>
<circle r="25" transform="matrix(-1 0 0 1 214 25)" fill="url(#paint1_linear_4535_7016)"/>
<defs>
<linearGradient id="paint0_linear_4535_7016" x1="214" y1="25.894" x2="213.547" y2="119.07" gradientUnits="userSpaceOnUse">
<stop stop-color="#1D9BF0"/>
<stop offset="1" stop-color="#004B7D"/>
</linearGradient>
<linearGradient id="paint1_linear_4535_7016" x1="25" y1="5.15314" x2="23.9487" y2="53.6608" gradientUnits="userSpaceOnUse">
<stop stop-color="#1D9BF0"/>
<stop offset="1" stop-color="#004B7D"/>
</linearGradient>
<clipPath id="clip0_4535_7016">
<rect width="428" height="96" fill="white" transform="translate(0 16)"/>
</clipPath>
</defs>
</svg>
