<svg width="20" height="20" viewBox="0 0 20 20" fill="none" xmlns="http://www.w3.org/2000/svg">
<path d="M14.1401 0.959066L5.11012 3.95907C-0.959883 5.98907 -0.959883 9.29907 5.11012 11.3191L7.79012 12.2091L8.68012 14.8891C10.7001 20.9591 14.0201 20.9591 16.0401 14.8891L19.0501 5.86907C20.3901 1.81907 18.1901 -0.390934 14.1401 0.959066ZM14.4601 6.33907L10.6601 10.1591C10.5101 10.3091 10.3201 10.3791 10.1301 10.3791C9.94012 10.3791 9.75012 10.3091 9.60012 10.1591C9.31012 9.86907 9.31012 9.38907 9.60012 9.09907L13.4001 5.27907C13.6901 4.98907 14.1701 4.98907 14.4601 5.27907C14.7501 5.56907 14.7501 6.04907 14.4601 6.33907Z" fill="white"/>
</svg>
