<svg width="24" height="24" viewBox="0 0 24 24" fill="none" xmlns="http://www.w3.org/2000/svg">
<path d="M17.2534 6.91309C19.1701 8.24517 20.4926 10.3631 20.7609 12.8068" stroke="#FAFAFA" stroke-width="1.5" stroke-linecap="round" stroke-linejoin="round"/>
<path d="M4.34473 12.8557C4.59389 10.4215 5.89723 8.30358 7.79473 6.96191" stroke="#FAFAFA" stroke-width="1.5" stroke-linecap="round" stroke-linejoin="round"/>
<path d="M8.84912 21.0674C9.96079 21.6328 11.2258 21.949 12.5579 21.949C13.842 21.949 15.0495 21.6615 16.1325 21.1345" stroke="#FAFAFA" stroke-width="1.5" stroke-linecap="round" stroke-linejoin="round"/>
<path d="M12.5577 8.38009C14.0291 8.38009 15.2219 7.1873 15.2219 5.71592C15.2219 4.24455 14.0291 3.05176 12.5577 3.05176C11.0863 3.05176 9.89355 4.24455 9.89355 5.71592C9.89355 7.1873 11.0863 8.38009 12.5577 8.38009Z" stroke="#FAFAFA" stroke-width="1.5" stroke-linecap="round" stroke-linejoin="round"/>
<path d="M5.62852 20.0891C7.0999 20.0891 8.29269 18.8963 8.29269 17.4249C8.29269 15.9535 7.0999 14.7607 5.62852 14.7607C4.15714 14.7607 2.96436 15.9535 2.96436 17.4249C2.96436 18.8963 4.15714 20.0891 5.62852 20.0891Z" stroke="#FAFAFA" stroke-width="1.5" stroke-linecap="round" stroke-linejoin="round"/>
<path d="M19.3707 20.0891C20.8421 20.0891 22.0349 18.8963 22.0349 17.4249C22.0349 15.9535 20.8421 14.7607 19.3707 14.7607C17.8993 14.7607 16.7065 15.9535 16.7065 17.4249C16.7065 18.8963 17.8993 20.0891 19.3707 20.0891Z" stroke="#FAFAFA" stroke-width="1.5" stroke-linecap="round" stroke-linejoin="round"/>
</svg>
