<svg width="24" height="24" viewBox="0 0 24 24" fill="none" xmlns="http://www.w3.org/2000/svg">
<path d="M15.1092 7.75H2.52437C2.23771 7.75 2 7.41 2 7C2 6.59 2.23771 6.25 2.52437 6.25H15.1092C15.3959 6.25 15.6336 6.59 15.6336 7C15.6336 7.41 15.3959 7.75 15.1092 7.75Z" fill="#292D32"/>
<path d="M14.8762 12.75H2.75742C2.34336 12.75 2 12.41 2 12C2 11.59 2.34336 11.25 2.75742 11.25H14.8762C15.2902 11.25 15.6336 11.59 15.6336 12C15.6336 12.41 15.2902 12.75 14.8762 12.75Z" fill="#292D32"/>
<path d="M14.8762 17.5H2.75742C2.34336 17.5 2 17.16 2 16.75C2 16.34 2.34336 16 2.75742 16H14.8762C15.2902 16 15.6336 16.34 15.6336 16.75C15.6336 17.16 15.2902 17.5 14.8762 17.5Z" fill="#292D32"/>
<path d="M17.5813 17.0494C17.5813 17.2394 17.6494 17.4294 17.7955 17.5794C18.0779 17.8694 18.5453 17.8694 18.8278 17.5794L21.7882 14.5394C22.0706 14.2494 22.0706 13.7694 21.7882 13.4794C21.5058 13.1894 21.0383 13.1894 20.7559 13.4794L17.7955 16.5194C17.6494 16.6694 17.5813 16.8594 17.5813 17.0494Z" fill="#292D32"/>
<path d="M17.5816 6.74957L17.5816 17.0596C17.5816 17.4696 17.9128 17.8096 18.312 17.8096C18.7113 17.8096 19.0424 17.4696 19.0424 17.0596L19.0424 6.74957C19.0424 6.33957 18.7113 5.99957 18.312 5.99957C17.9127 5.99957 17.5816 6.32957 17.5816 6.74957Z" fill="#292D32"/>
</svg>
