<svg width="25" height="25" viewBox="0 0 25 25" fill="none" xmlns="http://www.w3.org/2000/svg">
<path d="M10.0699 19.32C9.87994 19.32 9.68994 19.25 9.53994 19.1L3.46994 13.03C3.17994 12.74 3.17994 12.26 3.46994 11.97L9.53994 5.9C9.82994 5.61 10.3099 5.61 10.5999 5.9C10.8899 6.19 10.8899 6.67 10.5999 6.96L5.05994 12.5L10.5999 18.04C10.8899 18.33 10.8899 18.81 10.5999 19.1C10.4599 19.25 10.2599 19.32 10.0699 19.32Z" fill="#1D9BF0"/>
<path d="M20.9999 13.25H4.16992C3.75992 13.25 3.41992 12.91 3.41992 12.5C3.41992 12.09 3.75992 11.75 4.16992 11.75H20.9999C21.4099 11.75 21.7499 12.09 21.7499 12.5C21.7499 12.91 21.4099 13.25 20.9999 13.25Z" fill="#1D9BF0"/>
</svg>
