<svg width="24" height="25" viewBox="0 0 24 25" fill="none" xmlns="http://www.w3.org/2000/svg">
<path d="M9.56994 19.7244C9.37994 19.7244 9.18994 19.6544 9.03994 19.5044L2.96994 13.4344C2.67994 13.1444 2.67994 12.6644 2.96994 12.3744L9.03994 6.30441C9.32994 6.01441 9.80994 6.01441 10.0999 6.30441C10.3899 6.59441 10.3899 7.07441 10.0999 7.36441L4.55994 12.9044L10.0999 18.4444C10.3899 18.7344 10.3899 19.2144 10.0999 19.5044C9.95994 19.6544 9.75994 19.7244 9.56994 19.7244Z" fill="#828282"/>
<path d="M20.4999 13.6543H3.66992C3.25992 13.6543 2.91992 13.3143 2.91992 12.9043C2.91992 12.4943 3.25992 12.1543 3.66992 12.1543H20.4999C20.9099 12.1543 21.2499 12.4943 21.2499 12.9043C21.2499 13.3143 20.9099 13.6543 20.4999 13.6543Z" fill="#828282"/>
</svg>
