<svg width="89" height="79" viewBox="0 0 89 79" fill="none" xmlns="http://www.w3.org/2000/svg">
<path d="M61.6983 13.3445V13.5634H61.9171H77.2352C80.0784 13.5656 82.8045 14.6961 84.8149 16.7066C86.8254 18.717 87.9559 21.4431 87.9581 24.2863V68.0524C87.9559 70.8956 86.8254 73.6217 84.8149 75.6322C82.8045 77.6427 80.0784 78.7731 77.2352 78.7754H11.5858C8.74263 78.7731 6.01652 77.6427 4.00607 75.6322C1.99561 73.6217 0.865147 70.8956 0.862875 68.0524L0.862875 24.2862C0.865172 21.4431 1.99564 18.717 4.00607 16.7066C6.01652 14.6961 8.74263 13.5656 11.5858 13.5634H26.9039H27.1228V13.3445V8.96822C27.1261 6.70569 28.0264 4.5368 29.6263 2.93695C31.2261 1.33714 33.3949 0.43686 35.6574 0.433432H53.1636C55.4261 0.43686 57.5949 1.33714 59.1947 2.93695C60.7946 4.5368 61.6949 6.70569 61.6983 8.96822V13.3445ZM57.5404 13.5634H57.7593V13.3445V8.96789C57.7593 7.74909 57.2751 6.58022 56.4133 5.7184C55.5515 4.85658 54.3826 4.37241 53.1638 4.37241H35.6572C34.4384 4.37241 33.2695 4.85658 32.4077 5.7184C31.5459 6.58022 31.0617 7.74909 31.0617 8.96789V13.3445V13.5634H31.2806H57.5404ZM5.08991 39.515L4.80186 39.4189V39.7226V68.0526C4.80186 69.8518 5.51658 71.5773 6.78879 72.8495C8.061 74.1217 9.78648 74.8364 11.5857 74.8364H77.2354C79.0345 74.8364 80.76 74.1217 82.0322 72.8495C83.3044 71.5773 84.0191 69.8518 84.0191 68.0526V39.7226V39.4189L83.7311 39.515L58.1643 48.0402C58.164 48.0403 58.1637 48.0404 58.1634 48.0405C57.9622 48.1058 57.752 48.139 57.5406 48.1389H57.5404H31.2806H31.2804C31.069 48.139 30.8588 48.1058 30.6577 48.0405C30.6574 48.0404 30.6571 48.0403 30.6567 48.0402L5.08991 39.515ZM31.2806 48.3577H57.5404L30.5891 48.2483C30.8124 48.3209 31.0457 48.3578 31.2806 48.3577ZM83.7922 35.4727L84.0191 35.4812V35.254V24.2862C84.0191 22.487 83.3044 20.7615 82.0322 19.4893C80.76 18.2171 79.0345 17.5024 77.2354 17.5024H11.5857C9.78648 17.5024 8.061 18.2171 6.78879 19.4893C5.51658 20.7615 4.80186 22.487 4.80186 24.2862V35.2497V35.4768L5.02885 35.4683C5.23757 35.4605 5.44616 35.4867 5.64644 35.5459L31.5659 44.1887L31.5996 44.1999H31.6351H57.1859H57.2214L57.2551 44.1887L83.1746 35.5503C83.3749 35.4911 83.5835 35.4649 83.7922 35.4727Z" fill="#FAFAFA" stroke="#1D9BF0" stroke-width="0.437665"/>
</svg>
