<svg width="40" height="40" viewBox="0 0 40 40" fill="none" xmlns="http://www.w3.org/2000/svg">
<rect width="40" height="40" rx="5" fill="#F9F9F9"/>
<g clip-path="url(#clip0_4016_4879)">
<path d="M31.3182 13.2506C30.6689 14.2194 29.8722 15.0453 28.9283 15.7283C28.9376 15.9114 28.9422 16.1184 28.9422 16.3493C28.9422 17.6321 28.7558 18.9165 28.3829 20.2023C28.01 21.4883 27.4404 22.7191 26.6741 23.8949C25.9078 25.0706 24.9949 26.1123 23.9356 27.0198C22.8763 27.9272 21.6029 28.6508 20.1155 29.1905C18.6281 29.7302 17.034 30 15.3332 30C12.6789 30 10.2344 29.2812 8 27.8437C8.39659 27.8879 8.77695 27.9101 9.14109 27.9101C11.3586 27.9101 13.3392 27.2249 15.0828 25.8547C14.0489 25.8357 13.123 25.5164 12.305 24.8969C11.487 24.2774 10.9241 23.4858 10.6162 22.5222C10.9205 22.5803 11.2208 22.6094 11.5172 22.6094C11.9438 22.6094 12.3635 22.5536 12.7765 22.4419C11.6731 22.2203 10.7577 21.669 10.0304 20.7882C9.3031 19.9073 8.93945 18.8907 8.93945 17.7382V17.6788C9.61672 18.055 10.3391 18.2551 11.1067 18.2791C10.453 17.842 9.9348 17.272 9.55197 16.5691C9.16911 15.8662 8.97768 15.1056 8.97768 14.2872C8.97768 13.424 9.1933 12.6203 9.62455 11.8759C10.8245 13.3529 12.2784 14.5334 13.9864 15.4174C15.6944 16.3013 17.5268 16.7922 19.4835 16.8901C19.4001 16.5413 19.3582 16.1772 19.3581 15.7979C19.3581 14.4737 19.8253 13.343 20.7597 12.4058C21.6941 11.4686 22.8214 11 24.1415 11C25.5237 11 26.688 11.5048 27.6342 12.5145C28.7154 12.2997 29.7277 11.9112 30.6712 11.3489C30.3077 12.4964 29.6073 13.3815 28.57 14.0045C29.5234 13.8908 30.4394 13.6395 31.3182 13.2506H31.3182Z" fill="#1D9BF0"/>
</g>
<defs>
<clipPath id="clip0_4016_4879">
<rect width="23.3182" height="19" fill="white" transform="translate(8 11)"/>
</clipPath>
</defs>
</svg>
