<svg width="40" height="40" viewBox="0 0 40 40" fill="none" xmlns="http://www.w3.org/2000/svg">
<rect width="40" height="40" rx="5" fill="#F9F9F9"/>
<path d="M12.9829 15.1973C14.1913 15.1973 15.1709 14.2177 15.1709 13.0093C15.1709 11.8009 14.1913 10.8213 12.9829 10.8213C11.7745 10.8213 10.7949 11.8009 10.7949 13.0093C10.7949 14.2177 11.7745 15.1973 12.9829 15.1973Z" fill="#1D9BF0"/>
<path d="M17.2372 16.8547V28.9937H21.0062V22.9907C21.0062 21.4067 21.3042 19.8727 23.2682 19.8727C25.2052 19.8727 25.2292 21.6837 25.2292 23.0907V28.9947H29.0002V22.3377C29.0002 19.0677 28.2962 16.5547 24.4742 16.5547C22.6392 16.5547 21.4092 17.5617 20.9062 18.5147H20.8552V16.8547H17.2372ZM11.0952 16.8547H14.8702V28.9937H11.0952V16.8547Z" fill="#1D9BF0"/>
</svg>
