<svg width="40" height="40" viewBox="0 0 40 40" fill="none" xmlns="http://www.w3.org/2000/svg">
<rect width="40" height="40" rx="5" fill="#F9F9F9"/>
<path d="M23 30.75H17C11.57 30.75 9.25 28.43 9.25 23V17C9.25 11.57 11.57 9.25 17 9.25H23C28.43 9.25 30.75 11.57 30.75 17V23C30.75 28.43 28.43 30.75 23 30.75ZM17 10.75C12.39 10.75 10.75 12.39 10.75 17V23C10.75 27.61 12.39 29.25 17 29.25H23C27.61 29.25 29.25 27.61 29.25 23V17C29.25 12.39 27.61 10.75 23 10.75H17Z" fill="#1D9BF0"/>
<path d="M20 24.25C17.66 24.25 15.75 22.34 15.75 20C15.75 17.66 17.66 15.75 20 15.75C22.34 15.75 24.25 17.66 24.25 20C24.25 22.34 22.34 24.25 20 24.25ZM20 17.25C18.48 17.25 17.25 18.48 17.25 20C17.25 21.52 18.48 22.75 20 22.75C21.52 22.75 22.75 21.52 22.75 20C22.75 18.48 21.52 17.25 20 17.25Z" fill="#1D9BF0"/>
<path d="M25 15.4999C24.87 15.4999 24.74 15.4699 24.62 15.4199C24.5 15.3699 24.39 15.2999 24.29 15.2099C24.2 15.1099 24.12 14.9999 24.07 14.8799C24.02 14.7599 24 14.6299 24 14.4999C24 14.3699 24.02 14.2399 24.07 14.1199C24.13 13.9899 24.2 13.8899 24.29 13.7899C24.34 13.7499 24.39 13.6999 24.44 13.6699C24.5 13.6299 24.56 13.5999 24.62 13.5799C24.68 13.5499 24.74 13.5299 24.81 13.5199C25.13 13.4499 25.47 13.5599 25.71 13.7899C25.8 13.8899 25.87 13.9899 25.92 14.1199C25.97 14.2399 26 14.3699 26 14.4999C26 14.6299 25.97 14.7599 25.92 14.8799C25.87 14.9999 25.8 15.1099 25.71 15.2099C25.61 15.2999 25.5 15.3699 25.38 15.4199C25.26 15.4699 25.13 15.4999 25 15.4999Z" fill="#1D9BF0"/>
</svg>
