<svg width="105" height="93" viewBox="0 0 105 93" fill="none" xmlns="http://www.w3.org/2000/svg">
<mask id="path-1-inside-1_4016_5140" fill="white">
<path d="M92.2938 75.1465C95.6447 76.7878 98.4143 79.0958 100.603 82.0705C102.791 85.0453 104.176 88.3962 104.757 92.1231H99.1152C98.7391 90.1742 98.0382 88.362 97.0124 86.6865C95.9866 85.0111 94.7386 83.575 93.2683 82.3783C91.798 81.1815 90.1397 80.2241 88.2933 79.5061C86.4469 78.788 84.5321 78.4461 82.5489 78.4803C80.5316 78.4803 78.6168 78.8222 76.8046 79.5061C74.9924 80.1899 73.334 81.1302 71.8296 82.327C70.3251 83.5237 69.0771 84.9769 68.0855 86.6865C67.0939 88.3962 66.393 90.2084 65.9826 92.1231H60.3409C60.888 88.4304 62.2557 85.0966 64.444 82.1218C66.6323 79.1471 69.419 76.822 72.8041 75.1465C70.8551 73.6079 69.3506 71.7444 68.2906 69.5561C67.2307 67.3677 66.6836 65.0426 66.6494 62.5808C66.6494 61.0421 66.8546 59.5547 67.2649 58.1187C67.6752 56.6826 68.2906 55.332 69.1113 54.0668C69.9319 52.8017 70.9064 51.6734 72.0347 50.6818C73.1631 49.6902 74.4282 48.8525 75.8301 48.1686C74.9069 46.8351 73.8469 45.6555 72.6502 44.6297C71.4535 43.6039 70.1541 42.6978 68.7522 41.9114C67.3503 41.125 65.8801 40.5608 64.3414 40.2189C62.8027 39.8769 61.2128 39.6718 59.5715 39.6034C56.8361 39.6034 54.2204 40.1334 51.7244 41.1933C49.2283 42.2533 47.0571 43.8091 45.2107 45.8606C46.0313 48.0831 46.4416 50.374 46.4416 52.7333C46.4416 55.879 45.7407 58.8367 44.3388 61.6063C42.9369 64.3759 40.9708 66.701 38.4405 68.5816C40.6631 69.7099 42.6633 71.0947 44.4413 72.736C46.2194 74.3772 47.758 76.2236 49.0573 78.2752C50.3567 80.3267 51.3311 82.515 51.9808 84.8401C52.6305 87.1652 52.9724 89.5929 53.0066 92.1231H46.4416C46.4416 89.4219 45.9287 86.8746 44.9029 84.4811C43.8772 82.0876 42.4753 80.0019 40.6973 78.2239C38.9192 76.4459 36.8164 75.0269 34.3887 73.9669C31.9611 72.9069 29.4137 72.394 26.7467 72.4282C24.0113 72.4282 21.4639 72.9411 19.1047 73.9669C16.7454 74.9927 14.6596 76.3946 12.8474 78.1726C11.0352 79.9506 9.61623 82.0534 8.59045 84.4811C7.56467 86.9088 7.05179 89.4561 7.05179 92.1231H0.486816C0.486816 89.6271 0.828742 87.2165 1.51259 84.8914C2.19644 82.5663 3.17093 80.378 4.43606 78.3265C5.70118 76.2749 7.22275 74.4285 9.00076 72.7873C10.7788 71.146 12.7961 69.7441 15.0528 68.5816C12.5226 66.701 10.5565 64.3759 9.15463 61.6063C7.75273 58.8367 7.05179 55.879 7.05179 52.7333C7.05179 50.0321 7.56467 47.4848 8.59045 45.0913C9.61623 42.6978 11.0181 40.6121 12.7961 38.8341C14.5741 37.056 16.6599 35.6371 19.0534 34.5771C21.4468 33.5171 24.0113 33.0042 26.7467 33.0384C29.6531 33.0384 32.4056 33.6539 35.0042 34.8848C37.6028 36.1158 39.8595 37.8254 41.7743 40.0137C42.6633 39.1589 43.6207 38.3896 44.6465 37.7057C45.6723 37.0219 46.7493 36.3722 47.8777 35.7567C45.3474 33.8761 43.3814 31.551 41.9795 28.7815C40.5776 26.0119 39.8766 23.0542 39.8766 19.9085C39.8766 17.2073 40.3895 14.6599 41.4153 12.2665C42.4411 9.87297 43.843 7.78723 45.621 6.00921C47.399 4.2312 49.4847 2.81221 51.8782 1.75224C54.2717 0.692274 56.8361 0.179385 59.5715 0.213578C62.2728 0.213578 64.8201 0.726466 67.2136 1.75224C69.6071 2.77802 71.6928 4.17991 73.4708 5.95793C75.2488 7.73594 76.6678 9.83878 77.7278 12.2665C78.7878 14.6941 79.3006 17.2415 79.2664 19.9085C79.2664 23.0542 78.5655 26.0119 77.1636 28.7815C75.7617 31.551 73.7956 33.8761 71.2654 35.7567C73.6589 37.0219 75.813 38.5605 77.7278 40.3727C79.6426 42.1849 81.2667 44.2878 82.6002 46.6812C84.7886 46.6812 86.8401 47.0916 88.7549 47.9122C90.6697 48.7328 92.3622 49.8783 93.8325 51.3485C95.3028 52.8188 96.4311 54.4942 97.2175 56.3748C98.004 58.2554 98.4143 60.3241 98.4485 62.5808C98.4485 65.0426 97.9185 67.3677 96.8585 69.5561C95.7985 71.7444 94.277 73.6079 92.2938 75.1465ZM26.7467 65.8633C28.5589 65.8633 30.2514 65.5213 31.8243 64.8375C33.3971 64.1536 34.799 63.2133 36.03 62.0166C37.2609 60.8199 38.2012 59.4351 38.8509 57.8622C39.5005 56.2894 39.8424 54.5797 39.8766 52.7333C39.8766 50.9211 39.5347 49.2286 38.8509 47.6557C38.167 46.0829 37.2267 44.681 36.03 43.4501C34.8332 42.2191 33.4484 41.2788 31.8756 40.6292C30.3027 39.9795 28.5931 39.6376 26.7467 39.6034C24.9345 39.6034 23.242 39.9453 21.6691 40.6292C20.0962 41.313 18.6943 42.2533 17.4634 43.4501C16.2325 44.6468 15.2922 46.0316 14.6425 47.6044C13.9929 49.1773 13.6509 50.8869 13.6168 52.7333C13.6168 54.5455 13.9587 56.2381 14.6425 57.8109C15.3264 59.3838 16.2667 60.7857 17.4634 62.0166C18.6602 63.2475 20.045 64.1878 21.6178 64.8375C23.1907 65.4872 24.9003 65.8291 26.7467 65.8633ZM46.4416 19.9085C46.4416 21.7207 46.7835 23.4132 47.4674 24.9861C48.1512 26.5589 49.0915 27.9608 50.2883 29.1918C51.485 30.4227 52.8698 31.363 54.4427 32.0126C56.0155 32.6623 57.7251 33.0042 59.5715 33.0384C61.3837 33.0384 63.0763 32.6965 64.6491 32.0126C66.222 31.3288 67.6239 30.3885 68.8548 29.1918C70.0858 27.995 71.026 26.6102 71.6757 25.0374C72.3254 23.4645 72.6673 21.7549 72.7015 19.9085C72.7015 18.0963 72.3596 16.4037 71.6757 14.8309C70.9919 13.258 70.0516 11.8561 68.8548 10.6252C67.6581 9.39428 66.2733 8.45398 64.7004 7.80432C63.1276 7.15466 61.4179 6.81274 59.5715 6.77855C57.7593 6.77855 56.0668 7.12047 54.4939 7.80432C52.9211 8.48817 51.5192 9.42847 50.2883 10.6252C49.0573 11.8219 48.117 13.2067 47.4674 14.7796C46.8177 16.3525 46.4758 18.0621 46.4416 19.9085ZM82.5489 52.2204C81.1128 52.2204 79.7793 52.494 78.5484 53.0411C77.3175 53.5881 76.2233 54.3233 75.2659 55.2465C74.3085 56.1697 73.5563 57.2638 73.0092 58.529C72.4621 59.7941 72.1886 61.1447 72.1886 62.5808C72.1886 64.0169 72.4621 65.3504 73.0092 66.5813C73.5563 67.8122 74.2914 68.9064 75.2146 69.8638C76.1378 70.8212 77.232 71.5734 78.4971 72.1205C79.7622 72.6676 81.1128 72.9411 82.5489 72.9411C83.985 72.9411 85.3185 72.6676 86.5495 72.1205C87.7804 71.5734 88.8746 70.8383 89.8319 69.9151C90.7893 68.9919 91.5416 67.8977 92.0887 66.6326C92.6357 65.3675 92.9093 64.0169 92.9093 62.5808C92.9093 61.1447 92.6357 59.8112 92.0887 58.5803C91.5416 57.3493 90.8064 56.2552 89.8832 55.2978C88.96 54.3404 87.8659 53.5881 86.6008 53.0411C85.3356 52.494 83.985 52.2204 82.5489 52.2204Z"/>
</mask>
<path d="M92.2938 75.1465C95.6447 76.7878 98.4143 79.0958 100.603 82.0705C102.791 85.0453 104.176 88.3962 104.757 92.1231H99.1152C98.7391 90.1742 98.0382 88.362 97.0124 86.6865C95.9866 85.0111 94.7386 83.575 93.2683 82.3783C91.798 81.1815 90.1397 80.2241 88.2933 79.5061C86.4469 78.788 84.5321 78.4461 82.5489 78.4803C80.5316 78.4803 78.6168 78.8222 76.8046 79.5061C74.9924 80.1899 73.334 81.1302 71.8296 82.327C70.3251 83.5237 69.0771 84.9769 68.0855 86.6865C67.0939 88.3962 66.393 90.2084 65.9826 92.1231H60.3409C60.888 88.4304 62.2557 85.0966 64.444 82.1218C66.6323 79.1471 69.419 76.822 72.8041 75.1465C70.8551 73.6079 69.3506 71.7444 68.2906 69.5561C67.2307 67.3677 66.6836 65.0426 66.6494 62.5808C66.6494 61.0421 66.8546 59.5547 67.2649 58.1187C67.6752 56.6826 68.2906 55.332 69.1113 54.0668C69.9319 52.8017 70.9064 51.6734 72.0347 50.6818C73.1631 49.6902 74.4282 48.8525 75.8301 48.1686C74.9069 46.8351 73.8469 45.6555 72.6502 44.6297C71.4535 43.6039 70.1541 42.6978 68.7522 41.9114C67.3503 41.125 65.8801 40.5608 64.3414 40.2189C62.8027 39.8769 61.2128 39.6718 59.5715 39.6034C56.8361 39.6034 54.2204 40.1334 51.7244 41.1933C49.2283 42.2533 47.0571 43.8091 45.2107 45.8606C46.0313 48.0831 46.4416 50.374 46.4416 52.7333C46.4416 55.879 45.7407 58.8367 44.3388 61.6063C42.9369 64.3759 40.9708 66.701 38.4405 68.5816C40.6631 69.7099 42.6633 71.0947 44.4413 72.736C46.2194 74.3772 47.758 76.2236 49.0573 78.2752C50.3567 80.3267 51.3311 82.515 51.9808 84.8401C52.6305 87.1652 52.9724 89.5929 53.0066 92.1231H46.4416C46.4416 89.4219 45.9287 86.8746 44.9029 84.4811C43.8772 82.0876 42.4753 80.0019 40.6973 78.2239C38.9192 76.4459 36.8164 75.0269 34.3887 73.9669C31.9611 72.9069 29.4137 72.394 26.7467 72.4282C24.0113 72.4282 21.4639 72.9411 19.1047 73.9669C16.7454 74.9927 14.6596 76.3946 12.8474 78.1726C11.0352 79.9506 9.61623 82.0534 8.59045 84.4811C7.56467 86.9088 7.05179 89.4561 7.05179 92.1231H0.486816C0.486816 89.6271 0.828742 87.2165 1.51259 84.8914C2.19644 82.5663 3.17093 80.378 4.43606 78.3265C5.70118 76.2749 7.22275 74.4285 9.00076 72.7873C10.7788 71.146 12.7961 69.7441 15.0528 68.5816C12.5226 66.701 10.5565 64.3759 9.15463 61.6063C7.75273 58.8367 7.05179 55.879 7.05179 52.7333C7.05179 50.0321 7.56467 47.4848 8.59045 45.0913C9.61623 42.6978 11.0181 40.6121 12.7961 38.8341C14.5741 37.056 16.6599 35.6371 19.0534 34.5771C21.4468 33.5171 24.0113 33.0042 26.7467 33.0384C29.6531 33.0384 32.4056 33.6539 35.0042 34.8848C37.6028 36.1158 39.8595 37.8254 41.7743 40.0137C42.6633 39.1589 43.6207 38.3896 44.6465 37.7057C45.6723 37.0219 46.7493 36.3722 47.8777 35.7567C45.3474 33.8761 43.3814 31.551 41.9795 28.7815C40.5776 26.0119 39.8766 23.0542 39.8766 19.9085C39.8766 17.2073 40.3895 14.6599 41.4153 12.2665C42.4411 9.87297 43.843 7.78723 45.621 6.00921C47.399 4.2312 49.4847 2.81221 51.8782 1.75224C54.2717 0.692274 56.8361 0.179385 59.5715 0.213578C62.2728 0.213578 64.8201 0.726466 67.2136 1.75224C69.6071 2.77802 71.6928 4.17991 73.4708 5.95793C75.2488 7.73594 76.6678 9.83878 77.7278 12.2665C78.7878 14.6941 79.3006 17.2415 79.2664 19.9085C79.2664 23.0542 78.5655 26.0119 77.1636 28.7815C75.7617 31.551 73.7956 33.8761 71.2654 35.7567C73.6589 37.0219 75.813 38.5605 77.7278 40.3727C79.6426 42.1849 81.2667 44.2878 82.6002 46.6812C84.7886 46.6812 86.8401 47.0916 88.7549 47.9122C90.6697 48.7328 92.3622 49.8783 93.8325 51.3485C95.3028 52.8188 96.4311 54.4942 97.2175 56.3748C98.004 58.2554 98.4143 60.3241 98.4485 62.5808C98.4485 65.0426 97.9185 67.3677 96.8585 69.5561C95.7985 71.7444 94.277 73.6079 92.2938 75.1465ZM26.7467 65.8633C28.5589 65.8633 30.2514 65.5213 31.8243 64.8375C33.3971 64.1536 34.799 63.2133 36.03 62.0166C37.2609 60.8199 38.2012 59.4351 38.8509 57.8622C39.5005 56.2894 39.8424 54.5797 39.8766 52.7333C39.8766 50.9211 39.5347 49.2286 38.8509 47.6557C38.167 46.0829 37.2267 44.681 36.03 43.4501C34.8332 42.2191 33.4484 41.2788 31.8756 40.6292C30.3027 39.9795 28.5931 39.6376 26.7467 39.6034C24.9345 39.6034 23.242 39.9453 21.6691 40.6292C20.0962 41.313 18.6943 42.2533 17.4634 43.4501C16.2325 44.6468 15.2922 46.0316 14.6425 47.6044C13.9929 49.1773 13.6509 50.8869 13.6168 52.7333C13.6168 54.5455 13.9587 56.2381 14.6425 57.8109C15.3264 59.3838 16.2667 60.7857 17.4634 62.0166C18.6602 63.2475 20.045 64.1878 21.6178 64.8375C23.1907 65.4872 24.9003 65.8291 26.7467 65.8633ZM46.4416 19.9085C46.4416 21.7207 46.7835 23.4132 47.4674 24.9861C48.1512 26.5589 49.0915 27.9608 50.2883 29.1918C51.485 30.4227 52.8698 31.363 54.4427 32.0126C56.0155 32.6623 57.7251 33.0042 59.5715 33.0384C61.3837 33.0384 63.0763 32.6965 64.6491 32.0126C66.222 31.3288 67.6239 30.3885 68.8548 29.1918C70.0858 27.995 71.026 26.6102 71.6757 25.0374C72.3254 23.4645 72.6673 21.7549 72.7015 19.9085C72.7015 18.0963 72.3596 16.4037 71.6757 14.8309C70.9919 13.258 70.0516 11.8561 68.8548 10.6252C67.6581 9.39428 66.2733 8.45398 64.7004 7.80432C63.1276 7.15466 61.4179 6.81274 59.5715 6.77855C57.7593 6.77855 56.0668 7.12047 54.4939 7.80432C52.9211 8.48817 51.5192 9.42847 50.2883 10.6252C49.0573 11.8219 48.117 13.2067 47.4674 14.7796C46.8177 16.3525 46.4758 18.0621 46.4416 19.9085ZM82.5489 52.2204C81.1128 52.2204 79.7793 52.494 78.5484 53.0411C77.3175 53.5881 76.2233 54.3233 75.2659 55.2465C74.3085 56.1697 73.5563 57.2638 73.0092 58.529C72.4621 59.7941 72.1886 61.1447 72.1886 62.5808C72.1886 64.0169 72.4621 65.3504 73.0092 66.5813C73.5563 67.8122 74.2914 68.9064 75.2146 69.8638C76.1378 70.8212 77.232 71.5734 78.4971 72.1205C79.7622 72.6676 81.1128 72.9411 82.5489 72.9411C83.985 72.9411 85.3185 72.6676 86.5495 72.1205C87.7804 71.5734 88.8746 70.8383 89.8319 69.9151C90.7893 68.9919 91.5416 67.8977 92.0887 66.6326C92.6357 65.3675 92.9093 64.0169 92.9093 62.5808C92.9093 61.1447 92.6357 59.8112 92.0887 58.5803C91.5416 57.3493 90.8064 56.2552 89.8832 55.2978C88.96 54.3404 87.8659 53.5881 86.6008 53.0411C85.3356 52.494 83.985 52.2204 82.5489 52.2204Z" fill="#FAFAFA" stroke="#1D9BF0" stroke-width="3.50132" mask="url(#path-1-inside-1_4016_5140)"/>
</svg>
