<svg width="60" height="60" viewBox="0 0 60 60" fill="none" xmlns="http://www.w3.org/2000/svg">
<path fill-rule="evenodd" clip-rule="evenodd" d="M45 20C45 19.0054 45.3951 18.0516 46.0984 17.3483C46.8016 16.6451 47.7554 16.25 48.75 16.25C49.7446 16.25 50.6984 16.6451 51.4016 17.3483C52.1049 18.0516 52.5 19.0054 52.5 20V45.3787L48.75 51.0037L45 45.3787V20ZM48.75 18.75C48.4185 18.75 48.1005 18.8817 47.8661 19.1161C47.6317 19.3505 47.5 19.6685 47.5 20V44.6212L48.75 46.4962L50 44.6212V20C50 19.6685 49.8683 19.3505 49.6339 19.1161C49.3995 18.8817 49.0815 18.75 48.75 18.75Z" fill="#1D9BF0"/>
<path fill-rule="evenodd" clip-rule="evenodd" d="M51.25 25H46.25V22.5H51.25V25ZM12.5 10C11.837 10 11.2011 10.2634 10.7322 10.7322C10.2634 11.2011 10 11.837 10 12.5V47.5C10 48.163 10.2634 48.7989 10.7322 49.2678C11.2011 49.7366 11.837 50 12.5 50H37.5C38.163 50 38.7989 49.7366 39.2678 49.2678C39.7366 48.7989 40 48.163 40 47.5V12.5C40 11.837 39.7366 11.2011 39.2678 10.7322C38.7989 10.2634 38.163 10 37.5 10H12.5ZM7.5 12.5C7.5 11.1739 8.02678 9.90215 8.96447 8.96447C9.90215 8.02678 11.1739 7.5 12.5 7.5H37.5C38.8261 7.5 40.0979 8.02678 41.0355 8.96447C41.9732 9.90215 42.5 11.1739 42.5 12.5V47.5C42.5 48.8261 41.9732 50.0979 41.0355 51.0355C40.0979 51.9732 38.8261 52.5 37.5 52.5H12.5C11.1739 52.5 9.90215 51.9732 8.96447 51.0355C8.02678 50.0979 7.5 48.8261 7.5 47.5V12.5Z" fill="#1D9BF0"/>
<path fill-rule="evenodd" clip-rule="evenodd" d="M25 18.75C25 18.4185 25.1317 18.1005 25.3661 17.8661C25.6005 17.6317 25.9185 17.5 26.25 17.5H36.25C36.5815 17.5 36.8994 17.6317 37.1339 17.8661C37.3683 18.1005 37.5 18.4185 37.5 18.75C37.5 19.0815 37.3683 19.3995 37.1339 19.6339C36.8994 19.8683 36.5815 20 36.25 20H26.25C25.9185 20 25.6005 19.8683 25.3661 19.6339C25.1317 19.3995 25 19.0815 25 18.75ZM25 23.75C25 23.4185 25.1317 23.1005 25.3661 22.8661C25.6005 22.6317 25.9185 22.5 26.25 22.5H36.25C36.5815 22.5 36.8994 22.6317 37.1339 22.8661C37.3683 23.1005 37.5 23.4185 37.5 23.75C37.5 24.0815 37.3683 24.3995 37.1339 24.6339C36.8994 24.8683 36.5815 25 36.25 25H26.25C25.9185 25 25.6005 24.8683 25.3661 24.6339C25.1317 24.3995 25 24.0815 25 23.75ZM25 35C25 34.6685 25.1317 34.3505 25.3661 34.1161C25.6005 33.8817 25.9185 33.75 26.25 33.75H36.25C36.5815 33.75 36.8994 33.8817 37.1339 34.1161C37.3683 34.3505 37.5 34.6685 37.5 35C37.5 35.3315 37.3683 35.6495 37.1339 35.8839C36.8994 36.1183 36.5815 36.25 36.25 36.25H26.25C25.9185 36.25 25.6005 36.1183 25.3661 35.8839C25.1317 35.6495 25 35.3315 25 35ZM25 40C25 39.6685 25.1317 39.3505 25.3661 39.1161C25.6005 38.8817 25.9185 38.75 26.25 38.75H36.25C36.5815 38.75 36.8994 38.8817 37.1339 39.1161C37.3683 39.3505 37.5 39.6685 37.5 40C37.5 40.3315 37.3683 40.6495 37.1339 40.8839C36.8994 41.1183 36.5815 41.25 36.25 41.25H26.25C25.9185 41.25 25.6005 41.1183 25.3661 40.8839C25.1317 40.6495 25 40.3315 25 40ZM15 35V38.75H18.75V35H15ZM13.75 32.5H20C20.3315 32.5 20.6494 32.6317 20.8839 32.8661C21.1183 33.1005 21.25 33.4185 21.25 33.75V40C21.25 40.3315 21.1183 40.6495 20.8839 40.8839C20.6494 41.1183 20.3315 41.25 20 41.25H13.75C13.4185 41.25 13.1005 41.1183 12.8661 40.8839C12.6317 40.6495 12.5 40.3315 12.5 40V33.75C12.5 33.4185 12.6317 33.1005 12.8661 32.8661C13.1005 32.6317 13.4185 32.5 13.75 32.5ZM22.1337 17.8663C22.3681 18.1007 22.4997 18.4185 22.4997 18.75C22.4997 19.0815 22.3681 19.3993 22.1337 19.6338L16.25 25.5175L12.8662 22.1338C12.7468 22.0184 12.6516 21.8805 12.5861 21.728C12.5206 21.5755 12.4861 21.4115 12.4847 21.2455C12.4832 21.0795 12.5149 20.9149 12.5777 20.7613C12.6406 20.6077 12.7334 20.4681 12.8507 20.3508C12.9681 20.2334 13.1077 20.1406 13.2613 20.0777C13.4149 20.0149 13.5795 19.9832 13.7455 19.9847C13.9115 19.9861 14.0755 20.0206 14.228 20.0861C14.3805 20.1516 14.5184 20.2469 14.6337 20.3662L16.25 21.9825L20.3662 17.8663C20.6006 17.6319 20.9185 17.5003 21.25 17.5003C21.5814 17.5003 21.8993 17.6319 22.1337 17.8663Z" fill="#1D9BF0"/>
</svg>
