<svg width="24" height="24" viewBox="0 0 24 24" fill="none" xmlns="http://www.w3.org/2000/svg">
<path d="M8.76047 22.27H8.89047C13.3305 22.27 15.4705 20.52 15.8405 16.6C15.8805 16.19 15.5805 15.82 15.1605 15.78C14.7505 15.74 14.3805 16.05 14.3405 16.46C14.0505 19.6 12.5705 20.77 8.88047 20.77H8.75047C4.68047 20.77 3.24047 19.33 3.24047 15.26V8.73998C3.24047 4.66998 4.68047 3.22998 8.75047 3.22998H8.88047C12.5905 3.22998 14.0705 4.41998 14.3405 7.61998C14.3905 8.02998 14.7305 8.33998 15.1605 8.29998C15.5805 8.26998 15.8805 7.89998 15.8505 7.48998C15.5105 3.50998 13.3605 1.72998 8.89047 1.72998H8.76047C3.85047 1.72998 1.75047 3.82998 1.75047 8.73998V15.26C1.75047 20.17 3.85047 22.27 8.76047 22.27Z" fill="#FAFAFA"/>
<path d="M9.12 12.75H22C22.41 12.75 22.75 12.41 22.75 12C22.75 11.59 22.41 11.25 22 11.25H9.12C8.71 11.25 8.37 11.59 8.37 12C8.37 12.41 8.7 12.75 9.12 12.75Z" fill="#FAFAFA"/>
<path d="M11.3502 16.0998C11.5402 16.0998 11.7302 16.0298 11.8802 15.8798C12.1702 15.5898 12.1702 15.1098 11.8802 14.8198L9.06016 11.9998L11.8802 9.17984C12.1702 8.88984 12.1702 8.40984 11.8802 8.11984C11.5902 7.82984 11.1102 7.82984 10.8202 8.11984L7.47016 11.4698C7.18016 11.7598 7.18016 12.2398 7.47016 12.5298L10.8202 15.8798C10.9702 16.0298 11.1602 16.0998 11.3502 16.0998Z" fill="#FAFAFA"/>
</svg>
