<svg width="24" height="24" viewBox="0 0 24 24" fill="none" xmlns="http://www.w3.org/2000/svg">
<path d="M8.75998 22.27H8.88999C13.33 22.27 15.47 20.52 15.84 16.6C15.88 16.19 15.58 15.82 15.16 15.78C14.75 15.74 14.38 16.05 14.34 16.46C14.05 19.6 12.57 20.77 8.87998 20.77H8.74998C4.67999 20.77 3.23998 19.33 3.23998 15.26V8.74001C3.23998 4.67001 4.67999 3.23001 8.74998 3.23001H8.87998C12.59 3.23001 14.07 4.42001 14.34 7.62001C14.39 8.03001 14.73 8.34001 15.16 8.30001C15.58 8.27001 15.88 7.90001 15.85 7.49001C15.51 3.51001 13.36 1.73001 8.88999 1.73001H8.75998C3.84999 1.73001 1.74998 3.83001 1.74998 8.74001V15.26C1.74998 20.17 3.84999 22.27 8.75998 22.27Z" fill="#1D9BF0"/>
<path d="M9.12 12.75H22C22.41 12.75 22.75 12.41 22.75 12C22.75 11.59 22.41 11.25 22 11.25H9.12C8.71 11.25 8.37 11.59 8.37 12C8.37 12.41 8.7 12.75 9.12 12.75Z" fill="#1D9BF0"/>
<path d="M11.3499 16.1C11.5399 16.1 11.7299 16.03 11.8799 15.88C12.1699 15.59 12.1699 15.11 11.8799 14.82L9.05991 12L11.8799 9.18C12.1699 8.89 12.1699 8.41 11.8799 8.12C11.5899 7.83 11.1099 7.83 10.8199 8.12L7.46991 11.47C7.17991 11.76 7.17991 12.24 7.46991 12.53L10.8199 15.88C10.9699 16.03 11.1599 16.1 11.3499 16.1Z" fill="#1D9BF0"/>
</svg>
