<svg width="50" height="50" viewBox="0 0 50 50" fill="none" xmlns="http://www.w3.org/2000/svg">
<path d="M35.4165 38.396H27.0832L17.8123 44.5625C16.4373 45.4792 14.5832 44.5001 14.5832 42.8335V38.396C8.33317 38.396 4.1665 34.2293 4.1665 27.9793V15.4792C4.1665 9.22917 8.33317 5.0625 14.5832 5.0625H35.4165C41.6665 5.0625 45.8332 9.22917 45.8332 15.4792V27.9793C45.8332 34.2293 41.6665 38.396 35.4165 38.396Z" stroke="#1D9BF0" stroke-width="3" stroke-miterlimit="10" stroke-linecap="round" stroke-linejoin="round"/>
<path d="M24.9998 23.6666V23.2292C24.9998 21.8125 25.8748 21.0625 26.7498 20.4583C27.604 19.875 28.4581 19.125 28.4581 17.75C28.4581 15.8334 26.9164 14.2916 24.9998 14.2916C23.0831 14.2916 21.5415 15.8334 21.5415 17.75" stroke="#1D9BF0" stroke-width="3" stroke-linecap="round" stroke-linejoin="round"/>
<path d="M24.9908 28.6458H25.0095" stroke="#1D9BF0" stroke-width="3" stroke-linecap="round" stroke-linejoin="round"/>
</svg>
