<svg width="50" height="50" viewBox="0 0 50 50" fill="none" xmlns="http://www.w3.org/2000/svg">
<path d="M36.5832 37.4375H13.4165C5.12484 37.4375 2.604 34.9167 2.604 26.625V13.4167C2.604 5.12499 5.12484 2.60416 13.4165 2.60416H36.5623C44.854 2.60416 47.3748 5.12499 47.3748 13.4167V26.6042C47.3957 34.9167 44.8748 37.4375 36.5832 37.4375ZM13.4165 5.72916C6.87484 5.72916 5.729 6.87499 5.729 13.4167V26.6042C5.729 33.1458 6.87484 34.2917 13.4165 34.2917H36.5623C43.104 34.2917 44.2498 33.1458 44.2498 26.6042V13.4167C44.2498 6.87499 43.104 5.72916 36.5623 5.72916H13.4165Z" fill="#1D9BF0"/>
<path d="M25 47.3958C24.1458 47.3958 23.4375 46.6875 23.4375 45.8333V35.875C23.4375 35.0208 24.1458 34.3125 25 34.3125C25.8542 34.3125 26.5625 35.0208 26.5625 35.875V45.8333C26.5625 46.6875 25.8542 47.3958 25 47.3958Z" fill="#1D9BF0"/>
<path d="M45.8332 28.6458H4.1665C3.31234 28.6458 2.604 27.9375 2.604 27.0833C2.604 26.2292 3.31234 25.5208 4.1665 25.5208H45.8332C46.6873 25.5208 47.3957 26.2292 47.3957 27.0833C47.3957 27.9375 46.6873 28.6458 45.8332 28.6458Z" fill="#1D9BF0"/>
<path d="M34.375 47.3958H15.625C14.7708 47.3958 14.0625 46.6875 14.0625 45.8333C14.0625 44.9792 14.7708 44.2708 15.625 44.2708H34.375C35.2292 44.2708 35.9375 44.9792 35.9375 45.8333C35.9375 46.6875 35.2292 47.3958 34.375 47.3958Z" fill="#1D9BF0"/>
</svg>
