<svg width="50" height="50" viewBox="0 0 50 50" fill="none" xmlns="http://www.w3.org/2000/svg">
<path d="M19.0824 24.2083C19.0199 24.2083 18.9782 24.2083 18.9157 24.2083C18.8115 24.1875 18.6657 24.1875 18.5407 24.2083C12.499 24.0208 7.93652 19.2708 7.93652 13.4167C7.93652 7.45832 12.7907 2.60416 18.749 2.60416C24.7074 2.60416 29.5615 7.45832 29.5615 13.4167C29.5407 19.2708 24.9574 24.0208 19.1449 24.2083C19.124 24.2083 19.1032 24.2083 19.0824 24.2083ZM18.749 5.72916C14.5199 5.72916 11.0615 9.18749 11.0615 13.4167C11.0615 17.5833 14.3115 20.9375 18.4574 21.0833C18.5824 21.0625 18.8532 21.0625 19.124 21.0833C23.2074 20.8958 26.4157 17.5417 26.4365 13.4167C26.4365 9.18749 22.9782 5.72916 18.749 5.72916Z" fill="#1D9BF0"/>
<path d="M34.4574 24.4792C34.3949 24.4792 34.3324 24.4792 34.2699 24.4583C33.4158 24.5417 32.5408 23.9375 32.4574 23.0833C32.3741 22.2292 32.8949 21.4583 33.7491 21.3542C33.9991 21.3333 34.2699 21.3333 34.4991 21.3333C37.5408 21.1667 39.9158 18.6667 39.9158 15.6042C39.9158 12.4375 37.3533 9.87501 34.1866 9.87501C33.3324 9.89584 32.6241 9.18751 32.6241 8.33334C32.6241 7.47918 33.3324 6.77084 34.1866 6.77084C39.0616 6.77084 43.0408 10.75 43.0408 15.625C43.0408 20.4167 39.2908 24.2917 34.5199 24.4792C34.4991 24.4792 34.4783 24.4792 34.4574 24.4792Z" fill="#1D9BF0"/>
<path d="M19.1034 46.9792C15.02 46.9792 10.9159 45.9375 7.81169 43.8542C4.91585 41.9375 3.33252 39.3125 3.33252 36.4583C3.33252 33.6042 4.91585 30.9583 7.81169 29.0208C14.0617 24.875 24.1867 24.875 30.395 29.0208C33.27 30.9375 34.8742 33.5625 34.8742 36.4167C34.8742 39.2708 33.2909 41.9167 30.395 43.8542C27.27 45.9375 23.1867 46.9792 19.1034 46.9792ZM9.54085 31.6458C7.54085 32.9792 6.45752 34.6875 6.45752 36.4792C6.45752 38.25 7.56169 39.9583 9.54085 41.2708C14.7284 44.75 23.4784 44.75 28.6659 41.2708C30.6659 39.9375 31.7492 38.2292 31.7492 36.4375C31.7492 34.6667 30.645 32.9583 28.6659 31.6458C23.4784 28.1875 14.7284 28.1875 9.54085 31.6458Z" fill="#1D9BF0"/>
<path d="M38.2077 43.2292C37.4785 43.2292 36.8327 42.7292 36.6869 41.9792C36.5202 41.125 37.0619 40.3125 37.8952 40.125C39.2077 39.8542 40.416 39.3333 41.3535 38.6042C42.541 37.7083 43.1869 36.5833 43.1869 35.3958C43.1869 34.2083 42.541 33.0833 41.3744 32.2083C40.4577 31.5 39.3119 31 37.9577 30.6875C37.1244 30.5 36.5827 29.6667 36.7702 28.8125C36.9577 27.9792 37.791 27.4375 38.6452 27.625C40.4369 28.0208 41.9994 28.7292 43.2702 29.7083C45.2077 31.1667 46.3119 33.2292 46.3119 35.3958C46.3119 37.5625 45.1869 39.625 43.2494 41.1042C41.9577 42.1042 40.3327 42.8333 38.541 43.1875C38.416 43.2292 38.3119 43.2292 38.2077 43.2292Z" fill="#1D9BF0"/>
</svg>
