<svg width="85" height="81" viewBox="0 0 85 81" fill="none" xmlns="http://www.w3.org/2000/svg">
<path d="M82.4221 14.1825L82.4204 14.1819L43.0348 1.05335C43.0342 1.05314 43.0335 1.05292 43.0328 1.05271C42.6144 0.918446 42.1644 0.91844 41.7459 1.05269C41.7452 1.05291 41.7446 1.05313 41.7439 1.05335L2.39951 14.1818L2.33207 14.2043H2.29514L2.10884 14.3108L2.00792 14.3685H1.96689L1.87048 14.4236C1.86735 14.4269 1.86415 14.4302 1.86091 14.4334L82.4221 14.1825ZM82.4221 14.1825C82.8271 14.3156 83.1797 14.5731 83.4297 14.9184C83.6797 15.2637 83.8142 15.6792 83.8142 16.1055C83.8142 16.5317 83.6797 16.9472 83.4297 17.2925C83.1797 17.6378 82.8271 17.8953 82.4221 18.0284L82.4206 18.0289L63.3002 24.3887L62.7496 24.5718L63.0769 25.0509C65.9004 29.1841 67.4045 34.0762 67.391 39.0817L67.3909 39.0826C67.388 43.6016 66.1603 48.0354 63.8384 51.9124C61.5165 55.7893 58.1872 58.9645 54.2046 61.1001L53.3052 61.5824L54.2746 61.9015C62.5311 64.6197 69.6142 70.0715 74.355 77.3573C74.4987 77.5806 74.597 77.83 74.6445 78.0912C74.692 78.3531 74.6874 78.6217 74.6311 78.8818C74.5746 79.1419 74.4675 79.3883 74.3158 79.6069C74.164 79.8256 73.9707 80.0122 73.7467 80.156L73.7391 80.1609L73.7316 80.1661C73.4222 80.3836 73.0527 80.4992 72.6746 80.4969C72.3327 80.493 71.9967 80.4075 71.6945 80.2475C71.3941 80.0885 71.1358 79.8604 70.9407 79.5822C67.8515 74.8244 63.6222 70.914 58.6372 68.2064C53.65 65.4976 48.0647 64.0787 42.3894 64.0787C36.714 64.0787 31.1287 65.4976 26.1415 68.2064C21.1544 70.9152 16.9235 74.8278 13.8339 79.5884C13.6876 79.8119 13.4988 80.0045 13.2783 80.1552C13.0573 80.3061 12.8088 80.412 12.5469 80.4669C12.285 80.5218 12.0149 80.5246 11.7519 80.4751C11.489 80.4256 11.2383 80.3247 11.0143 80.1784C10.7903 80.032 10.5974 79.8429 10.4464 79.622C10.2955 79.401 10.1896 79.1525 10.1347 78.8906C10.0798 78.6287 10.077 78.3586 10.1265 78.0956C10.1761 77.8327 10.2769 77.582 10.4233 77.3581L10.4237 77.3573C15.1645 70.0715 22.2476 64.6197 30.5041 61.9015L31.4735 61.5824L30.5741 61.1001C26.5915 58.9645 23.2622 55.7893 20.9403 51.9124C18.6184 48.0354 17.3907 43.6016 17.3878 39.0826L17.3878 39.0817C17.3742 34.0762 18.8784 29.1841 21.7018 25.0509L22.0288 24.5722L21.4788 24.3888L5.5998 19.0958L5.02373 18.9038V19.511V48.8482C5.02373 49.3851 4.81047 49.9 4.43086 50.2796C4.05125 50.6592 3.53639 50.8724 2.99954 50.8724C2.46268 50.8724 1.94782 50.6592 1.56821 50.2796C1.1886 49.9 0.975336 49.3851 0.975336 48.8482V16.0234V16.0121L0.97475 16.0007C0.970757 15.9237 0.979336 15.8465 1.00015 15.7721L1.01479 15.7199L1.01622 15.6656C1.01753 15.6155 1.02982 15.5664 1.05221 15.5216L1.05797 15.5101L1.06304 15.4983L1.17723 15.2318C1.18269 15.2239 1.18825 15.2153 1.19377 15.2061C1.20814 15.1822 1.22149 15.1552 1.23255 15.1253L1.31764 14.9764C1.32097 14.9733 1.32425 14.9701 1.32749 14.9668L1.32751 14.9668C1.36062 14.9337 1.38838 14.8962 1.41024 14.8558L1.54791 14.6905L1.75406 14.5138M82.4221 14.1825L1.75406 14.5138M1.75406 14.5138C1.79292 14.4924 1.82893 14.4654 1.86089 14.4334L1.75406 14.5138ZM63.3426 39.083L63.3425 39.0818C63.3313 34.4071 61.7692 29.8683 58.9012 26.1768L58.7111 25.9321L58.4172 26.0301L43.0348 31.1576C43.0341 31.1578 43.0334 31.158 43.0327 31.1582C42.6143 31.2925 42.1644 31.2925 41.746 31.1582C41.7453 31.158 41.7446 31.1578 41.7439 31.1576L26.3615 26.0301L26.0684 25.9324L25.8782 26.1758C23.8236 28.8056 22.4268 31.8881 21.8041 35.1668C21.1814 38.4454 21.3509 41.8254 22.2985 45.0253C23.246 48.2252 24.9442 51.1526 27.2516 53.5636C29.559 55.9746 32.409 57.7996 35.5643 58.8867C38.7195 59.9737 42.0888 60.2914 45.3916 59.8132C48.6945 59.335 51.8353 58.0748 54.5527 56.1375C57.2701 54.2002 59.4855 51.6419 61.0144 48.6754C62.5433 45.709 63.3415 42.4203 63.3426 39.083ZM58.653 21.6906L58.6533 21.6905L74.122 16.5205L75.3648 16.1052L74.1218 15.6903L42.5279 5.14532L42.3894 5.09907L42.2508 5.14532L10.6569 15.6903L9.41387 16.1052L10.6567 16.5205L26.1254 21.6905L26.1257 21.6906L42.2509 27.0656L42.3894 27.1118L42.5278 27.0656L58.653 21.6906Z" fill="#FAFAFA" stroke="#1D9BF0" stroke-width="0.875329"/>
</svg>
