<svg width="20" height="20" viewBox="0 0 20 20" fill="none" xmlns="http://www.w3.org/2000/svg">
<path d="M5.21783 18.7392L5.1005 19.48H5.1005L5.21783 18.7392ZM1.06156 14.583L1.80232 14.4656L1.06156 14.583ZM18.9384 14.583L19.6792 14.7003V14.7003L18.9384 14.583ZM14.7822 18.7392L14.8995 19.48H14.8995L14.7822 18.7392ZM18.6 8.35035C18.3513 8.01916 17.8811 7.95234 17.5499 8.20111C17.2187 8.44987 17.1519 8.92002 17.4007 9.25121L18.6 8.35035ZM2.59931 9.25121C2.84808 8.92002 2.78126 8.44987 2.45007 8.20111C2.11888 7.95234 1.64873 8.01916 1.39996 8.35035L2.59931 9.25121ZM10.75 0.800781C10.75 0.386568 10.4142 0.0507812 10 0.0507812C9.58579 0.0507812 9.25 0.386568 9.25 0.800781H10.75ZM6.58768 10.3348C6.33033 10.0102 5.8586 9.95575 5.53403 10.2131C5.20946 10.4704 5.15497 10.9422 5.41232 11.2668L6.58768 10.3348ZM7.39785 12.5638L6.81016 13.0297L7.39785 12.5638ZM12.6022 12.5638L12.0145 12.0978L12.6022 12.5638ZM14.5877 11.2668C14.845 10.9422 14.7905 10.4704 14.466 10.2131C14.1414 9.95575 13.6697 10.0102 13.4123 10.3348L14.5877 11.2668ZM9.74933 14.7809L9.63133 15.5215L9.63133 15.5216L9.74933 14.7809ZM10.2507 14.7809L10.3687 15.5216L10.3687 15.5215L10.2507 14.7809ZM18.25 11.8008V12.8008H19.75V11.8008H18.25ZM13 18.0508H7V19.5508H13V18.0508ZM1.75 12.8008V11.8008H0.25V12.8008H1.75ZM7 18.0508C6.04233 18.0508 5.65082 18.0485 5.33515 17.9985L5.1005 19.48C5.56216 19.5531 6.09965 19.5508 7 19.5508V18.0508ZM0.25 12.8008C0.25 13.7011 0.247672 14.2386 0.320792 14.7003L1.80232 14.4656C1.75233 14.15 1.75 13.7584 1.75 12.8008H0.25ZM5.33515 17.9985C3.51661 17.7104 2.09035 16.2842 1.80232 14.4656L0.320792 14.7003C0.710478 17.1607 2.64012 19.0903 5.1005 19.48L5.33515 17.9985ZM18.25 12.8008C18.25 13.7584 18.2477 14.15 18.1977 14.4656L19.6792 14.7003C19.7523 14.2386 19.75 13.7011 19.75 12.8008H18.25ZM13 19.5508C13.9003 19.5508 14.4378 19.5531 14.8995 19.48L14.6648 17.9985C14.3492 18.0485 13.9577 18.0508 13 18.0508V19.5508ZM18.1977 14.4656C17.9096 16.2842 16.4834 17.7104 14.6648 17.9985L14.8995 19.48C17.3599 19.0903 19.2895 17.1607 19.6792 14.7003L18.1977 14.4656ZM19.75 11.8008C19.75 10.5072 19.3219 9.31143 18.6 8.35035L17.4007 9.25121C17.9342 9.96146 18.25 10.8432 18.25 11.8008H19.75ZM1.75 11.8008C1.75 10.8432 2.06583 9.96146 2.59931 9.25121L1.39996 8.35035C0.678064 9.31143 0.25 10.5072 0.25 11.8008H1.75ZM9.25 0.800781V13.8008H10.75V0.800781H9.25ZM5.41232 11.2668L6.81016 13.0297L7.98553 12.0978L6.58768 10.3348L5.41232 11.2668ZM13.1898 13.0297L14.5877 11.2668L13.4123 10.3348L12.0145 12.0978L13.1898 13.0297ZM6.81016 13.0297C7.35616 13.7183 7.80475 14.2859 8.20551 14.6883C8.60962 15.0939 9.05816 15.4302 9.63133 15.5215L9.86734 14.0402C9.76116 14.0233 9.59132 13.954 9.26822 13.6297C8.94177 13.3019 8.55429 12.8151 7.98553 12.0978L6.81016 13.0297ZM12.0145 12.0978C11.4457 12.8151 11.0582 13.3019 10.7318 13.6296C10.4087 13.954 10.2388 14.0233 10.1327 14.0402L10.3687 15.5215C10.9418 15.4302 11.3904 15.0939 11.7945 14.6883C12.1953 14.2859 12.6438 13.7183 13.1898 13.0297L12.0145 12.0978ZM9.63133 15.5216C9.75344 15.541 9.87661 15.5508 10 15.5508V14.0508C9.95594 14.0508 9.91168 14.0473 9.86734 14.0402L9.63133 15.5216ZM10 15.5508C10.1234 15.5508 10.2466 15.541 10.3687 15.5216L10.1327 14.0402C10.0883 14.0473 10.0441 14.0508 10 14.0508V15.5508ZM9.25 13.8008V14.8008H10.75V13.8008H9.25Z" fill="#FAFAFA"/>
</svg>
