<svg width="21" height="20" viewBox="0 0 21 20" fill="none" xmlns="http://www.w3.org/2000/svg">
<path d="M5.71783 18.9384L5.6005 19.6792H5.6005L5.71783 18.9384ZM1.56156 14.7822L2.30232 14.6648L1.56156 14.7822ZM19.4384 14.7822L20.1792 14.8995V14.8995L19.4384 14.7822ZM15.2822 18.9384L15.3995 19.6792H15.3995L15.2822 18.9384ZM19.1 8.54957C18.8513 8.21837 18.3811 8.15156 18.0499 8.40032C17.7187 8.64909 17.6519 9.11924 17.9007 9.45043L19.1 8.54957ZM3.09931 9.45043C3.34808 9.11924 3.28126 8.64909 2.95007 8.40032C2.61888 8.15156 2.14873 8.21838 1.89996 8.54957L3.09931 9.45043ZM11.25 1C11.25 0.585786 10.9142 0.25 10.5 0.25C10.0858 0.25 9.75 0.585786 9.75 1H11.25ZM7.08768 10.534C6.83033 10.2095 6.3586 10.155 6.03403 10.4123C5.70946 10.6697 5.65497 11.1414 5.91232 11.466L7.08768 10.534ZM7.89785 12.763L7.31016 13.2289L7.89785 12.763ZM13.1022 12.763L12.5145 12.297L13.1022 12.763ZM15.0877 11.466C15.345 11.1414 15.2905 10.6697 14.966 10.4123C14.6414 10.155 14.1697 10.2095 13.9123 10.534L15.0877 11.466ZM10.2493 14.9801L10.1313 15.7208L10.1313 15.7208L10.2493 14.9801ZM10.7507 14.9801L10.8687 15.7208L10.8687 15.7208L10.7507 14.9801ZM18.75 12V13H20.25V12H18.75ZM13.5 18.25H7.5V19.75H13.5V18.25ZM2.25 13V12H0.75V13H2.25ZM7.5 18.25C6.54233 18.25 6.15082 18.2477 5.83515 18.1977L5.6005 19.6792C6.06216 19.7523 6.59965 19.75 7.5 19.75V18.25ZM0.75 13C0.75 13.9003 0.747672 14.4378 0.820792 14.8995L2.30232 14.6648C2.25233 14.3492 2.25 13.9577 2.25 13H0.75ZM5.83515 18.1977C4.01661 17.9096 2.59035 16.4834 2.30232 14.6648L0.820792 14.8995C1.21048 17.3599 3.14012 19.2895 5.6005 19.6792L5.83515 18.1977ZM18.75 13C18.75 13.9577 18.7477 14.3492 18.6977 14.6648L20.1792 14.8995C20.2523 14.4378 20.25 13.9003 20.25 13H18.75ZM13.5 19.75C14.4003 19.75 14.9378 19.7523 15.3995 19.6792L15.1648 18.1977C14.8492 18.2477 14.4577 18.25 13.5 18.25V19.75ZM18.6977 14.6648C18.4096 16.4834 16.9834 17.9096 15.1648 18.1977L15.3995 19.6792C17.8599 19.2895 19.7895 17.3599 20.1792 14.8995L18.6977 14.6648ZM20.25 12C20.25 10.7064 19.8219 9.51065 19.1 8.54957L17.9007 9.45043C18.4342 10.1607 18.75 11.0424 18.75 12H20.25ZM2.25 12C2.25 11.0424 2.56583 10.1607 3.09931 9.45043L1.89996 8.54957C1.17806 9.51065 0.75 10.7064 0.75 12H2.25ZM9.75 1V14H11.25V1H9.75ZM5.91232 11.466L7.31016 13.2289L8.48553 12.297L7.08768 10.534L5.91232 11.466ZM13.6898 13.2289L15.0877 11.466L13.9123 10.534L12.5145 12.297L13.6898 13.2289ZM7.31016 13.2289C7.85616 13.9176 8.30475 14.4852 8.70551 14.8875C9.10962 15.2932 9.55816 15.6294 10.1313 15.7208L10.3673 14.2395C10.2612 14.2225 10.0913 14.1532 9.76822 13.8289C9.44177 13.5012 9.05429 13.0143 8.48553 12.297L7.31016 13.2289ZM12.5145 12.297C11.9457 13.0143 11.5582 13.5012 11.2318 13.8289C10.9087 14.1532 10.7388 14.2225 10.6327 14.2395L10.8687 15.7208C11.4418 15.6294 11.8904 15.2932 12.2945 14.8875C12.6953 14.4852 13.1438 13.9175 13.6898 13.2289L12.5145 12.297ZM10.1313 15.7208C10.2534 15.7402 10.3766 15.75 10.5 15.75V14.25C10.4559 14.25 10.4117 14.2465 10.3673 14.2395L10.1313 15.7208ZM10.5 15.75C10.6234 15.75 10.7466 15.7402 10.8687 15.7208L10.6327 14.2395C10.5883 14.2465 10.5441 14.25 10.5 14.25V15.75ZM9.75 14V15H11.25V14H9.75Z" fill="#1D9BF0"/>
</svg>
