<svg width="720" height="152"  style="background:linear-gradient(167.98deg, #1d9bf0 17.27%, #0e80cc 70.43%)" viewBox="0 0 720 152" fill="none" xmlns="http://www.w3.org/2000/svg">
<path d="M4.5 0L5.71541 3.28459L9 4.5L5.71541 5.71541L4.5 9L3.28459 5.71541L0 4.5L3.28459 3.28459L4.5 0Z" fill="white"/>
<path d="M713 138L714.891 143.109L720 145L714.891 146.891L713 152L711.109 146.891L706 145L711.109 143.109L713 138Z" fill="white"/>
<path d="M678.5 117L679.715 120.285L683 121.5L679.715 122.715L678.5 126L677.285 122.715L674 121.5L677.285 120.285L678.5 117Z" fill="white"/>
<path d="M485.5 103L487.796 109.204L494 111.5L487.796 113.796L485.5 120L483.204 113.796L477 111.5L483.204 109.204L485.5 103Z" fill="white"/>
<path d="M42 135L43.3505 138.65L47 140L43.3505 141.35L42 145L40.6495 141.35L37 140L40.6495 138.65L42 135Z" fill="white"/>
<path d="M102 27L103.35 30.6495L107 32L103.35 33.3505L102 37L100.65 33.3505L97 32L100.65 30.6495L102 27Z" fill="white"/>
<path d="M635.5 0L636.715 3.28459L640 4.5L636.715 5.71541L635.5 9L634.285 5.71541L631 4.5L634.285 3.28459L635.5 0Z" fill="white"/>
</svg>
