<svg width="429" height="92" viewBox="0 0 429 92" fill="none" xmlns="http://www.w3.org/2000/svg">
<path d="M1 30.26C1 30.26 45.5833 64.2141 108 64.2141C170.417 64.2141 197.457 38.9319 215 30.26C232.543 21.5881 264.933 1 322 1C379.067 1 429 30.26 429 30.26" stroke="#FAFF02" stroke-width="2"/>
<path d="M1 43.3794C1 43.3794 45.5833 77.3335 108 77.3335C170.417 77.3335 197.457 52.0513 215 43.3794C232.543 34.7075 264.933 14.1194 322 14.1194C379.067 14.1194 429 43.3794 429 43.3794" stroke="url(#paint0_linear_5189_9580)" stroke-width="2.89973"/>
<path d="M1 56.4985C1 56.4985 45.5833 90.4526 108 90.4526C170.417 90.4526 197.457 65.1704 215 56.4985C232.543 47.8266 264.933 27.2385 322 27.2385C379.067 27.2385 429 56.4985 429 56.4985" stroke="#FAFF02" stroke-width="2"/>
<defs>
<linearGradient id="paint0_linear_5189_9580" x1="518.312" y1="34.4603" x2="-149.543" y2="162.638" gradientUnits="userSpaceOnUse">
<stop stop-color="#1D9BF0"/>
<stop offset="1" stop-color="#004B7D"/>
</linearGradient>
</defs>
</svg>
