<svg width="1440" height="278" viewBox="0 0 1440 278" fill="none" xmlns="http://www.w3.org/2000/svg">
<path d="M-18 102.759C-18 102.759 135.75 219.853 351 219.853C566.25 219.853 659.5 132.665 720 102.759C780.5 72.8528 892.2 1.85278 1089 1.85278C1285.8 1.85278 1458 102.759 1458 102.759" stroke="#FAFF02" stroke-width="3"/>
<path d="M-18 130.759C-18 130.759 135.75 247.853 351 247.853C566.25 247.853 659.5 160.665 720 130.759C780.5 100.853 892.2 29.8528 1089 29.8528C1285.8 29.8528 1458 130.759 1458 130.759" stroke="url(#paint0_linear_4016_5599)" stroke-width="10"/>
<path d="M-18 158.759C-18 158.759 135.75 275.853 351 275.853C566.25 275.853 659.5 188.665 720 158.759C780.5 128.853 892.2 57.8528 1089 57.8528C1285.8 57.8528 1458 158.759 1458 158.759" stroke="#FAFF02" stroke-width="3"/>
<defs>
<linearGradient id="paint0_linear_4016_5599" x1="1766" y1="100" x2="-537.163" y2="542.034" gradientUnits="userSpaceOnUse">
<stop stop-color="#1D9BF0"/>
<stop offset="1" stop-color="#004B7D"/>
</linearGradient>
</defs>
</svg>
