<svg width="100" height="96" viewBox="0 0 100 96" fill="none" xmlns="http://www.w3.org/2000/svg">
<rect width="100" height="96" rx="20" fill="#1D9BF0"/>
<path d="M66.6663 55.9V35.7834C66.6663 33.7834 65.033 32.3 63.0497 32.4667H62.9497C59.4497 32.7667 54.133 34.55 51.1663 36.4167L50.883 36.6C50.3997 36.9 49.5997 36.9 49.1163 36.6L48.6997 36.35C45.733 34.5 40.433 32.7334 36.933 32.45C34.9497 32.2834 33.333 33.7834 33.333 35.7667V55.9C33.333 57.5 34.633 59 36.233 59.2L36.7163 59.2667C40.333 59.75 45.9163 61.5834 49.1163 63.3334L49.183 63.3667C49.633 63.6167 50.3497 63.6167 50.783 63.3667C53.983 61.6 59.583 59.75 63.2163 59.2667L63.7663 59.2C65.3663 59 66.6663 57.5 66.6663 55.9Z" stroke="#FAFAFA" stroke-width="2.5" stroke-linecap="round" stroke-linejoin="round"/>
<path d="M50 37.15V62.15" stroke="#FAFAFA" stroke-width="2.5" stroke-linecap="round" stroke-linejoin="round"/>
<path d="M42.917 42.15H39.167" stroke="#FAFAFA" stroke-width="2.5" stroke-linecap="round" stroke-linejoin="round"/>
<path d="M44.167 47.15H39.167" stroke="#FAFAFA" stroke-width="2.5" stroke-linecap="round" stroke-linejoin="round"/>
</svg>
