<svg width="384" height="399" viewBox="0 0 384 399" fill="none" xmlns="http://www.w3.org/2000/svg">
<g filter="url(#filter0_d_4016_5149)">
<path d="M14 110.521C14 80.0207 35.8405 53.8975 65.858 48.4939L261.056 13.3552C299.711 6.3968 335.246 36.1059 335.246 75.3819V278.355C335.246 313.162 307.029 341.378 272.222 341.378H77.0237C42.2166 341.378 14 313.162 14 278.355V110.521Z" fill="#1D9BF0"/>
</g>
<mask id="path-2-inside-1_4016_5149" fill="white">
<path d="M14 243.342H335.246V278.355C335.246 313.162 307.029 341.378 272.222 341.378H77.0237C42.2166 341.378 14 313.162 14 278.355V243.342Z"/>
</mask>
<path d="M14 243.342H335.246V278.355C335.246 313.162 307.029 341.378 272.222 341.378H77.0237C42.2166 341.378 14 313.162 14 278.355V243.342Z" fill="#FAFAFA"/>
<path fill-rule="evenodd" clip-rule="evenodd" d="M15.313 247.718H12.687H11.374V243.342H12.687H14H15.313H16.626V247.718H15.313ZM16.626 256.471H15.313H12.687H11.374V265.225H12.687H15.313H16.626V256.471ZM16.626 273.978H15.313H12.687H11.374V278.355C11.374 278.972 11.3825 279.588 11.3995 280.201C11.4165 280.815 11.4418 281.426 11.4755 282.035L12.7865 281.963L15.4085 281.818L16.7195 281.745C16.6962 281.325 16.6773 280.903 16.6626 280.48C16.6383 279.774 16.626 279.066 16.626 278.355V273.978ZM13.5865 289.135L16.1759 288.698L17.4706 288.48C17.8495 290.726 18.3524 292.929 18.9719 295.083L17.7101 295.446L15.1864 296.172L13.9245 296.535C13.2507 294.192 12.7038 291.796 12.2918 289.354L13.5865 289.135ZM17.5694 302.982L19.9951 301.976L21.208 301.474C22.0768 303.569 23.0603 305.605 24.1506 307.573L23.002 308.209L20.7048 309.482L19.5563 310.118C18.3709 307.978 17.3015 305.764 16.3566 303.485L17.5694 302.982ZM24.5494 315.588L26.6898 314.067L27.76 313.306C28.9069 314.919 30.1312 316.474 31.4274 317.965C31.6126 318.178 31.7992 318.39 31.9873 318.6L31.0086 319.475L29.0511 321.226L28.0724 322.101C27.5456 321.512 27.0292 320.913 26.5237 320.305C25.4603 319.027 24.4446 317.707 23.4792 316.349L24.5494 315.588ZM34.1527 326.327L35.9031 324.37L36.7784 323.391C37.0273 323.614 37.2781 323.834 37.5308 324.053C38.9858 325.311 40.5014 326.502 42.0726 327.618L41.3119 328.689L39.7905 330.829L39.0298 331.899C37.5269 330.831 36.0709 329.701 34.6657 328.513C34.1972 328.117 33.7344 327.715 33.2774 327.306L34.1527 326.327ZM45.8967 334.674L47.169 332.376L47.8051 331.228C49.7739 332.318 51.8097 333.302 53.9049 334.17L53.4019 335.383L52.396 337.809L51.8931 339.022C49.6145 338.077 47.4008 337.008 45.2606 335.822L45.8967 334.674ZM59.2065 340.192L59.9323 337.668L60.2952 336.407C62.4492 337.026 64.6526 337.529 66.8985 337.908L66.6801 339.203L66.2431 341.792L66.0247 343.087C63.5828 342.675 61.1864 342.128 58.8435 341.454L59.2065 340.192ZM73.4154 342.592L73.5604 339.97L73.6329 338.659C73.7732 338.667 73.9136 338.674 74.0541 338.681C75.0378 338.728 76.0278 338.752 77.0237 338.752M80.5094 340.065V342.691V344.004H77.0237C75.8859 344.004 74.7546 343.975 73.6306 343.918C73.5347 343.913 73.4388 343.908 73.3429 343.903L73.4154 342.592M87.4807 344.004H94.4521V342.691V340.065V338.752H87.4807V340.065V342.691V344.004ZM80.5094 340.065V338.752V340.065ZM77.0237 338.752H80.5094H77.0237ZM101.423 338.752V340.065V342.691V344.004H108.395V342.691V340.065V338.752H101.423ZM115.366 338.752V340.065V342.691V344.004H122.338V342.691V340.065V338.752H115.366ZM129.309 338.752V340.065V342.691V344.004H136.28V342.691V340.065V338.752H129.309ZM143.252 338.752V340.065V342.691V344.004H150.223V342.691V340.065V338.752H143.252ZM157.194 338.752V340.065V342.691V344.004H164.166V342.691V340.065V338.752H157.194ZM171.137 338.752V340.065V342.691V344.004H178.109V342.691V340.065V338.752H171.137ZM185.08 338.752V340.065V342.691V344.004H192.051V342.691V340.065V338.752H185.08ZM199.023 338.752V340.065V342.691V344.004H205.994V342.691V340.065V338.752H199.023ZM212.965 338.752V340.065V342.691V344.004H219.937V342.691V340.065V338.752H212.965ZM226.908 338.752V340.065V342.691V344.004H233.88V342.691V340.065V338.752H226.908ZM240.851 338.752V340.065V342.691V344.004H247.822V342.691V340.065V338.752H240.851ZM254.794 338.752V340.065V342.691V344.004H261.765V342.691V340.065V338.752H254.794ZM268.736 338.752V340.065V342.691V344.004H272.222C273.457 344.004 274.684 343.97 275.903 343.903L275.83 342.592L275.685 339.97L275.613 338.659C274.491 338.721 273.36 338.752 272.222 338.752H268.736ZM283.003 341.792L282.566 339.203L282.347 337.908C284.593 337.529 286.797 337.026 288.951 336.407L289.313 337.668L290.039 340.192L290.402 341.454C288.059 342.128 285.663 342.675 283.221 343.087L283.003 341.792ZM296.85 337.809L295.844 335.383L295.341 334.17C297.436 333.302 299.472 332.318 301.441 331.228L302.077 332.376L303.349 334.674L303.985 335.822C301.845 337.008 299.631 338.077 297.353 339.022L296.85 337.809ZM309.455 330.829L307.934 328.689L307.173 327.618C309.017 326.308 310.785 324.896 312.467 323.391L313.343 324.37L315.093 326.327L315.968 327.306C314.14 328.941 312.22 330.475 310.216 331.899L309.455 330.829ZM320.195 321.226L318.237 319.475L317.258 318.6C318.763 316.917 320.175 315.15 321.486 313.306L322.556 314.066L324.696 315.588L325.767 316.349C324.342 318.352 322.808 320.273 321.173 322.101L320.195 321.226ZM328.541 309.482L326.244 308.209L325.095 307.573C326.186 305.605 327.169 303.569 328.038 301.474L329.251 301.976L331.676 302.982L332.889 303.485C331.944 305.764 330.875 307.978 329.69 310.118L328.541 309.482ZM334.059 296.172L331.536 295.446L330.274 295.083C330.893 292.929 331.396 290.726 331.775 288.48L333.07 288.698L335.659 289.135L336.954 289.354C336.542 291.796 335.995 294.192 335.321 296.535L334.059 296.172ZM336.459 281.963L333.837 281.818L332.526 281.745C332.588 280.623 332.62 279.493 332.62 278.355V273.978H333.933H336.559H337.872V278.355C337.872 278.432 337.872 278.509 337.871 278.586C337.867 279.743 337.833 280.893 337.77 282.035L336.459 281.963ZM337.872 265.225V256.471H336.559H333.933H332.62V265.225H333.933H336.559H337.872ZM332.62 247.718H333.933H336.559H337.872V243.342H336.559H335.246H333.933H332.62V247.718Z" fill="#1D9BF0" mask="url(#path-2-inside-1_4016_5149)"/>
<path d="M104.199 291.485H106.693L105.932 295.004C105.722 295.95 105.722 296.772 105.932 297.473C106.142 298.173 106.536 298.707 107.113 299.075C107.709 299.442 108.461 299.626 109.372 299.626H111.026C111.796 299.626 112.435 299.538 112.943 299.363C113.468 299.188 113.906 298.917 114.256 298.549L114.072 297.079H109.057L109.503 294.033H117.066C117.749 294.033 118.318 293.954 118.773 293.796C119.245 293.621 119.639 293.376 119.954 293.061L119.823 281.664L122.633 280.876V291.853C122.633 292.483 122.834 293.009 123.237 293.429C123.657 293.831 124.244 294.033 124.996 294.033H126.047C126.344 294.033 126.598 294.208 126.808 294.558C127.018 294.908 127.123 295.328 127.123 295.818C127.123 296.309 127.018 296.729 126.808 297.079C126.598 297.429 126.344 297.604 126.047 297.604H124.891C124.103 297.604 123.429 297.446 122.869 297.131C122.309 296.799 121.898 296.317 121.635 295.687C121.267 296.212 120.777 296.641 120.165 296.974C119.552 297.289 118.843 297.473 118.037 297.525C117.845 297.543 117.644 297.56 117.433 297.578C117.223 297.595 117.013 297.604 116.803 297.604C116.803 297.674 116.794 297.744 116.777 297.814C116.777 297.902 116.777 297.98 116.777 298.05C116.759 298.12 116.742 298.19 116.724 298.261C116.724 298.331 116.716 298.401 116.698 298.471C116.628 299.311 116.357 300.09 115.884 300.808C115.411 301.525 114.72 302.103 113.81 302.541C112.899 302.979 111.788 303.197 110.475 303.197H109.345C107.84 303.197 106.571 302.856 105.538 302.173C104.522 301.49 103.822 300.519 103.437 299.258C103.069 298.015 103.069 296.58 103.437 294.952L104.199 291.485ZM125.987 297.604C125.69 297.604 125.436 297.429 125.226 297.079C125.016 296.729 124.911 296.309 124.911 295.818C124.911 295.328 125.016 294.908 125.226 294.558C125.436 294.208 125.69 294.033 125.987 294.033H129.795C129.76 293.928 129.716 293.831 129.664 293.744C129.629 293.639 129.594 293.542 129.559 293.455C129.524 293.35 129.489 293.245 129.454 293.14C129.419 293.035 129.392 292.93 129.375 292.825L128.167 288.019L129.112 286.444L129.716 284.815L134.942 284.264C136.15 284.159 137.2 284.387 138.093 284.947C139.003 285.489 139.625 286.268 139.957 287.284C140.308 288.282 140.281 289.35 139.879 290.488L138.644 294.033H141.507C141.804 294.033 142.058 294.208 142.268 294.558C142.478 294.908 142.583 295.328 142.583 295.818C142.583 296.309 142.478 296.729 142.268 297.079C142.058 297.429 141.804 297.604 141.507 297.604H134.233C133.445 297.604 132.771 297.473 132.211 297.21C131.668 296.948 131.204 296.58 130.819 296.107C130.784 296.142 130.749 296.186 130.714 296.238C130.679 296.291 130.644 296.344 130.609 296.396L130.425 296.659C130.163 296.991 129.874 297.236 129.559 297.394C129.243 297.534 128.85 297.604 128.377 297.604H125.987ZM135.94 294.138L137.305 290.199C137.515 289.639 137.542 289.122 137.384 288.649C137.244 288.177 136.964 287.818 136.544 287.573C136.124 287.328 135.616 287.24 135.021 287.31L130.872 287.73L132.132 292.746C132.237 293.149 132.438 293.481 132.736 293.744C133.034 294.006 133.393 294.138 133.813 294.138H135.94ZM132.29 278.933H135.493V281.979H132.29V278.933ZM153.977 296.449C153.592 296.851 153.136 297.149 152.611 297.341C152.104 297.516 151.517 297.604 150.852 297.604H141.451C141.153 297.604 140.899 297.429 140.689 297.079C140.479 296.729 140.374 296.309 140.374 295.818C140.374 295.311 140.479 294.89 140.689 294.558C140.899 294.208 141.153 294.033 141.451 294.033H144.812V287.52L147.412 286.916V294.033H151.088C151.596 294.033 152.007 293.866 152.322 293.534C152.655 293.184 152.821 292.746 152.821 292.221V289.096H155.421V292.536C155.421 292.676 155.412 292.825 155.395 292.982C155.395 293.14 155.395 293.297 155.395 293.455L159.728 294.637L158.021 285.971L160.673 284.553L162.38 293.35C162.502 293.963 162.494 294.549 162.354 295.109C162.214 295.67 161.934 296.212 161.513 296.737L160.279 298.234L153.977 296.449ZM150.379 283.266H157.102V285.918H150.379V283.266ZM152.296 282.977L152.244 280.246H155.237L155.185 282.977H152.296ZM169.418 287.31L168.367 287.048L168.971 284.106L175.011 285.708C176.062 285.988 176.884 286.47 177.48 287.153C178.075 287.818 178.46 288.719 178.635 289.857L178.924 291.722C179.064 292.632 178.941 293.542 178.556 294.453C178.171 295.363 177.532 296.116 176.639 296.711C175.746 297.306 174.67 297.604 173.409 297.604H172.149C171.186 297.604 170.372 297.359 169.707 296.869C169.041 296.361 168.586 295.67 168.341 294.794C168.096 293.919 168.105 292.938 168.367 291.853L169.418 287.31ZM170.783 292.326C170.731 292.816 170.853 293.227 171.151 293.56C171.466 293.875 171.895 294.033 172.438 294.033H173.672C174.302 294.033 174.827 293.954 175.247 293.796C175.668 293.639 176 293.394 176.245 293.061L175.878 290.593C175.79 290.032 175.598 289.577 175.3 289.227C175.02 288.877 174.635 288.641 174.145 288.518L171.807 287.94L170.783 292.326ZM177.544 299.757L181.404 298.182C181.509 298.147 181.614 298.103 181.719 298.05C181.824 298.015 181.929 297.98 182.034 297.945C182.122 297.893 182.218 297.84 182.323 297.788C182.428 297.753 182.533 297.718 182.638 297.683V286.68L185.343 286.181V296.527C185.343 297.735 185.098 298.733 184.608 299.521C184.135 300.326 183.435 300.922 182.507 301.307L178.936 302.751L177.544 299.757ZM190.27 300.02L194.865 298.523C195.181 298.418 195.417 298.339 195.574 298.287C195.697 298.252 195.811 298.208 195.916 298.155C196.038 298.12 196.161 298.085 196.283 298.05L196.047 295.424V287.205L192.581 287.94C191.776 288.115 191.207 288.448 190.874 288.938C190.559 289.411 190.463 290.076 190.585 290.934L191.032 294.138H197.807L196.572 297.026L195.181 297.289C195.006 297.324 194.822 297.35 194.629 297.368C194.454 297.368 194.27 297.368 194.078 297.368H191.399C190.576 297.368 189.867 297.105 189.272 296.58C188.694 296.055 188.353 295.372 188.248 294.532L187.88 291.853C187.618 290.015 187.889 288.492 188.694 287.284C189.5 286.058 190.769 285.253 192.502 284.868L196.625 284.001L197.885 285.026C198.498 285.551 198.804 286.225 198.804 287.048V297.158C198.804 298.12 198.551 298.987 198.043 299.757C197.535 300.528 196.835 301.062 195.942 301.359L191.294 302.882L190.27 300.02ZM219.448 296.449C219.063 296.851 218.617 297.149 218.109 297.341C217.601 297.516 217.006 297.604 216.323 297.604H206.686C205.741 297.604 204.9 297.411 204.165 297.026C203.447 296.624 202.887 296.055 202.484 295.319C202.082 294.584 201.88 293.709 201.88 292.693L201.854 281.664L204.664 280.876V291.774C204.664 292.527 204.856 293.096 205.242 293.481C205.627 293.849 206.169 294.033 206.87 294.033H210.178V287.52L212.883 286.916V294.033H216.56C217.085 294.033 217.505 293.866 217.82 293.534C218.135 293.184 218.293 292.746 218.293 292.221V289.096H220.892V292.405C220.892 292.58 220.892 292.755 220.892 292.93C220.892 293.105 220.875 293.28 220.84 293.455L225.225 294.637L223.571 286.312L226.197 284.894L227.746 292.72C227.921 293.105 228.193 293.42 228.56 293.665C228.946 293.91 229.453 294.033 230.083 294.033H231.475C231.79 294.033 232.053 294.208 232.263 294.558C232.473 294.89 232.578 295.311 232.578 295.818C232.578 296.309 232.473 296.729 232.263 297.079C232.053 297.429 231.79 297.604 231.475 297.604H230.162C229.549 297.604 228.998 297.49 228.508 297.263C228.035 297.035 227.624 296.72 227.274 296.317L227.221 296.422C227.134 296.527 227.064 296.615 227.011 296.685L225.724 298.234L219.448 296.449ZM215.509 283.266H222.232V285.918H215.509V283.266ZM217.426 282.977L217.374 280.246H220.367L220.315 282.977H217.426ZM237.79 296.948C237.405 296.86 237.064 296.755 236.766 296.632C236.486 296.492 236.232 296.3 236.004 296.055C235.532 296.58 234.98 296.974 234.35 297.236C233.72 297.481 233.046 297.604 232.328 297.604H231.514C231.216 297.604 230.963 297.429 230.752 297.079C230.542 296.729 230.437 296.309 230.437 295.818C230.437 295.328 230.542 294.908 230.752 294.558C230.963 294.208 231.216 294.033 231.514 294.033H232.512C232.985 294.033 233.37 293.919 233.667 293.691C233.965 293.464 234.219 293.087 234.429 292.562L236.083 287.074C236.223 286.619 236.381 286.233 236.556 285.918C236.731 285.586 236.967 285.288 237.265 285.026L238.237 284.133L241.414 284.999C242.639 285.332 243.611 285.971 244.329 286.916C245.064 287.844 245.484 288.965 245.589 290.277L245.878 294.295C245.913 294.855 245.817 295.389 245.589 295.897C245.362 296.387 245.02 296.816 244.565 297.184L243.436 298.103L237.79 296.948ZM242.99 290.619C242.937 289.936 242.727 289.35 242.359 288.859C241.992 288.369 241.493 288.045 240.863 287.888L238.788 287.31L237.002 293.297L243.278 294.558L242.99 290.619Z" fill="#1D9BF0"/>
<path d="M192.698 118.345V118.563H192.917H208.235C211.078 118.566 213.804 119.696 215.815 121.707C217.825 123.717 218.956 126.443 218.958 129.286V173.052C218.956 175.896 217.825 178.622 215.815 180.632C213.804 182.643 211.078 183.773 208.235 183.775H142.586C139.743 183.773 137.017 182.643 135.006 180.632C132.996 178.622 131.865 175.896 131.863 173.052L131.863 129.286C131.865 126.443 132.996 123.717 135.006 121.707C137.017 119.696 139.743 118.566 142.586 118.563H157.904H158.123V118.345V113.968C158.126 111.706 159.026 109.537 160.626 107.937C162.226 106.337 164.395 105.437 166.657 105.433H184.164C186.426 105.437 188.595 106.337 190.195 107.937C191.795 109.537 192.695 111.706 192.698 113.968V118.345ZM188.54 118.563H188.759V118.345V113.968C188.759 112.749 188.275 111.58 187.413 110.718C186.551 109.857 185.383 109.372 184.164 109.372H166.657C165.438 109.372 164.27 109.857 163.408 110.718C162.546 111.58 162.062 112.749 162.062 113.968V118.345V118.563H162.281H188.54ZM136.09 144.515L135.802 144.419V144.723V173.053C135.802 174.852 136.517 176.577 137.789 177.849C139.061 179.122 140.786 179.836 142.586 179.836H208.235C210.035 179.836 211.76 179.122 213.032 177.849C214.304 176.577 215.019 174.852 215.019 173.053V144.723V144.419L214.731 144.515L189.164 153.04C189.164 153.04 189.164 153.04 189.163 153.04C188.962 153.106 188.752 153.139 188.541 153.139H188.54H162.281H162.28C162.069 153.139 161.859 153.106 161.658 153.041C161.657 153.04 161.657 153.04 161.657 153.04L136.09 144.515ZM162.281 153.358H188.54L161.589 153.248C161.812 153.321 162.046 153.358 162.281 153.358ZM214.792 140.473L215.019 140.481V140.254V129.286C215.019 127.487 214.304 125.761 213.032 124.489C211.76 123.217 210.035 122.502 208.235 122.502H142.586C140.786 122.502 139.061 123.217 137.789 124.489C136.517 125.761 135.802 127.487 135.802 129.286V140.25V140.477L136.029 140.468C136.238 140.461 136.446 140.487 136.646 140.546L162.566 149.189L162.6 149.2H162.635H188.186H188.221L188.255 149.189L214.175 140.55C214.375 140.491 214.583 140.465 214.792 140.473Z" fill="#FAFAFA" stroke="#1D9BF0" stroke-width="0.437665"/>
<defs>
<filter id="filter0_d_4016_5149" x="0.87006" y="7.96375" width="382.519" height="390.311" filterUnits="userSpaceOnUse" color-interpolation-filters="sRGB">
<feFlood flood-opacity="0" result="BackgroundImageFix"/>
<feColorMatrix in="SourceAlpha" type="matrix" values="0 0 0 0 0 0 0 0 0 0 0 0 0 0 0 0 0 0 127 0" result="hardAlpha"/>
<feOffset dx="17.5066" dy="26.2599"/>
<feGaussianBlur stdDeviation="15.3183"/>
<feComposite in2="hardAlpha" operator="out"/>
<feColorMatrix type="matrix" values="0 0 0 0 0 0 0 0 0 0 0 0 0 0 0 0 0 0 0.07 0"/>
<feBlend mode="normal" in2="BackgroundImageFix" result="effect1_dropShadow_4016_5149"/>
<feBlend mode="normal" in="SourceGraphic" in2="effect1_dropShadow_4016_5149" result="shape"/>
</filter>
</defs>
</svg>
