<svg width="100" height="96" viewBox="0 0 100 96" fill="none" xmlns="http://www.w3.org/2000/svg">
<rect width="100" height="96" rx="20" fill="#FAFAFA"/>
<path d="M48.0163 56.25C47.6997 56.25 47.383 56.1334 47.133 55.8834L44.633 53.3834C44.1497 52.9 44.1497 52.1 44.633 51.6167C45.1163 51.1334 45.9163 51.1334 46.3997 51.6167L48.0163 53.2334L53.7997 47.45C54.283 46.9667 55.083 46.9667 55.5663 47.45C56.0497 47.9334 56.0497 48.7334 55.5663 49.2167L48.8997 55.8834C48.6663 56.1334 48.333 56.25 48.0163 56.25Z" fill="#1D9BF0"/>
<path d="M53.333 39.25H46.6663C45.0663 39.25 42.083 39.25 42.083 34.6666C42.083 30.0833 45.0663 30.0833 46.6663 30.0833H53.333C54.933 30.0833 57.9163 30.0833 57.9163 34.6666C57.9163 36.2666 57.9163 39.25 53.333 39.25ZM46.6663 32.5833C45.0163 32.5833 44.583 32.5833 44.583 34.6666C44.583 36.75 45.0163 36.75 46.6663 36.75H53.333C55.4163 36.75 55.4163 36.3166 55.4163 34.6666C55.4163 32.5833 54.983 32.5833 53.333 32.5833H46.6663Z" fill="#1D9BF0"/>
<path d="M55 65.9167H45C35.6333 65.9167 33.75 61.6167 33.75 54.6667V44.6667C33.75 37.0667 36.5 33.8167 43.2667 33.4667C43.95 33.4334 44.55 33.95 44.5833 34.65C44.6167 35.35 44.0833 35.9167 43.4 35.95C38.6667 36.2167 36.25 37.6334 36.25 44.6667V54.6667C36.25 60.8334 37.4667 63.4167 45 63.4167H55C62.5333 63.4167 63.75 60.8334 63.75 54.6667V44.6667C63.75 37.6334 61.3333 36.2167 56.6 35.95C55.9167 35.9167 55.3833 35.3167 55.4167 34.6334C55.45 33.95 56.0333 33.4167 56.7333 33.45C63.5 33.8167 66.25 37.0667 66.25 44.65V54.65C66.25 61.6167 64.3667 65.9167 55 65.9167Z" fill="#1D9BF0"/>
</svg>
