<svg width="100" height="96" viewBox="0 0 100 96" fill="none" xmlns="http://www.w3.org/2000/svg">
<rect width="100" height="96" rx="20" fill="#1D9BF0"/>
<path d="M63.333 48.3333V51.1667C63.333 56.4167 60.333 58.6667 55.833 58.6667H40.833C36.333 58.6667 33.333 56.4167 33.333 51.1667V42.1667C33.333 36.9167 36.333 34.6667 40.833 34.6667H45.333C45.1163 35.3 44.9997 36 44.9997 36.75V43.2501C44.9997 44.8667 45.533 46.2334 46.483 47.1834C47.433 48.1334 48.7997 48.6667 50.4163 48.6667V50.9834C50.4163 51.8334 51.383 52.3499 52.0997 51.8833L56.9163 48.6667H61.2497C61.9997 48.6667 62.6997 48.5499 63.333 48.3333Z" stroke="#FAFAFA" stroke-width="2.5" stroke-miterlimit="10" stroke-linecap="round" stroke-linejoin="round"/>
<path d="M66.6667 36.75V43.25C66.6667 45.7334 65.4 47.5999 63.3333 48.3332C62.7 48.5499 62 48.6667 61.25 48.6667H56.9167L52.1 51.8832C51.3833 52.3499 50.4167 51.8334 50.4167 50.9834V48.6667C48.8 48.6667 47.4333 48.1333 46.4833 47.1833C45.5333 46.2333 45 44.8667 45 43.25V36.75C45 36 45.1167 35.3 45.3333 34.6666C46.0667 32.6 47.9333 31.3333 50.4167 31.3333H61.25C64.5 31.3333 66.6667 33.5 66.6667 36.75Z" stroke="#FAFAFA" stroke-width="2.5" stroke-miterlimit="10" stroke-linecap="round" stroke-linejoin="round"/>
<path d="M42.333 64.6667H54.333" stroke="#FAFAFA" stroke-width="2.5" stroke-miterlimit="10" stroke-linecap="round" stroke-linejoin="round"/>
<path d="M48.333 58.6667V64.6666" stroke="#FAFAFA" stroke-width="2.5" stroke-miterlimit="10" stroke-linecap="round" stroke-linejoin="round"/>
<path d="M60.8258 40.0833H60.8408" stroke="#FAFAFA" stroke-width="2.5" stroke-linecap="round" stroke-linejoin="round"/>
<path d="M56.1598 40.0833H56.1748" stroke="#FAFAFA" stroke-width="2.5" stroke-linecap="round" stroke-linejoin="round"/>
<path d="M51.4918 40.0833H51.5068" stroke="#FAFAFA" stroke-width="2.5" stroke-linecap="round" stroke-linejoin="round"/>
</svg>
