<svg width="383" height="399" viewBox="0 0 383 399" fill="none" xmlns="http://www.w3.org/2000/svg">
<g filter="url(#filter0_d_4016_5137)">
<path d="M13.2456 110.521C13.2456 80.0207 35.0861 53.8975 65.1036 48.4939L260.302 13.3552C298.957 6.3968 334.491 36.1059 334.491 75.3819V278.355C334.491 313.162 306.275 341.378 271.468 341.378H76.2693C41.4622 341.378 13.2456 313.162 13.2456 278.355V110.521Z" fill="#1D9BF0"/>
</g>
<g clip-path="url(#clip0_4016_5137)">
<mask id="path-2-inside-1_4016_5137" fill="white">
<path d="M214.294 173.147C217.645 174.788 220.414 177.096 222.603 180.071C224.791 183.045 226.176 186.396 226.757 190.123H221.115C220.739 188.174 220.038 186.362 219.012 184.687C217.987 183.011 216.739 181.575 215.268 180.378C213.798 179.182 212.14 178.224 210.293 177.506C208.447 176.788 206.532 176.446 204.549 176.48C202.532 176.48 200.617 176.822 198.805 177.506C196.992 178.19 195.334 179.13 193.83 180.327C192.325 181.524 191.077 182.977 190.085 184.687C189.094 186.396 188.393 188.208 187.983 190.123H182.341C182.888 186.43 184.256 183.097 186.444 180.122C188.632 177.147 191.419 174.822 194.804 173.147C192.855 171.608 191.351 169.744 190.291 167.556C189.231 165.368 188.684 163.043 188.649 160.581C188.649 159.042 188.855 157.555 189.265 156.119C189.675 154.683 190.291 153.332 191.111 152.067C191.932 150.802 192.906 149.673 194.035 148.682C195.163 147.69 196.428 146.852 197.83 146.169C196.907 144.835 195.847 143.655 194.65 142.63C193.453 141.604 192.154 140.698 190.752 139.911C189.35 139.125 187.88 138.561 186.341 138.219C184.803 137.877 183.213 137.672 181.572 137.603C178.836 137.603 176.22 138.133 173.724 139.193C171.228 140.253 169.057 141.809 167.211 143.861C168.031 146.083 168.442 148.374 168.442 150.733C168.442 153.879 167.741 156.837 166.339 159.606C164.937 162.376 162.971 164.701 160.441 166.582C162.663 167.71 164.663 169.095 166.441 170.736C168.219 172.377 169.758 174.224 171.057 176.275C172.357 178.327 173.331 180.515 173.981 182.84C174.63 185.165 174.972 187.593 175.007 190.123H168.442C168.442 187.422 167.929 184.875 166.903 182.481C165.877 180.088 164.475 178.002 162.697 176.224C160.919 174.446 158.816 173.027 156.389 171.967C153.961 170.907 151.414 170.394 148.747 170.428C146.011 170.428 143.464 170.941 141.105 171.967C138.745 172.993 136.66 174.395 134.847 176.173C133.035 177.951 131.616 180.053 130.59 182.481C129.565 184.909 129.052 187.456 129.052 190.123H122.487C122.487 187.627 122.829 185.217 123.513 182.891C124.196 180.566 125.171 178.378 126.436 176.326C127.701 174.275 129.223 172.429 131.001 170.787C132.779 169.146 134.796 167.744 137.053 166.582C134.523 164.701 132.557 162.376 131.155 159.606C129.753 156.837 129.052 153.879 129.052 150.733C129.052 148.032 129.565 145.485 130.59 143.091C131.616 140.698 133.018 138.612 134.796 136.834C136.574 135.056 138.66 133.637 141.053 132.577C143.447 131.517 146.011 131.004 148.747 131.038C151.653 131.038 154.406 131.654 157.004 132.885C159.603 134.116 161.86 135.825 163.774 138.014C164.663 137.159 165.621 136.39 166.646 135.706C167.672 135.022 168.749 134.372 169.878 133.757C167.347 131.876 165.381 129.551 163.979 126.781C162.578 124.012 161.877 121.054 161.877 117.908C161.877 115.207 162.39 112.66 163.415 110.266C164.441 107.873 165.843 105.787 167.621 104.009C169.399 102.231 171.485 100.812 173.878 99.7522C176.272 98.6923 178.836 98.1794 181.572 98.2136C184.273 98.2136 186.82 98.7265 189.214 99.7522C191.607 100.778 193.693 102.18 195.471 103.958C197.249 105.736 198.668 107.839 199.728 110.266C200.788 112.694 201.301 115.241 201.266 117.908C201.266 121.054 200.566 124.012 199.164 126.781C197.762 129.551 195.796 131.876 193.265 133.757C195.659 135.022 197.813 136.561 199.728 138.373C201.643 140.185 203.267 142.288 204.6 144.681C206.789 144.681 208.84 145.092 210.755 145.912C212.67 146.733 214.362 147.878 215.832 149.349C217.303 150.819 218.431 152.494 219.218 154.375C220.004 156.255 220.414 158.324 220.448 160.581C220.448 163.043 219.918 165.368 218.859 167.556C217.799 169.744 216.277 171.608 214.294 173.147ZM148.747 163.863C150.559 163.863 152.251 163.521 153.824 162.837C155.397 162.154 156.799 161.213 158.03 160.017C159.261 158.82 160.201 157.435 160.851 155.862C161.501 154.289 161.842 152.58 161.877 150.733C161.877 148.921 161.535 147.229 160.851 145.656C160.167 144.083 159.227 142.681 158.03 141.45C156.833 140.219 155.448 139.279 153.876 138.629C152.303 137.98 150.593 137.638 148.747 137.603C146.934 137.603 145.242 137.945 143.669 138.629C142.096 139.313 140.694 140.253 139.463 141.45C138.232 142.647 137.292 144.032 136.643 145.604C135.993 147.177 135.651 148.887 135.617 150.733C135.617 152.546 135.959 154.238 136.643 155.811C137.326 157.384 138.267 158.786 139.463 160.017C140.66 161.248 142.045 162.188 143.618 162.837C145.191 163.487 146.9 163.829 148.747 163.863ZM168.442 117.908C168.442 119.721 168.784 121.413 169.467 122.986C170.151 124.559 171.092 125.961 172.288 127.192C173.485 128.423 174.87 129.363 176.443 130.013C178.016 130.662 179.725 131.004 181.572 131.038C183.384 131.038 185.076 130.696 186.649 130.013C188.222 129.329 189.624 128.389 190.855 127.192C192.086 125.995 193.026 124.61 193.676 123.037C194.325 121.465 194.667 119.755 194.701 117.908C194.701 116.096 194.36 114.404 193.676 112.831C192.992 111.258 192.052 109.856 190.855 108.625C189.658 107.394 188.273 106.454 186.7 105.804C185.128 105.155 183.418 104.813 181.572 104.779C179.759 104.779 178.067 105.12 176.494 105.804C174.921 106.488 173.519 107.428 172.288 108.625C171.057 109.822 170.117 111.207 169.467 112.78C168.818 114.352 168.476 116.062 168.442 117.908ZM204.549 150.22C203.113 150.22 201.779 150.494 200.548 151.041C199.317 151.588 198.223 152.323 197.266 153.246C196.309 154.17 195.556 155.264 195.009 156.529C194.462 157.794 194.189 159.145 194.189 160.581C194.189 162.017 194.462 163.35 195.009 164.581C195.556 165.812 196.291 166.906 197.215 167.864C198.138 168.821 199.232 169.573 200.497 170.121C201.762 170.668 203.113 170.941 204.549 170.941C205.985 170.941 207.319 170.668 208.549 170.121C209.78 169.573 210.875 168.838 211.832 167.915C212.789 166.992 213.542 165.898 214.089 164.633C214.636 163.367 214.909 162.017 214.909 160.581C214.909 159.145 214.636 157.811 214.089 156.58C213.542 155.349 212.806 154.255 211.883 153.298C210.96 152.34 209.866 151.588 208.601 151.041C207.336 150.494 205.985 150.22 204.549 150.22Z"/>
</mask>
<path d="M214.294 173.147C217.645 174.788 220.414 177.096 222.603 180.071C224.791 183.045 226.176 186.396 226.757 190.123H221.115C220.739 188.174 220.038 186.362 219.012 184.687C217.987 183.011 216.739 181.575 215.268 180.378C213.798 179.182 212.14 178.224 210.293 177.506C208.447 176.788 206.532 176.446 204.549 176.48C202.532 176.48 200.617 176.822 198.805 177.506C196.992 178.19 195.334 179.13 193.83 180.327C192.325 181.524 191.077 182.977 190.085 184.687C189.094 186.396 188.393 188.208 187.983 190.123H182.341C182.888 186.43 184.256 183.097 186.444 180.122C188.632 177.147 191.419 174.822 194.804 173.147C192.855 171.608 191.351 169.744 190.291 167.556C189.231 165.368 188.684 163.043 188.649 160.581C188.649 159.042 188.855 157.555 189.265 156.119C189.675 154.683 190.291 153.332 191.111 152.067C191.932 150.802 192.906 149.673 194.035 148.682C195.163 147.69 196.428 146.852 197.83 146.169C196.907 144.835 195.847 143.655 194.65 142.63C193.453 141.604 192.154 140.698 190.752 139.911C189.35 139.125 187.88 138.561 186.341 138.219C184.803 137.877 183.213 137.672 181.572 137.603C178.836 137.603 176.22 138.133 173.724 139.193C171.228 140.253 169.057 141.809 167.211 143.861C168.031 146.083 168.442 148.374 168.442 150.733C168.442 153.879 167.741 156.837 166.339 159.606C164.937 162.376 162.971 164.701 160.441 166.582C162.663 167.71 164.663 169.095 166.441 170.736C168.219 172.377 169.758 174.224 171.057 176.275C172.357 178.327 173.331 180.515 173.981 182.84C174.63 185.165 174.972 187.593 175.007 190.123H168.442C168.442 187.422 167.929 184.875 166.903 182.481C165.877 180.088 164.475 178.002 162.697 176.224C160.919 174.446 158.816 173.027 156.389 171.967C153.961 170.907 151.414 170.394 148.747 170.428C146.011 170.428 143.464 170.941 141.105 171.967C138.745 172.993 136.66 174.395 134.847 176.173C133.035 177.951 131.616 180.053 130.59 182.481C129.565 184.909 129.052 187.456 129.052 190.123H122.487C122.487 187.627 122.829 185.217 123.513 182.891C124.196 180.566 125.171 178.378 126.436 176.326C127.701 174.275 129.223 172.429 131.001 170.787C132.779 169.146 134.796 167.744 137.053 166.582C134.523 164.701 132.557 162.376 131.155 159.606C129.753 156.837 129.052 153.879 129.052 150.733C129.052 148.032 129.565 145.485 130.59 143.091C131.616 140.698 133.018 138.612 134.796 136.834C136.574 135.056 138.66 133.637 141.053 132.577C143.447 131.517 146.011 131.004 148.747 131.038C151.653 131.038 154.406 131.654 157.004 132.885C159.603 134.116 161.86 135.825 163.774 138.014C164.663 137.159 165.621 136.39 166.646 135.706C167.672 135.022 168.749 134.372 169.878 133.757C167.347 131.876 165.381 129.551 163.979 126.781C162.578 124.012 161.877 121.054 161.877 117.908C161.877 115.207 162.39 112.66 163.415 110.266C164.441 107.873 165.843 105.787 167.621 104.009C169.399 102.231 171.485 100.812 173.878 99.7522C176.272 98.6923 178.836 98.1794 181.572 98.2136C184.273 98.2136 186.82 98.7265 189.214 99.7522C191.607 100.778 193.693 102.18 195.471 103.958C197.249 105.736 198.668 107.839 199.728 110.266C200.788 112.694 201.301 115.241 201.266 117.908C201.266 121.054 200.566 124.012 199.164 126.781C197.762 129.551 195.796 131.876 193.265 133.757C195.659 135.022 197.813 136.561 199.728 138.373C201.643 140.185 203.267 142.288 204.6 144.681C206.789 144.681 208.84 145.092 210.755 145.912C212.67 146.733 214.362 147.878 215.832 149.349C217.303 150.819 218.431 152.494 219.218 154.375C220.004 156.255 220.414 158.324 220.448 160.581C220.448 163.043 219.918 165.368 218.859 167.556C217.799 169.744 216.277 171.608 214.294 173.147ZM148.747 163.863C150.559 163.863 152.251 163.521 153.824 162.837C155.397 162.154 156.799 161.213 158.03 160.017C159.261 158.82 160.201 157.435 160.851 155.862C161.501 154.289 161.842 152.58 161.877 150.733C161.877 148.921 161.535 147.229 160.851 145.656C160.167 144.083 159.227 142.681 158.03 141.45C156.833 140.219 155.448 139.279 153.876 138.629C152.303 137.98 150.593 137.638 148.747 137.603C146.934 137.603 145.242 137.945 143.669 138.629C142.096 139.313 140.694 140.253 139.463 141.45C138.232 142.647 137.292 144.032 136.643 145.604C135.993 147.177 135.651 148.887 135.617 150.733C135.617 152.546 135.959 154.238 136.643 155.811C137.326 157.384 138.267 158.786 139.463 160.017C140.66 161.248 142.045 162.188 143.618 162.837C145.191 163.487 146.9 163.829 148.747 163.863ZM168.442 117.908C168.442 119.721 168.784 121.413 169.467 122.986C170.151 124.559 171.092 125.961 172.288 127.192C173.485 128.423 174.87 129.363 176.443 130.013C178.016 130.662 179.725 131.004 181.572 131.038C183.384 131.038 185.076 130.696 186.649 130.013C188.222 129.329 189.624 128.389 190.855 127.192C192.086 125.995 193.026 124.61 193.676 123.037C194.325 121.465 194.667 119.755 194.701 117.908C194.701 116.096 194.36 114.404 193.676 112.831C192.992 111.258 192.052 109.856 190.855 108.625C189.658 107.394 188.273 106.454 186.7 105.804C185.128 105.155 183.418 104.813 181.572 104.779C179.759 104.779 178.067 105.12 176.494 105.804C174.921 106.488 173.519 107.428 172.288 108.625C171.057 109.822 170.117 111.207 169.467 112.78C168.818 114.352 168.476 116.062 168.442 117.908ZM204.549 150.22C203.113 150.22 201.779 150.494 200.548 151.041C199.317 151.588 198.223 152.323 197.266 153.246C196.309 154.17 195.556 155.264 195.009 156.529C194.462 157.794 194.189 159.145 194.189 160.581C194.189 162.017 194.462 163.35 195.009 164.581C195.556 165.812 196.291 166.906 197.215 167.864C198.138 168.821 199.232 169.573 200.497 170.121C201.762 170.668 203.113 170.941 204.549 170.941C205.985 170.941 207.319 170.668 208.549 170.121C209.78 169.573 210.875 168.838 211.832 167.915C212.789 166.992 213.542 165.898 214.089 164.633C214.636 163.367 214.909 162.017 214.909 160.581C214.909 159.145 214.636 157.811 214.089 156.58C213.542 155.349 212.806 154.255 211.883 153.298C210.96 152.34 209.866 151.588 208.601 151.041C207.336 150.494 205.985 150.22 204.549 150.22Z" fill="#FAFAFA" stroke="#1D9BF0" stroke-width="3.50132" mask="url(#path-2-inside-1_4016_5137)"/>
</g>
<mask id="path-3-inside-2_4016_5137" fill="white">
<path d="M13.2456 243.342H334.491V278.355C334.491 313.162 306.275 341.378 271.468 341.378H76.2693C41.4622 341.378 13.2456 313.162 13.2456 278.355V243.342Z"/>
</mask>
<path d="M13.2456 243.342H334.491V278.355C334.491 313.162 306.275 341.378 271.468 341.378H76.2693C41.4622 341.378 13.2456 313.162 13.2456 278.355V243.342Z" fill="#FAFAFA"/>
<path fill-rule="evenodd" clip-rule="evenodd" d="M14.5586 247.718H11.9326H10.6196V243.342H11.9326H13.2456H14.5586H15.8716V247.718H14.5586ZM15.8716 256.471H14.5586H11.9326H10.6196V265.225H11.9326H14.5586H15.8716V256.471ZM15.8716 273.978H14.5586H11.9326H10.6196V278.355C10.6196 278.972 10.6281 279.588 10.6451 280.201C10.6621 280.815 10.6874 281.426 10.7211 282.035L12.0321 281.963L14.6541 281.818L15.9651 281.745C15.9418 281.325 15.9229 280.903 15.9082 280.48C15.8839 279.774 15.8716 279.066 15.8716 278.355V273.978ZM12.8321 289.135L15.4215 288.698L16.7162 288.48C17.0951 290.726 17.598 292.929 18.2175 295.083L16.9557 295.446L14.432 296.172L13.1701 296.535C12.4963 294.192 11.9494 291.796 11.5374 289.354L12.8321 289.135ZM16.815 302.982L19.2407 301.976L20.4536 301.474C21.3224 303.569 22.3059 305.605 23.3962 307.573L22.2476 308.209L19.9505 309.482L18.8019 310.118C17.6165 307.978 16.5471 305.764 15.6022 303.485L16.815 302.982ZM23.795 315.588L25.9354 314.067L27.0056 313.306C28.1525 314.919 29.3768 316.474 30.673 317.965C30.8582 318.178 31.0448 318.39 31.2329 318.6L30.2542 319.475L28.2967 321.226L27.318 322.101C26.7912 321.512 26.2749 320.913 25.7693 320.305C24.7059 319.027 23.6902 317.707 22.7248 316.349L23.795 315.588ZM33.3983 326.327L35.1487 324.37L36.024 323.391C36.2729 323.614 36.5238 323.834 36.7764 324.053C38.2314 325.311 39.747 326.502 41.3182 327.618L40.5575 328.689L39.0361 330.829L38.2754 331.899C36.7725 330.831 35.3165 329.701 33.9113 328.513C33.4429 328.117 32.9801 327.715 32.523 327.306L33.3983 326.327ZM45.1423 334.674L46.4146 332.376L47.0508 331.228C49.0195 332.318 51.0553 333.302 53.1505 334.17L52.6475 335.383L51.6416 337.809L51.1387 339.022C48.8601 338.077 46.6464 337.008 44.5062 335.822L45.1423 334.674ZM58.4521 340.192L59.1779 337.668L59.5409 336.407C61.6948 337.026 63.8982 337.529 66.1441 337.908L65.9257 339.203L65.4887 341.792L65.2703 343.087C62.8284 342.675 60.432 342.128 58.0891 341.454L58.4521 340.192ZM72.6611 342.592L72.806 339.97L72.8785 338.659C73.0188 338.667 73.1592 338.674 73.2997 338.681C74.2834 338.728 75.2734 338.752 76.2693 338.752M79.755 340.065V342.691V344.004H76.2693C75.1315 344.004 74.0002 343.975 72.8762 343.918C72.7803 343.913 72.6844 343.908 72.5886 343.903L72.6611 342.592M86.7263 344.004H93.6977V342.691V340.065V338.752H86.7263V340.065V342.691V344.004ZM79.755 340.065V338.752V340.065ZM76.2693 338.752H79.755H76.2693ZM100.669 338.752V340.065V342.691V344.004H107.64V342.691V340.065V338.752H100.669ZM114.612 338.752V340.065V342.691V344.004H121.583V342.691V340.065V338.752H114.612ZM128.555 338.752V340.065V342.691V344.004H135.526V342.691V340.065V338.752H128.555ZM142.497 338.752V340.065V342.691V344.004H149.469V342.691V340.065V338.752H142.497ZM156.44 338.752V340.065V342.691V344.004H163.411V342.691V340.065V338.752H156.44ZM170.383 338.752V340.065V342.691V344.004H177.354V342.691V340.065V338.752H170.383ZM184.326 338.752V340.065V342.691V344.004H191.297V342.691V340.065V338.752H184.326ZM198.268 338.752V340.065V342.691V344.004H205.24V342.691V340.065V338.752H198.268ZM212.211 338.752V340.065V342.691V344.004H219.182V342.691V340.065V338.752H212.211ZM226.154 338.752V340.065V342.691V344.004H233.125V342.691V340.065V338.752H226.154ZM240.097 338.752V340.065V342.691V344.004H247.068V342.691V340.065V338.752H240.097ZM254.039 338.752V340.065V342.691V344.004H261.011V342.691V340.065V338.752H254.039ZM267.982 338.752V340.065V342.691V344.004H271.468C272.703 344.004 273.93 343.97 275.148 343.903L275.076 342.592L274.931 339.97L274.858 338.659C273.736 338.721 272.606 338.752 271.468 338.752H267.982ZM282.248 341.792L281.811 339.203L281.593 337.908C283.839 337.529 286.042 337.026 288.196 336.407L288.559 337.668L289.285 340.192L289.648 341.454C287.305 342.128 284.909 342.675 282.467 343.087L282.248 341.792ZM296.095 337.809L295.089 335.383L294.587 334.17C296.682 333.302 298.718 332.318 300.686 331.228L301.322 332.376L302.595 334.674L303.231 335.822C301.091 337.008 298.877 338.077 296.598 339.022L296.095 337.809ZM308.701 330.829L307.18 328.689L306.419 327.618C308.263 326.308 310.03 324.896 311.713 323.391L312.588 324.37L314.339 326.327L315.214 327.306C313.386 328.941 311.465 330.475 309.462 331.899L308.701 330.829ZM319.44 321.226L317.483 319.475L316.504 318.6C318.009 316.917 319.421 315.15 320.731 313.306L321.802 314.066L323.942 315.588L325.012 316.349C323.588 318.352 322.054 320.273 320.419 322.101L319.44 321.226ZM327.787 309.482L325.489 308.209L324.341 307.573C325.431 305.605 326.415 303.569 327.283 301.474L328.496 301.976L330.922 302.982L332.135 303.485C331.19 305.764 330.121 307.978 328.935 310.118L327.787 309.482ZM333.305 296.172L330.781 295.446L329.52 295.083C330.139 292.929 330.642 290.726 331.021 288.48L332.316 288.698L334.905 289.135L336.2 289.354C335.788 291.796 335.241 294.192 334.567 296.535L333.305 296.172ZM335.705 281.963L333.083 281.818L331.772 281.745C331.834 280.623 331.865 279.493 331.865 278.355V273.978H333.178H335.804H337.117V278.355C337.117 278.432 337.117 278.509 337.117 278.586C337.113 279.743 337.079 280.893 337.016 282.035L335.705 281.963ZM337.117 265.225V256.471H335.804H333.178H331.865V265.225H333.178H335.804H337.117ZM331.865 247.718H333.178H335.804H337.117V243.342H335.804H334.491H333.178H331.865V247.718Z" fill="#1D9BF0" mask="url(#path-3-inside-2_4016_5137)"/>
<path d="M96.7027 287.31L95.6523 287.048L96.2562 284.106L102.296 285.708C103.346 285.988 104.169 286.47 104.764 287.153C105.36 287.818 105.745 288.719 105.92 289.857L106.209 291.722C106.349 292.632 106.226 293.542 105.841 294.453C105.456 295.363 104.817 296.116 103.924 296.711C103.031 297.306 101.955 297.604 100.694 297.604H99.4337C98.4708 297.604 97.6568 297.359 96.9915 296.869C96.3263 296.361 95.8711 295.67 95.626 294.794C95.3809 293.919 95.3897 292.938 95.6523 291.853L96.7027 287.31ZM98.0682 292.326C98.0157 292.816 98.1382 293.227 98.4358 293.56C98.7509 293.875 99.1798 294.033 99.7225 294.033H100.957C101.587 294.033 102.112 293.954 102.532 293.796C102.953 293.639 103.285 293.394 103.53 293.061L103.163 290.593C103.075 290.032 102.882 289.577 102.585 289.227C102.305 288.877 101.92 288.641 101.429 288.518L99.0923 287.94L98.0682 292.326ZM107.649 294.033H112.061C112.831 294.033 113.461 293.954 113.951 293.796C114.441 293.639 114.853 293.394 115.186 293.061L114.634 290.146C114.529 289.621 114.336 289.157 114.056 288.754C113.776 288.334 113.426 287.975 113.006 287.678L110.511 285.997L111.693 283.082L114.634 285.026C115.404 285.551 116.026 286.181 116.499 286.916C116.989 287.634 117.304 288.448 117.444 289.358L117.785 291.485C117.96 292.501 117.855 293.481 117.47 294.427C117.102 295.354 116.455 296.116 115.527 296.711C114.617 297.306 113.47 297.604 112.087 297.604H107.99L107.649 294.033ZM120.317 281.664L123.127 280.876V297.263L120.317 298.05V281.664ZM128.377 300.02L132.972 298.523C133.287 298.418 133.524 298.339 133.681 298.287C133.804 298.252 133.918 298.208 134.023 298.155C134.145 298.12 134.268 298.085 134.39 298.05L134.154 295.424V287.205L130.688 287.94C129.882 288.115 129.313 288.448 128.981 288.938C128.666 289.411 128.569 290.076 128.692 290.934L129.138 294.138H135.913L134.679 297.026L133.287 297.289C133.112 297.324 132.929 297.35 132.736 297.368C132.561 297.368 132.377 297.368 132.184 297.368H129.506C128.683 297.368 127.974 297.105 127.379 296.58C126.801 296.055 126.46 295.372 126.355 294.532L125.987 291.853C125.725 290.015 125.996 288.492 126.801 287.284C127.607 286.058 128.876 285.253 130.609 284.868L134.732 284.001L135.992 285.026C136.605 285.551 136.911 286.225 136.911 287.048V297.158C136.911 298.12 136.657 298.987 136.15 299.757C135.642 300.528 134.942 301.062 134.049 301.359L129.401 302.882L128.377 300.02ZM136.596 294.033H139.537C139.835 294.033 140.089 294.208 140.299 294.558C140.509 294.89 140.614 295.311 140.614 295.818C140.614 296.309 140.509 296.729 140.299 297.079C140.089 297.429 139.835 297.604 139.537 297.604H136.491L136.596 294.033ZM139.489 297.604C139.191 297.604 138.937 297.429 138.727 297.079C138.517 296.729 138.412 296.309 138.412 295.818C138.412 295.311 138.517 294.89 138.727 294.558C138.937 294.208 139.191 294.033 139.489 294.033H142.01C142.657 294.033 143.209 293.954 143.664 293.796C144.119 293.639 144.496 293.411 144.793 293.114L143.244 285.472L146.027 284.133L147.393 290.724C147.673 292.072 147.629 293.271 147.262 294.322C146.894 295.354 146.246 296.16 145.318 296.737C144.39 297.315 143.261 297.604 141.931 297.604H139.489ZM142.64 279.196H145.844V282.242H142.64V279.196ZM154.999 297.604C154.054 297.604 153.214 297.411 152.478 297.026C151.76 296.624 151.2 296.055 150.798 295.319C150.395 294.584 150.194 293.709 150.194 292.693L150.167 281.664L152.977 280.876V291.774C152.977 292.527 153.17 293.096 153.555 293.481C153.94 293.849 154.483 294.033 155.183 294.033H164.426L163.875 290.015C163.717 288.965 163.315 288.194 162.667 287.704C162.037 287.214 161.214 287.056 160.199 287.231L156.391 287.862L156.706 284.684L159.962 284.159C161.1 283.966 162.142 284.045 163.087 284.395C164.05 284.745 164.838 285.323 165.451 286.128C166.081 286.934 166.475 287.914 166.632 289.07L167.341 294.033H169.705L168.707 297.604H154.999ZM158.754 279.091H161.958V282.137H158.754V279.091ZM176.636 287.31L175.586 287.048L176.19 284.106L182.23 285.708C183.28 285.988 184.103 286.47 184.698 287.153C185.293 287.818 185.678 288.719 185.854 289.857L186.142 291.722C186.282 292.632 186.16 293.542 185.775 294.453C185.39 295.363 184.751 296.116 183.858 296.711C182.965 297.306 181.888 297.604 180.628 297.604H179.367C178.404 297.604 177.59 297.359 176.925 296.869C176.26 296.361 175.805 295.67 175.56 294.794C175.315 293.919 175.323 292.938 175.586 291.853L176.636 287.31ZM178.002 292.326C177.949 292.816 178.072 293.227 178.369 293.56C178.685 293.875 179.113 294.033 179.656 294.033H180.89C181.521 294.033 182.046 293.954 182.466 293.796C182.886 293.639 183.219 293.394 183.464 293.061L183.096 290.593C183.009 290.032 182.816 289.577 182.519 289.227C182.238 288.877 181.853 288.641 181.363 288.518L179.026 287.94L178.002 292.326ZM184.762 299.757L188.623 298.182C188.728 298.147 188.833 298.103 188.938 298.05C189.043 298.015 189.148 297.98 189.253 297.945C189.34 297.893 189.437 297.84 189.542 297.788C189.647 297.753 189.752 297.718 189.857 297.683V286.68L192.562 286.181V296.527C192.562 297.735 192.317 298.733 191.826 299.521C191.354 300.326 190.653 300.922 189.726 301.307L186.154 302.751L184.762 299.757ZM197.488 300.02L202.084 298.523C202.399 298.418 202.635 298.339 202.793 298.287C202.916 298.252 203.029 298.208 203.134 298.155C203.257 298.12 203.379 298.085 203.502 298.05L203.266 295.424V287.205L199.799 287.94C198.994 288.115 198.425 288.448 198.092 288.938C197.777 289.411 197.681 290.076 197.804 290.934L198.25 294.138H205.025L203.791 297.026L202.399 297.289C202.224 297.324 202.04 297.35 201.848 297.368C201.673 297.368 201.489 297.368 201.296 297.368H198.618C197.795 297.368 197.086 297.105 196.491 296.58C195.913 296.055 195.572 295.372 195.466 294.532L195.099 291.853C194.836 290.015 195.108 288.492 195.913 287.284C196.718 286.058 197.987 285.253 199.721 284.868L203.843 284.001L205.104 285.026C205.717 285.551 206.023 286.225 206.023 287.048V297.158C206.023 298.12 205.769 298.987 205.261 299.757C204.754 300.528 204.053 301.062 203.161 301.359L198.513 302.882L197.488 300.02ZM226.667 296.449C226.282 296.851 225.835 297.149 225.327 297.341C224.82 297.516 224.225 297.604 223.542 297.604H213.904C212.959 297.604 212.119 297.411 211.383 297.026C210.666 296.624 210.105 296.055 209.703 295.319C209.3 294.584 209.099 293.709 209.099 292.693L209.073 281.664L211.882 280.876V291.774C211.882 292.527 212.075 293.096 212.46 293.481C212.845 293.849 213.388 294.033 214.088 294.033H217.397V287.52L220.102 286.916V294.033H223.778C224.303 294.033 224.723 293.866 225.039 293.534C225.354 293.184 225.511 292.746 225.511 292.221V289.096H228.111V292.405C228.111 292.58 228.111 292.755 228.111 292.93C228.111 293.105 228.093 293.28 228.058 293.455L232.444 294.637L230.789 286.312L233.415 284.894L234.965 292.72C235.14 293.105 235.411 293.42 235.779 293.665C236.164 293.91 236.672 294.033 237.302 294.033H238.694C239.009 294.033 239.271 294.208 239.482 294.558C239.692 294.89 239.797 295.311 239.797 295.818C239.797 296.309 239.692 296.729 239.482 297.079C239.271 297.429 239.009 297.604 238.694 297.604H237.381C236.768 297.604 236.217 297.49 235.726 297.263C235.254 297.035 234.842 296.72 234.492 296.317L234.44 296.422C234.352 296.527 234.282 296.615 234.23 296.685L232.943 298.234L226.667 296.449ZM222.728 283.266H229.45V285.918H222.728V283.266ZM224.645 282.977L224.592 280.246H227.586L227.533 282.977H224.645ZM245.009 296.948C244.623 296.86 244.282 296.755 243.984 296.632C243.704 296.492 243.451 296.3 243.223 296.055C242.75 296.58 242.199 296.974 241.569 297.236C240.938 297.481 240.264 297.604 239.547 297.604H238.732C238.435 297.604 238.181 297.429 237.971 297.079C237.761 296.729 237.656 296.309 237.656 295.818C237.656 295.328 237.761 294.908 237.971 294.558C238.181 294.208 238.435 294.033 238.732 294.033H239.73C240.203 294.033 240.588 293.919 240.886 293.691C241.183 293.464 241.437 293.087 241.647 292.562L243.302 287.074C243.442 286.619 243.599 286.233 243.774 285.918C243.949 285.586 244.186 285.288 244.483 285.026L245.455 284.133L248.632 284.999C249.858 285.332 250.83 285.971 251.547 286.916C252.283 287.844 252.703 288.965 252.808 290.277L253.097 294.295C253.132 294.855 253.035 295.389 252.808 295.897C252.58 296.387 252.239 296.816 251.784 297.184L250.654 298.103L245.009 296.948ZM250.208 290.619C250.156 289.936 249.945 289.35 249.578 288.859C249.21 288.369 248.711 288.045 248.081 287.888L246.006 287.31L244.221 293.297L250.497 294.558L250.208 290.619Z" fill="#1D9BF0"/>
<defs>
<filter id="filter0_d_4016_5137" x="0.115665" y="7.96375" width="382.519" height="390.311" filterUnits="userSpaceOnUse" color-interpolation-filters="sRGB">
<feFlood flood-opacity="0" result="BackgroundImageFix"/>
<feColorMatrix in="SourceAlpha" type="matrix" values="0 0 0 0 0 0 0 0 0 0 0 0 0 0 0 0 0 0 127 0" result="hardAlpha"/>
<feOffset dx="17.5066" dy="26.2599"/>
<feGaussianBlur stdDeviation="15.3183"/>
<feComposite in2="hardAlpha" operator="out"/>
<feColorMatrix type="matrix" values="0 0 0 0 0 0 0 0 0 0 0 0 0 0 0 0 0 0 0.07 0"/>
<feBlend mode="normal" in2="BackgroundImageFix" result="effect1_dropShadow_4016_5137"/>
<feBlend mode="normal" in="SourceGraphic" in2="effect1_dropShadow_4016_5137" result="shape"/>
</filter>
<clipPath id="clip0_4016_5137">
<rect width="105.04" height="105.04" fill="white" transform="translate(121.787 91.9095)"/>
</clipPath>
</defs>
</svg>
