<svg width="100" height="96" viewBox="0 0 100 96" fill="none" xmlns="http://www.w3.org/2000/svg">
<rect width="100" height="96" rx="20" fill="#1D9BF0"/>
<path d="M41.2663 64.6666H58.733C63.333 64.6666 65.1663 61.85 65.383 58.4166L66.2496 44.65C66.483 41.05 63.6163 38 59.9996 38C58.983 38 58.0496 37.4166 57.583 36.5166L56.383 34.1C55.6163 32.5833 53.6163 31.3333 51.9163 31.3333H48.0996C46.383 31.3333 44.383 32.5833 43.6163 34.1L42.4163 36.5166C41.9496 37.4166 41.0163 38 39.9996 38C36.383 38 33.5163 41.05 33.7496 44.65L34.6163 58.4166C34.8163 61.85 36.6663 64.6666 41.2663 64.6666Z" stroke="#FAFAFA" stroke-width="2.5" stroke-linecap="round" stroke-linejoin="round"/>
<path d="M47.5 41.3334H52.5" stroke="#FAFAFA" stroke-width="2.5" stroke-linecap="round" stroke-linejoin="round"/>
<path d="M49.9997 58C52.983 58 55.4163 55.5666 55.4163 52.5833C55.4163 49.6 52.983 47.1666 49.9997 47.1666C47.0163 47.1666 44.583 49.6 44.583 52.5833C44.583 55.5666 47.0163 58 49.9997 58Z" stroke="#FAFAFA" stroke-width="2.5" stroke-linecap="round" stroke-linejoin="round"/>
</svg>
