<svg width="383" height="399" viewBox="0 0 383 399" fill="none" xmlns="http://www.w3.org/2000/svg">
<g filter="url(#filter0_d_4016_5143)">
<path d="M13.4912 110.521C13.4912 80.0207 35.3317 53.8975 65.3492 48.4939L260.548 13.3552C299.202 6.3968 334.737 36.1059 334.737 75.3819V278.355C334.737 313.162 306.52 341.378 271.713 341.378H76.5149C41.7078 341.378 13.4912 313.162 13.4912 278.355V110.521Z" fill="#1D9BF0"/>
</g>
<mask id="path-2-inside-1_4016_5143" fill="white">
<path d="M13.4912 243.342H334.737V278.355C334.737 313.162 306.52 341.378 271.713 341.378H76.5149C41.7078 341.378 13.4912 313.162 13.4912 278.355V243.342Z"/>
</mask>
<path d="M13.4912 243.342H334.737V278.355C334.737 313.162 306.52 341.378 271.713 341.378H76.5149C41.7078 341.378 13.4912 313.162 13.4912 278.355V243.342Z" fill="#FAFAFA"/>
<path fill-rule="evenodd" clip-rule="evenodd" d="M14.8042 247.718H12.1782H10.8652V243.342H12.1782H13.4912H14.8042H16.1172V247.718H14.8042ZM16.1172 256.471H14.8042H12.1782H10.8652V265.225H12.1782H14.8042H16.1172V256.471ZM16.1172 273.978H14.8042H12.1782H10.8652V278.355C10.8652 278.972 10.8738 279.588 10.8907 280.201C10.9077 280.815 10.933 281.426 10.9667 282.035L12.2777 281.963L14.8997 281.818L16.2107 281.745C16.1874 281.325 16.1685 280.903 16.1538 280.48C16.1295 279.774 16.1172 279.066 16.1172 278.355V273.978ZM13.0777 289.135L15.6671 288.698L16.9618 288.48C17.3407 290.726 17.8436 292.929 18.4631 295.083L17.2013 295.446L14.6776 296.172L13.4158 296.535C12.7419 294.192 12.195 291.796 11.783 289.354L13.0777 289.135ZM17.0606 302.982L19.4863 301.976L20.6992 301.474C21.568 303.569 22.5515 305.605 23.6418 307.573L22.4932 308.209L20.1961 309.482L19.0475 310.118C17.8621 307.978 16.7927 305.764 15.8478 303.485L17.0606 302.982ZM24.0406 315.588L26.181 314.067L27.2512 313.306C28.3981 314.919 29.6224 316.474 30.9186 317.965C31.1038 318.178 31.2904 318.39 31.4785 318.6L30.4998 319.475L28.5424 321.226L27.5636 322.101C27.0368 321.512 26.5205 320.913 26.0149 320.305C24.9515 319.027 23.9358 317.707 22.9704 316.349L24.0406 315.588ZM33.6439 326.327L35.3944 324.37L36.2696 323.391C36.5185 323.614 36.7694 323.834 37.022 324.053C38.477 325.311 39.9926 326.502 41.5638 327.618L40.8031 328.689L39.2817 330.829L38.521 331.899C37.0181 330.831 35.5622 329.701 34.1569 328.513C33.6885 328.117 33.2257 327.715 32.7686 327.306L33.6439 326.327ZM45.3879 334.674L46.6602 332.376L47.2964 331.228C49.2651 332.318 51.3009 333.302 53.3961 334.17L52.8931 335.383L51.8872 337.809L51.3843 339.022C49.1057 338.077 46.892 337.008 44.7518 335.822L45.3879 334.674ZM58.6977 340.192L59.4235 337.668L59.7865 336.407C61.9404 337.026 64.1439 337.529 66.3897 337.908L66.1713 339.203L65.7344 341.792L65.5159 343.087C63.074 342.675 60.6776 342.128 58.3347 341.454L58.6977 340.192ZM72.9067 342.592L73.0517 339.97L73.1242 338.659C73.2644 338.667 73.4048 338.674 73.5453 338.681C74.529 338.728 75.519 338.752 76.5149 338.752M80.0006 340.065V342.691V344.004H76.5149C75.3771 344.004 74.2458 343.975 73.1218 343.918C73.0259 343.913 72.93 343.908 72.8342 343.903L72.9067 342.592M86.9719 344.004H93.9433V342.691V340.065V338.752H86.9719V340.065V342.691V344.004ZM80.0006 340.065V338.752V340.065ZM76.5149 338.752H80.0006H76.5149ZM100.915 338.752V340.065V342.691V344.004H107.886V342.691V340.065V338.752H100.915ZM114.857 338.752V340.065V342.691V344.004H121.829V342.691V340.065V338.752H114.857ZM128.8 338.752V340.065V342.691V344.004H135.772V342.691V340.065V338.752H128.8ZM142.743 338.752V340.065V342.691V344.004H149.714V342.691V340.065V338.752H142.743ZM156.686 338.752V340.065V342.691V344.004H163.657V342.691V340.065V338.752H156.686ZM170.628 338.752V340.065V342.691V344.004H177.6V342.691V340.065V338.752H170.628ZM184.571 338.752V340.065V342.691V344.004H191.543V342.691V340.065V338.752H184.571ZM198.514 338.752V340.065V342.691V344.004H205.485V342.691V340.065V338.752H198.514ZM212.457 338.752V340.065V342.691V344.004H219.428V342.691V340.065V338.752H212.457ZM226.399 338.752V340.065V342.691V344.004H233.371V342.691V340.065V338.752H226.399ZM240.342 338.752V340.065V342.691V344.004H247.314V342.691V340.065V338.752H240.342ZM254.285 338.752V340.065V342.691V344.004H261.256V342.691V340.065V338.752H254.285ZM268.228 338.752V340.065V342.691V344.004H271.713C272.948 344.004 274.175 343.97 275.394 343.903L275.322 342.592L275.177 339.97L275.104 338.659C273.982 338.721 272.851 338.752 271.713 338.752H268.228ZM282.494 341.792L282.057 339.203L281.838 337.908C284.084 337.529 286.288 337.026 288.442 336.407L288.805 337.668L289.531 340.192L289.893 341.454C287.551 342.128 285.154 342.675 282.712 343.087L282.494 341.792ZM296.341 337.809L295.335 335.383L294.832 334.17C296.927 333.302 298.963 332.318 300.932 331.228L301.568 332.376L302.84 334.674L303.476 335.822C301.336 337.008 299.123 338.077 296.844 339.022L296.341 337.809ZM308.947 330.829L307.425 328.689L306.664 327.618C308.508 326.308 310.276 324.896 311.959 323.391L312.834 324.37L314.584 326.327L315.46 327.306C313.631 328.941 311.711 330.475 309.707 331.899L308.947 330.829ZM319.686 321.226L317.728 319.475L316.75 318.6C318.254 316.917 319.666 315.15 320.977 313.306L322.047 314.066L324.188 315.588L325.258 316.349C323.833 318.352 322.299 320.273 320.665 322.101L319.686 321.226ZM328.032 309.482L325.735 308.209L324.586 307.573C325.677 305.605 326.66 303.569 327.529 301.474L328.742 301.976L331.168 302.982L332.38 303.485C331.436 305.764 330.366 307.978 329.181 310.118L328.032 309.482ZM333.551 296.172L331.027 295.446L329.765 295.083C330.385 292.929 330.888 290.726 331.266 288.48L332.561 288.698L335.151 289.135L336.445 289.354C336.033 291.796 335.486 294.192 334.812 296.535L333.551 296.172ZM335.951 281.963L333.329 281.818L332.018 281.745C332.08 280.623 332.111 279.493 332.111 278.355V273.978H333.424H336.05H337.363V278.355C337.363 278.432 337.363 278.509 337.363 278.586C337.359 279.743 337.325 280.893 337.262 282.035L335.951 281.963ZM337.363 265.225V256.471H336.05H333.424H332.111V265.225H333.424H336.05H337.363ZM332.111 247.718H333.424H336.05H337.363V243.342H336.05H334.737H333.424H332.111V247.718Z" fill="#1D9BF0" mask="url(#path-2-inside-1_4016_5143)"/>
<path d="M214.422 118.182L214.42 118.182L175.035 105.053C175.034 105.053 175.033 105.053 175.033 105.053C174.614 104.918 174.164 104.918 173.746 105.053C173.745 105.053 173.745 105.053 173.744 105.053L134.4 118.182L134.332 118.204H134.295L134.109 118.311L134.008 118.368H133.967L133.87 118.424C133.867 118.427 133.864 118.43 133.861 118.433L214.422 118.182ZM214.422 118.182C214.827 118.316 215.18 118.573 215.43 118.918C215.68 119.264 215.814 119.679 215.814 120.105C215.814 120.532 215.68 120.947 215.43 121.292C215.18 121.638 214.827 121.895 214.422 122.028L214.421 122.029L195.3 128.389L194.75 128.572L195.077 129.051C197.9 133.184 199.405 138.076 199.391 143.082L199.391 143.083C199.388 147.602 198.16 152.035 195.838 155.912C193.517 159.789 190.187 162.964 186.205 165.1L185.305 165.582L186.275 165.902C194.531 168.62 201.614 174.072 206.355 181.357C206.499 181.581 206.597 181.83 206.644 182.091C206.692 182.353 206.687 182.622 206.631 182.882C206.575 183.142 206.468 183.388 206.316 183.607C206.164 183.826 205.971 184.012 205.747 184.156L205.739 184.161L205.732 184.166C205.422 184.384 205.053 184.499 204.675 184.497C204.333 184.493 203.997 184.407 203.694 184.247C203.394 184.088 203.136 183.86 202.941 183.582C199.851 178.824 195.622 174.914 190.637 172.206C185.65 169.498 180.065 168.079 174.389 168.079C168.714 168.079 163.129 169.498 158.142 172.206C153.154 174.915 148.924 178.828 145.834 183.588C145.688 183.812 145.499 184.005 145.278 184.155C145.057 184.306 144.809 184.412 144.547 184.467C144.285 184.522 144.015 184.525 143.752 184.475C143.489 184.426 143.238 184.325 143.014 184.178C142.79 184.032 142.597 183.843 142.446 183.622C142.296 183.401 142.19 183.153 142.135 182.891C142.08 182.629 142.077 182.359 142.127 182.096C142.176 181.833 142.277 181.582 142.423 181.358L142.424 181.357C147.165 174.072 154.248 168.62 162.504 165.902L163.473 165.582L162.574 165.1C158.591 162.964 155.262 159.789 152.94 155.912C150.618 152.035 149.391 147.602 149.388 143.083L149.388 143.082C149.374 138.076 150.878 133.184 153.702 129.051L154.029 128.572L153.479 128.389L137.6 123.096L137.024 122.904V123.511V152.848C137.024 153.385 136.81 153.9 136.431 154.28C136.051 154.659 135.536 154.872 135 154.872C134.463 154.872 133.948 154.659 133.568 154.28C133.189 153.9 132.975 153.385 132.975 152.848V120.023V120.012L132.975 120.001C132.971 119.924 132.979 119.846 133 119.772L133.015 119.72L133.016 119.666C133.018 119.616 133.03 119.566 133.052 119.522L133.058 119.51L133.063 119.498L133.177 119.232C133.183 119.224 133.188 119.215 133.194 119.206C133.208 119.182 133.221 119.155 133.233 119.125L133.318 118.976C133.321 118.973 133.324 118.97 133.327 118.967L133.328 118.967C133.361 118.934 133.388 118.896 133.41 118.856L133.548 118.691L133.754 118.514M214.422 118.182L133.754 118.514M133.754 118.514C133.793 118.492 133.829 118.465 133.861 118.433L133.754 118.514ZM195.343 143.083L195.343 143.082C195.331 138.407 193.769 133.868 190.901 130.177L190.711 129.932L190.417 130.03L175.035 135.158C175.034 135.158 175.033 135.158 175.033 135.158C174.614 135.292 174.164 135.292 173.746 135.158C173.745 135.158 173.745 135.158 173.744 135.158L158.362 130.03L158.068 129.932L157.878 130.176C155.824 132.806 154.427 135.888 153.804 139.167C153.181 142.445 153.351 145.825 154.298 149.025C155.246 152.225 156.944 155.153 159.252 157.564C161.559 159.975 164.409 161.8 167.564 162.887C170.72 163.974 174.089 164.291 177.392 163.813C180.694 163.335 183.835 162.075 186.553 160.138C189.27 158.2 191.485 155.642 193.014 152.675C194.543 149.709 195.341 146.42 195.343 143.083ZM190.653 125.691L190.653 125.69L206.122 120.521L207.365 120.105L206.122 119.69L174.528 109.145L174.389 109.099L174.251 109.145L142.657 119.69L141.414 120.105L142.657 120.521L158.125 125.69L158.126 125.691L174.251 131.066L174.389 131.112L174.528 131.066L190.653 125.691Z" fill="#FAFAFA" stroke="#1D9BF0" stroke-width="0.875329"/>
<path d="M93.9703 291.485H96.465L95.7034 295.004C95.4934 295.95 95.4934 296.772 95.7034 297.473C95.9135 298.173 96.3074 298.707 96.8851 299.075C97.4804 299.442 98.2331 299.626 99.1435 299.626H100.798C101.568 299.626 102.207 299.538 102.715 299.363C103.24 299.188 103.678 298.917 104.028 298.549L103.844 297.079H98.8284L99.2748 294.033H106.838C107.52 294.033 108.089 293.954 108.545 293.796C109.017 293.621 109.411 293.376 109.726 293.061L109.595 281.664L112.405 280.876V291.853C112.405 292.483 112.606 293.009 113.009 293.429C113.429 293.831 114.015 294.033 114.768 294.033H115.819C116.116 294.033 116.37 294.208 116.58 294.558C116.79 294.908 116.895 295.328 116.895 295.818C116.895 296.309 116.79 296.729 116.58 297.079C116.37 297.429 116.116 297.604 115.819 297.604H114.663C113.875 297.604 113.201 297.446 112.641 297.131C112.081 296.799 111.669 296.317 111.407 295.687C111.039 296.212 110.549 296.641 109.936 296.974C109.324 297.289 108.615 297.473 107.809 297.525C107.617 297.543 107.415 297.56 107.205 297.578C106.995 297.595 106.785 297.604 106.575 297.604C106.575 297.674 106.566 297.744 106.549 297.814C106.549 297.902 106.549 297.98 106.549 298.05C106.531 298.12 106.514 298.19 106.496 298.261C106.496 298.331 106.487 298.401 106.47 298.471C106.4 299.311 106.129 300.09 105.656 300.808C105.183 301.525 104.492 302.103 103.581 302.541C102.671 302.979 101.559 303.197 100.246 303.197H99.1172C97.6117 303.197 96.3424 302.856 95.3095 302.173C94.2942 301.49 93.5939 300.519 93.2088 299.258C92.8411 298.015 92.8411 296.58 93.2088 294.952L93.9703 291.485ZM114.682 295.818C114.682 295.311 114.787 294.89 114.997 294.558C115.208 294.208 115.461 294.033 115.759 294.033H120.328C120.223 293.77 120.144 293.49 120.092 293.192C120.039 292.895 120.013 292.597 120.013 292.3V286.627L122.823 286.076V292.037C122.823 292.615 123.007 293.096 123.374 293.481C123.742 293.849 124.215 294.033 124.792 294.033H126.867C127.165 294.033 127.418 294.208 127.628 294.558C127.839 294.89 127.944 295.311 127.944 295.818C127.944 296.309 127.839 296.729 127.628 297.079C127.418 297.429 127.165 297.604 126.867 297.604H124.661C123.908 297.604 123.226 297.464 122.613 297.184C122 296.886 121.484 296.475 121.064 295.95C121.011 296.002 120.958 296.063 120.906 296.133C120.871 296.203 120.827 296.274 120.775 296.344L120.486 296.711C120.241 297.009 119.961 297.236 119.645 297.394C119.33 297.534 118.954 297.604 118.516 297.604H115.759C115.461 297.604 115.208 297.429 114.997 297.079C114.787 296.729 114.682 296.309 114.682 295.818ZM117.729 300.545H124.451V303.224H117.729V300.545ZM126.812 297.604C126.514 297.604 126.26 297.429 126.05 297.079C125.84 296.729 125.735 296.309 125.735 295.818C125.735 295.328 125.84 294.908 126.05 294.558C126.26 294.208 126.514 294.033 126.812 294.033H128.492C128.825 294.033 129.114 293.989 129.359 293.901C129.622 293.796 129.823 293.656 129.963 293.481C130.103 293.289 130.182 293.07 130.199 292.825L130.147 286.233L132.641 285.656V288.676L135.057 285.84C135.863 284.912 136.703 284.308 137.578 284.028C138.471 283.73 139.425 283.756 140.441 284.106L141.806 284.527C142.314 284.684 142.751 284.912 143.119 285.209C143.504 285.489 143.811 285.822 144.038 286.207C144.266 286.575 144.423 286.96 144.511 287.363L145.561 292.798C145.631 293.131 145.815 293.42 146.113 293.665C146.41 293.91 146.839 294.033 147.399 294.033H148.923C149.238 294.033 149.5 294.208 149.71 294.558C149.92 294.89 150.025 295.311 150.025 295.818C150.025 296.309 149.92 296.729 149.71 297.079C149.5 297.429 149.238 297.604 148.923 297.604H147.583C147.041 297.604 146.542 297.534 146.087 297.394C145.649 297.236 145.255 297.018 144.905 296.737C144.555 296.44 144.266 296.072 144.038 295.635C143.618 296.282 143.058 296.772 142.358 297.105C141.675 297.438 140.87 297.604 139.942 297.604H134.821C134.173 297.604 133.578 297.473 133.035 297.21C132.51 296.948 132.055 296.554 131.67 296.028C131.302 296.571 130.847 296.974 130.304 297.236C129.762 297.481 129.114 297.604 128.361 297.604H126.812ZM140.388 294.033C140.826 294.033 141.211 293.998 141.544 293.928C141.876 293.84 142.165 293.726 142.41 293.586C142.655 293.429 142.865 293.236 143.04 293.009L142.069 287.652L140.178 287.048C139.355 286.785 138.655 286.741 138.077 286.916C137.517 287.074 136.939 287.503 136.344 288.203L132.904 292.247L133.062 292.746C133.132 293.166 133.307 293.49 133.587 293.718C133.867 293.928 134.208 294.033 134.611 294.033H140.388ZM148.892 297.604C148.594 297.604 148.34 297.429 148.13 297.079C147.92 296.729 147.815 296.309 147.815 295.818C147.815 295.311 147.92 294.89 148.13 294.558C148.34 294.208 148.594 294.033 148.892 294.033H158.529L157.978 289.989C157.837 288.938 157.444 288.177 156.796 287.704C156.148 287.214 155.325 287.056 154.327 287.231L150.52 287.862L150.835 284.684L154.065 284.133C155.22 283.958 156.271 284.045 157.216 284.395C158.179 284.728 158.967 285.306 159.579 286.128C160.21 286.934 160.604 287.914 160.761 289.07L161.444 294.033H163.413C163.711 294.033 163.965 294.208 164.175 294.558C164.385 294.89 164.49 295.311 164.49 295.818C164.49 296.309 164.385 296.729 164.175 297.079C163.965 297.429 163.711 297.604 163.413 297.604H148.892ZM163.355 297.604C163.057 297.604 162.804 297.429 162.594 297.079C162.383 296.729 162.278 296.309 162.278 295.818C162.278 295.311 162.383 294.89 162.594 294.558C162.804 294.208 163.057 294.033 163.355 294.033H165.876C166.524 294.033 167.075 293.954 167.53 293.796C167.986 293.639 168.362 293.411 168.66 293.114L167.11 285.472L169.894 284.133L171.259 290.724C171.539 292.072 171.496 293.271 171.128 294.322C170.76 295.354 170.113 296.16 169.185 296.737C168.257 297.315 167.128 297.604 165.797 297.604H163.355ZM163.618 279.642H170.34V282.321H163.618V279.642ZM178.372 287.31L177.321 287.048L177.925 284.106L183.965 285.708C185.015 285.988 185.838 286.47 186.433 287.153C187.029 287.818 187.414 288.719 187.589 289.857L187.878 291.722C188.018 292.632 187.895 293.542 187.51 294.453C187.125 295.363 186.486 296.116 185.593 296.711C184.7 297.306 183.624 297.604 182.363 297.604H181.103C180.14 297.604 179.326 297.359 178.66 296.869C177.995 296.361 177.54 295.67 177.295 294.794C177.05 293.919 177.059 292.938 177.321 291.853L178.372 287.31ZM179.737 292.326C179.685 292.816 179.807 293.227 180.105 293.56C180.42 293.875 180.849 294.033 181.391 294.033H182.626C183.256 294.033 183.781 293.954 184.201 293.796C184.621 293.639 184.954 293.394 185.199 293.061L184.832 290.593C184.744 290.032 184.551 289.577 184.254 289.227C183.974 288.877 183.589 288.641 183.098 288.518L180.761 287.94L179.737 292.326ZM186.498 299.757L190.358 298.182C190.463 298.147 190.568 298.103 190.673 298.05C190.778 298.015 190.883 297.98 190.988 297.945C191.076 297.893 191.172 297.84 191.277 297.788C191.382 297.753 191.487 297.718 191.592 297.683V286.68L194.297 286.181V296.527C194.297 297.735 194.052 298.733 193.562 299.521C193.089 300.326 192.389 300.922 191.461 301.307L187.89 302.751L186.498 299.757ZM199.224 300.02L203.819 298.523C204.134 298.418 204.371 298.339 204.528 298.287C204.651 298.252 204.765 298.208 204.87 298.155C204.992 298.12 205.115 298.085 205.237 298.05L205.001 295.424V287.205L201.535 287.94C200.729 288.115 200.16 288.448 199.828 288.938C199.513 289.411 199.416 290.076 199.539 290.934L199.985 294.138H206.76L205.526 297.026L204.134 297.289C203.959 297.324 203.775 297.35 203.583 297.368C203.408 297.368 203.224 297.368 203.031 297.368H200.353C199.53 297.368 198.821 297.105 198.226 296.58C197.648 296.055 197.307 295.372 197.202 294.532L196.834 291.853C196.572 290.015 196.843 288.492 197.648 287.284C198.453 286.058 199.723 285.253 201.456 284.868L205.579 284.001L206.839 285.026C207.452 285.551 207.758 286.225 207.758 287.048V297.158C207.758 298.12 207.504 298.987 206.997 299.757C206.489 300.528 205.789 301.062 204.896 301.359L200.248 302.882L199.224 300.02ZM228.402 296.449C228.017 296.851 227.57 297.149 227.063 297.341C226.555 297.516 225.96 297.604 225.277 297.604H215.64C214.694 297.604 213.854 297.411 213.119 297.026C212.401 296.624 211.841 296.055 211.438 295.319C211.035 294.584 210.834 293.709 210.834 292.693L210.808 281.664L213.618 280.876V291.774C213.618 292.527 213.81 293.096 214.195 293.481C214.581 293.849 215.123 294.033 215.824 294.033H219.132V287.52L221.837 286.916V294.033H225.513C226.039 294.033 226.459 293.866 226.774 293.534C227.089 293.184 227.247 292.746 227.247 292.221V289.096H229.846V292.405C229.846 292.58 229.846 292.755 229.846 292.93C229.846 293.105 229.829 293.28 229.794 293.455L234.179 294.637L232.525 286.312L235.151 284.894L236.7 292.72C236.875 293.105 237.147 293.42 237.514 293.665C237.899 293.91 238.407 294.033 239.037 294.033H240.429C240.744 294.033 241.007 294.208 241.217 294.558C241.427 294.89 241.532 295.311 241.532 295.818C241.532 296.309 241.427 296.729 241.217 297.079C241.007 297.429 240.744 297.604 240.429 297.604H239.116C238.503 297.604 237.952 297.49 237.462 297.263C236.989 297.035 236.578 296.72 236.227 296.317L236.175 296.422C236.087 296.527 236.017 296.615 235.965 296.685L234.678 298.234L228.402 296.449ZM224.463 283.266H231.186V285.918H224.463V283.266ZM226.38 282.977L226.327 280.246H229.321L229.269 282.977H226.38ZM246.744 296.948C246.359 296.86 246.017 296.755 245.72 296.632C245.44 296.492 245.186 296.3 244.958 296.055C244.486 296.58 243.934 296.974 243.304 297.236C242.674 297.481 242 297.604 241.282 297.604H240.468C240.17 297.604 239.916 297.429 239.706 297.079C239.496 296.729 239.391 296.309 239.391 295.818C239.391 295.328 239.496 294.908 239.706 294.558C239.916 294.208 240.17 294.033 240.468 294.033H241.466C241.938 294.033 242.323 293.919 242.621 293.691C242.919 293.464 243.173 293.087 243.383 292.562L245.037 287.074C245.177 286.619 245.335 286.233 245.51 285.918C245.685 285.586 245.921 285.288 246.219 285.026L247.19 284.133L250.368 284.999C251.593 285.332 252.565 285.971 253.283 286.916C254.018 287.844 254.438 288.965 254.543 290.277L254.832 294.295C254.867 294.855 254.771 295.389 254.543 295.897C254.315 296.387 253.974 296.816 253.519 297.184L252.39 298.103L246.744 296.948ZM251.943 290.619C251.891 289.936 251.681 289.35 251.313 288.859C250.945 288.369 250.447 288.045 249.816 287.888L247.742 287.31L245.956 293.297L252.232 294.558L251.943 290.619Z" fill="#1D9BF0"/>
<defs>
<filter id="filter0_d_4016_5143" x="0.361271" y="7.96375" width="382.519" height="390.311" filterUnits="userSpaceOnUse" color-interpolation-filters="sRGB">
<feFlood flood-opacity="0" result="BackgroundImageFix"/>
<feColorMatrix in="SourceAlpha" type="matrix" values="0 0 0 0 0 0 0 0 0 0 0 0 0 0 0 0 0 0 127 0" result="hardAlpha"/>
<feOffset dx="17.5066" dy="26.2599"/>
<feGaussianBlur stdDeviation="15.3183"/>
<feComposite in2="hardAlpha" operator="out"/>
<feColorMatrix type="matrix" values="0 0 0 0 0 0 0 0 0 0 0 0 0 0 0 0 0 0 0.07 0"/>
<feBlend mode="normal" in2="BackgroundImageFix" result="effect1_dropShadow_4016_5143"/>
<feBlend mode="normal" in="SourceGraphic" in2="effect1_dropShadow_4016_5143" result="shape"/>
</filter>
</defs>
</svg>
