<svg width="100" height="96" viewBox="0 0 100 96" fill="none" xmlns="http://www.w3.org/2000/svg">
<rect width="100" height="96" rx="20" fill="#1D9BF0"/>
<path d="M56.3501 61.6333C55.9168 61.6333 55.4668 61.6167 54.9835 61.5667C54.1168 61.5 53.1335 61.3333 52.1168 61.0833L49.3168 60.4167C41.6335 58.6 39.1168 54.5333 40.9168 46.8667L42.5501 39.8833C42.9168 38.3 43.3501 37.0167 43.8835 35.95C46.7501 30.0333 52.2335 30.5667 56.1335 31.4833L58.9168 32.1333C62.8168 33.05 65.2835 34.5 66.6668 36.7167C68.0335 38.9333 68.2501 41.7833 67.3335 45.6833L65.7001 52.65C64.2668 58.75 61.2835 61.6333 56.3501 61.6333ZM51.8668 33.4167C49.0835 33.4167 47.3168 34.5667 46.1335 37.0333C45.7001 37.9333 45.3168 39.05 44.9835 40.45L43.3501 47.4333C41.8668 53.7333 43.5835 56.4833 49.8835 57.9833L52.6835 58.65C53.5835 58.8667 54.4335 59 55.2001 59.0667C59.7335 59.5167 61.9835 57.5333 63.2501 52.0833L64.8835 45.1167C65.6335 41.9 65.5335 39.65 64.5335 38.0333C63.5335 36.4167 61.5668 35.3167 58.3335 34.5667L55.5501 33.9167C54.1668 33.5833 52.9335 33.4167 51.8668 33.4167Z" fill="#FAFAFA"/>
<path d="M43.8831 65.0834C39.5998 65.0834 36.8664 62.5167 35.1164 57.1L32.9831 50.5167C30.6164 43.1834 32.7331 39.05 40.0331 36.6834L42.6664 35.8334C43.5331 35.5667 44.1831 35.3834 44.7664 35.2834C45.2498 35.1834 45.7164 35.3667 45.9998 35.75C46.2831 36.1334 46.3331 36.6334 46.1331 37.0667C45.6998 37.95 45.3164 39.0667 44.9998 40.4667L43.3664 47.45C41.8831 53.75 43.5998 56.5 49.8998 58L52.6998 58.6667C53.5998 58.8834 54.4498 59.0167 55.2164 59.0834C55.7498 59.1334 56.1831 59.5 56.3331 60.0167C56.4664 60.5334 56.2664 61.0667 55.8331 61.3667C54.7331 62.1167 53.3498 62.75 51.5998 63.3167L48.9664 64.1834C47.0498 64.7834 45.3831 65.0834 43.8831 65.0834ZM42.9664 38.3667L40.8164 39.0667C34.8664 40.9834 33.4498 43.7834 35.3664 49.75L37.4998 56.3334C39.4331 62.2834 42.2331 63.7167 48.1831 61.8L50.8164 60.9334C50.9164 60.9 50.9998 60.8667 51.0998 60.8334L49.3331 60.4167C41.6498 58.6 39.1331 54.5334 40.9331 46.8667L42.5664 39.8834C42.6831 39.35 42.8164 38.8334 42.9664 38.3667Z" fill="#FAFAFA"/>
<path d="M59.1503 45.5167C59.0503 45.5167 58.9503 45.5 58.8336 45.4833L50.7503 43.4333C50.0836 43.2667 49.6836 42.5833 49.8503 41.9167C50.0169 41.25 50.7003 40.85 51.3669 41.0167L59.4503 43.0667C60.1169 43.2333 60.5169 43.9167 60.3503 44.5833C60.2169 45.1333 59.7003 45.5167 59.1503 45.5167Z" fill="#FAFAFA"/>
<path d="M54.2666 51.1499C54.1666 51.1499 54.0666 51.1333 53.9499 51.1166L49.0999 49.8833C48.4332 49.7166 48.0332 49.0333 48.1999 48.3666C48.3666 47.6999 49.0499 47.2999 49.7166 47.4666L54.5666 48.6999C55.2332 48.8666 55.6332 49.5499 55.4666 50.2166C55.3332 50.7833 54.8332 51.1499 54.2666 51.1499Z" fill="#FAFAFA"/>
</svg>
