<svg width="1432" height="630" viewBox="0 0 1432 630" fill="none" xmlns="http://www.w3.org/2000/svg">
<g style="mix-blend-mode:overlay" opacity="0.2">
<line x1="26" y1="-2.62268e-07" x2="26" y2="630" stroke="#1D9BF0" stroke-width="12"/>
<line x1="51" y1="4" x2="51" y2="626" stroke="#1D9BF0" stroke-width="8" stroke-linecap="round" stroke-dasharray="0.5 15"/>
<line x1="4" y1="4" x2="4.00003" y2="626" stroke="#1D9BF0" stroke-width="8" stroke-linecap="round" stroke-dasharray="0.5 15"/>
<line x1="102" y1="4" x2="102" y2="626" stroke="#1D9BF0" stroke-width="8" stroke-linecap="round" stroke-dasharray="0.5 15"/>
<line x1="153" y1="4" x2="153" y2="626" stroke="#1D9BF0" stroke-width="8" stroke-linecap="round" stroke-dasharray="0.5 15"/>
<line x1="204" y1="4" x2="204" y2="626" stroke="#1D9BF0" stroke-width="8" stroke-linecap="round" stroke-dasharray="0.5 15"/>
<line x1="255" y1="4" x2="255" y2="626" stroke="#1D9BF0" stroke-width="8" stroke-linecap="round" stroke-dasharray="0.5 15"/>
<line x1="306" y1="4" x2="306" y2="626" stroke="#1D9BF0" stroke-width="8" stroke-linecap="round" stroke-dasharray="0.5 15"/>
<line x1="357" y1="4" x2="357" y2="626" stroke="#1D9BF0" stroke-width="8" stroke-linecap="round" stroke-dasharray="0.5 15"/>
<line x1="408" y1="4" x2="408" y2="626" stroke="#1D9BF0" stroke-width="8" stroke-linecap="round" stroke-dasharray="0.5 15"/>
<line x1="459" y1="4" x2="459" y2="626" stroke="#1D9BF0" stroke-width="8" stroke-linecap="round" stroke-dasharray="0.5 15"/>
<line x1="510" y1="4" x2="510" y2="626" stroke="#1D9BF0" stroke-width="8" stroke-linecap="round" stroke-dasharray="0.5 15"/>
<line x1="561" y1="4" x2="561" y2="626" stroke="#1D9BF0" stroke-width="8" stroke-linecap="round" stroke-dasharray="0.5 15"/>
<line x1="612" y1="4" x2="612" y2="626" stroke="#1D9BF0" stroke-width="8" stroke-linecap="round" stroke-dasharray="0.5 15"/>
<line x1="663" y1="4" x2="663" y2="626" stroke="#1D9BF0" stroke-width="8" stroke-linecap="round" stroke-dasharray="0.5 15"/>
<line x1="714" y1="4" x2="714" y2="626" stroke="#1D9BF0" stroke-width="8" stroke-linecap="round" stroke-dasharray="0.5 15"/>
<line x1="765" y1="4" x2="765" y2="626" stroke="#1D9BF0" stroke-width="8" stroke-linecap="round" stroke-dasharray="0.5 15"/>
<line x1="816" y1="4" x2="816" y2="626" stroke="#1D9BF0" stroke-width="8" stroke-linecap="round" stroke-dasharray="0.5 15"/>
<line x1="867" y1="4" x2="867" y2="626" stroke="#1D9BF0" stroke-width="8" stroke-linecap="round" stroke-dasharray="0.5 15"/>
<line x1="918" y1="4" x2="918" y2="626" stroke="#1D9BF0" stroke-width="8" stroke-linecap="round" stroke-dasharray="0.5 15"/>
<line x1="969" y1="4" x2="969" y2="626" stroke="#1D9BF0" stroke-width="8" stroke-linecap="round" stroke-dasharray="0.5 15"/>
<line x1="1020" y1="4" x2="1020" y2="626" stroke="#1D9BF0" stroke-width="8" stroke-linecap="round" stroke-dasharray="0.5 15"/>
<line x1="1071" y1="4" x2="1071" y2="626" stroke="#1D9BF0" stroke-width="8" stroke-linecap="round" stroke-dasharray="0.5 15"/>
<line x1="1122" y1="4" x2="1122" y2="626" stroke="#1D9BF0" stroke-width="8" stroke-linecap="round" stroke-dasharray="0.5 15"/>
<line x1="1173" y1="4" x2="1173" y2="626" stroke="#1D9BF0" stroke-width="8" stroke-linecap="round" stroke-dasharray="0.5 15"/>
<line x1="1224" y1="4" x2="1224" y2="626" stroke="#1D9BF0" stroke-width="8" stroke-linecap="round" stroke-dasharray="0.5 15"/>
<line x1="1275" y1="4" x2="1275" y2="626" stroke="#1D9BF0" stroke-width="8" stroke-linecap="round" stroke-dasharray="0.5 15"/>
<line x1="1326" y1="4" x2="1326" y2="626" stroke="#1D9BF0" stroke-width="8" stroke-linecap="round" stroke-dasharray="0.5 15"/>
<line x1="1377" y1="4" x2="1377" y2="626" stroke="#1D9BF0" stroke-width="8" stroke-linecap="round" stroke-dasharray="0.5 15"/>
<line x1="1428" y1="4" x2="1428" y2="626" stroke="#1D9BF0" stroke-width="8" stroke-linecap="round" stroke-dasharray="0.5 15"/>
<line x1="77" y1="-2.62268e-07" x2="77" y2="630" stroke="#1D9BF0" stroke-width="12"/>
<line x1="128" y1="-2.62268e-07" x2="128" y2="630" stroke="#1D9BF0" stroke-width="12"/>
<line x1="179" y1="-2.62268e-07" x2="179" y2="630" stroke="#1D9BF0" stroke-width="12"/>
<line x1="230" y1="-2.62268e-07" x2="230" y2="630" stroke="#1D9BF0" stroke-width="12"/>
<line x1="281" y1="-2.62268e-07" x2="281" y2="630" stroke="#1D9BF0" stroke-width="12"/>
<line x1="332" y1="-2.62268e-07" x2="332" y2="630" stroke="#1D9BF0" stroke-width="12"/>
<line x1="383" y1="-2.62268e-07" x2="383" y2="630" stroke="#1D9BF0" stroke-width="12"/>
<line x1="434" y1="-2.62268e-07" x2="434" y2="630" stroke="#1D9BF0" stroke-width="12"/>
<line x1="485" y1="-2.62268e-07" x2="485" y2="630" stroke="#1D9BF0" stroke-width="12"/>
<line x1="536" y1="-2.62268e-07" x2="536" y2="630" stroke="#1D9BF0" stroke-width="12"/>
<line x1="587" y1="-2.62268e-07" x2="587" y2="630" stroke="#1D9BF0" stroke-width="12"/>
<line x1="638" y1="-2.62268e-07" x2="638" y2="630" stroke="#1D9BF0" stroke-width="12"/>
<line x1="689" y1="-2.62268e-07" x2="689" y2="630" stroke="#1D9BF0" stroke-width="12"/>
<line x1="740" y1="-2.62268e-07" x2="740" y2="630" stroke="#1D9BF0" stroke-width="12"/>
<line x1="791" y1="-2.62268e-07" x2="791" y2="630" stroke="#1D9BF0" stroke-width="12"/>
<line x1="842" y1="-2.62268e-07" x2="842" y2="630" stroke="#1D9BF0" stroke-width="12"/>
<line x1="893" y1="-2.62268e-07" x2="893" y2="630" stroke="#1D9BF0" stroke-width="12"/>
<line x1="944" y1="-2.62268e-07" x2="944" y2="630" stroke="#1D9BF0" stroke-width="12"/>
<line x1="995" y1="-2.62268e-07" x2="995" y2="630" stroke="#1D9BF0" stroke-width="12"/>
<line x1="1046" y1="-2.62268e-07" x2="1046" y2="630" stroke="#1D9BF0" stroke-width="12"/>
<line x1="1097" y1="-2.62268e-07" x2="1097" y2="630" stroke="#1D9BF0" stroke-width="12"/>
<line x1="1148" y1="-2.62268e-07" x2="1148" y2="630" stroke="#1D9BF0" stroke-width="12"/>
<line x1="1199" y1="-2.62268e-07" x2="1199" y2="630" stroke="#1D9BF0" stroke-width="12"/>
<line x1="1250" y1="-2.62268e-07" x2="1250" y2="630" stroke="#1D9BF0" stroke-width="12"/>
<line x1="1301" y1="-2.62268e-07" x2="1301" y2="630" stroke="#1D9BF0" stroke-width="12"/>
<line x1="1352" y1="-2.62268e-07" x2="1352" y2="630" stroke="#1D9BF0" stroke-width="12"/>
<line x1="1403" y1="-2.62268e-07" x2="1403" y2="630" stroke="#1D9BF0" stroke-width="12"/>
</g>
</svg>
