<svg width="45" height="45" viewBox="0 0 45 45" fill="none" xmlns="http://www.w3.org/2000/svg">
<g id="Tick Circle" filter="url(#filter0_d_14064_9321)">
<path id="Vector" fill-rule="evenodd" clip-rule="evenodd" d="M22.5 31C29.4036 31 35 25.4036 35 18.5C35 11.5964 29.4036 6 22.5 6C15.5964 6 10 11.5964 10 18.5C10 25.4036 15.5964 31 22.5 31ZM29.4485 15.3753C29.7938 14.9896 29.7611 14.3969 29.3753 14.0515C28.9896 13.7062 28.3969 13.7389 28.0515 14.1247L23.8401 18.8286C22.9867 19.7818 22.412 20.4203 21.9206 20.8333C21.4526 21.2267 21.1777 21.3125 20.9375 21.3125C20.6973 21.3125 20.4224 21.2267 19.9544 20.8333C19.463 20.4203 18.8883 19.7818 18.0349 18.8286L16.9485 17.6151C16.6031 17.2294 16.0104 17.1966 15.6247 17.542C15.2389 17.8874 15.2062 18.48 15.5515 18.8658L16.6844 20.1312C17.4792 21.019 18.1422 21.7595 18.7479 22.2687C19.3887 22.8073 20.0799 23.1875 20.9375 23.1875C21.7951 23.1875 22.4863 22.8073 23.1271 22.2687C23.7328 21.7595 24.3958 21.019 25.1906 20.1312L29.4485 15.3753Z" fill="#11AA63"/>
</g>
<defs>
<filter id="filter0_d_14064_9321" x="0" y="0" width="45" height="45" filterUnits="userSpaceOnUse" color-interpolation-filters="sRGB">
<feFlood flood-opacity="0" result="BackgroundImageFix"/>
<feColorMatrix in="SourceAlpha" type="matrix" values="0 0 0 0 0 0 0 0 0 0 0 0 0 0 0 0 0 0 127 0" result="hardAlpha"/>
<feOffset dy="4"/>
<feGaussianBlur stdDeviation="5"/>
<feComposite in2="hardAlpha" operator="out"/>
<feColorMatrix type="matrix" values="0 0 0 0 0.295833 0 0 0 0 1 0 0 0 0 0.67323 0 0 0 0.6 0"/>
<feBlend mode="normal" in2="BackgroundImageFix" result="effect1_dropShadow_14064_9321"/>
<feBlend mode="normal" in="SourceGraphic" in2="effect1_dropShadow_14064_9321" result="shape"/>
</filter>
</defs>
</svg>
