<svg width="18" height="13" viewBox="0 0 18 13" fill="none" xmlns="http://www.w3.org/2000/svg">
<g id="Right 1">
<path id="Vector" d="M4.47204 0.967309C4.76624 0.675726 5.24111 0.677844 5.53269 0.972041C5.82427 1.26624 5.82216 1.74111 5.52796 2.03269L3.76499 3.78C3.0495 4.48914 2.55869 4.97718 2.22659 5.39071C2.11867 5.52509 2.03446 5.6434 1.96908 5.75L17 5.75C17.4142 5.75 17.75 6.08579 17.75 6.5C17.75 6.91422 17.4142 7.25 17 7.25L1.96908 7.25C2.03446 7.3566 2.11867 7.47491 2.22659 7.60929C2.55869 8.02282 3.0495 8.51086 3.76499 9.22L5.52796 10.9673C5.82216 11.2589 5.82427 11.7338 5.53269 12.028C5.24111 12.3222 4.76624 12.3243 4.47204 12.0327L2.6773 10.2539C2.00133 9.58395 1.44886 9.03641 1.05706 8.54854C0.649628 8.04121 0.354694 7.52628 0.275909 6.90816C0.258636 6.77265 0.25 6.63632 0.25 6.5C0.25 6.36368 0.258636 6.22735 0.275909 6.09184C0.354694 5.47372 0.649628 4.95878 1.05706 4.45146C1.44886 3.96358 2.00134 3.41604 2.67732 2.74609L4.47204 0.967309Z" fill="#040C1A"/>
</g>
</svg>
