<svg width="24" height="24" viewBox="0 0 24 24" fill="none" xmlns="http://www.w3.org/2000/svg">
<path d="M19 9C19 10.45 18.57 11.78 17.83 12.89C16.75 14.49 15.04 15.62 13.05 15.91C12.71 15.97 12.36 16 12 16C11.64 16 11.29 15.97 10.95 15.91C8.96 15.62 7.25 14.49 6.17 12.89C5.43 11.78 5 10.45 5 9C5 5.13 8.13 2 12 2C15.87 2 19 5.13 19 9Z" stroke="#095385" stroke-width="1.5" stroke-linecap="round" stroke-linejoin="round"/>
<path d="M21.2471 18.47L19.5971 18.86C19.2271 18.95 18.9371 19.23 18.8571 19.6L18.5071 21.07C18.3171 21.87 17.2971 22.11 16.7671 21.48L11.9971 16L7.22715 21.49C6.69715 22.12 5.67715 21.88 5.48715 21.08L5.13715 19.61C5.04715 19.24 4.75715 18.95 4.39715 18.87L2.74715 18.48C1.98715 18.3 1.71715 17.35 2.26715 16.8L6.16715 12.9C7.24715 14.5 8.95715 15.63 10.9471 15.92C11.2871 15.98 11.6371 16.01 11.9971 16.01C12.3571 16.01 12.7071 15.98 13.0471 15.92C15.0371 15.63 16.7471 14.5 17.8271 12.9L21.7271 16.8C22.2771 17.34 22.0071 18.29 21.2471 18.47Z" stroke="#095385" stroke-width="1.5" stroke-linecap="round" stroke-linejoin="round"/>
<path d="M12.5819 5.98L13.1719 7.15999C13.2519 7.31999 13.4619 7.48 13.6519 7.51L14.7219 7.68999C15.4019 7.79999 15.5619 8.3 15.0719 8.79L14.2419 9.61998C14.1019 9.75998 14.0219 10.03 14.0719 10.23L14.3119 11.26C14.5019 12.07 14.0719 12.39 13.3519 11.96L12.3519 11.37C12.1719 11.26 11.8719 11.26 11.6919 11.37L10.6919 11.96C9.97193 12.38 9.54193 12.07 9.73193 11.26L9.97193 10.23C10.0119 10.04 9.94193 9.75998 9.80193 9.61998L8.97193 8.79C8.48193 8.3 8.64193 7.80999 9.32193 7.68999L10.3919 7.51C10.5719 7.48 10.7819 7.31999 10.8619 7.15999L11.4519 5.98C11.7419 5.34 12.2619 5.34 12.5819 5.98Z" stroke="#095385" stroke-width="1.5" stroke-linecap="round" stroke-linejoin="round"/>
</svg>
