<svg width="29" height="30" viewBox="0 0 29 30" fill="none" xmlns="http://www.w3.org/2000/svg">
<g clip-path="url(#clip0_6936_18528)">
<path d="M25.7283 1.53932C25.7261 1.04205 25.322 0.640735 24.8257 0.642953C24.3295 0.645172 23.929 1.05009 23.9312 1.54735L23.9418 3.93125C23.9459 4.85385 23.9475 5.48887 23.9016 5.97338C23.3779 5.40778 22.8042 4.88932 22.1875 4.42505C20.0346 2.80427 17.357 1.84347 14.4581 1.84347C7.34494 1.84347 1.57861 7.62152 1.57861 14.7491C1.57861 21.8767 7.34494 27.6547 14.4581 27.6547C21.5712 27.6547 27.3375 21.8767 27.3375 14.7491C27.3375 14.2518 26.9352 13.8487 26.4389 13.8487C25.9427 13.8487 25.5404 14.2518 25.5404 14.7491C25.5404 20.8821 20.5787 25.8539 14.4581 25.8539C8.33747 25.8539 3.37574 20.8821 3.37574 14.7491C3.37574 8.61606 8.33747 3.64425 14.4581 3.64425C16.9544 3.64425 19.2557 4.47026 21.108 5.86477C21.7014 6.3115 22.2486 6.81654 22.7412 7.37137C22.6824 7.38066 22.6187 7.38914 22.5494 7.39673C22.0565 7.45066 21.4052 7.44911 20.4354 7.44478L18.0563 7.43414C17.5601 7.43192 17.156 7.83324 17.1538 8.33051C17.1516 8.82778 17.5521 9.23269 18.0483 9.23491L20.4793 9.24578C21.3837 9.24984 22.138 9.25324 22.7445 9.18687C23.3806 9.11727 23.9668 8.96169 24.4761 8.56675C24.5857 8.48179 24.6896 8.39004 24.7874 8.29208C24.8851 8.19412 24.9767 8.08996 25.0615 7.98017C25.4556 7.46985 25.6109 6.8824 25.6804 6.24501C25.7466 5.63732 25.7432 4.88151 25.7391 3.97528L25.7283 1.53932Z" fill="#6C6C6C"/>
</g>
<path d="M13.9184 11.5401C13.9789 12.2277 14.0733 12.7188 14.2018 13.0135C14.3302 13.3082 14.5229 13.4555 14.7798 13.4555C15.0519 13.4555 15.2219 13.2478 15.2899 12.8322C15.3654 12.409 15.339 11.8952 15.2105 11.2907L16.0379 11.098C16.1815 11.7025 16.2306 12.2692 16.1853 12.7982C16.1475 13.3195 16.0077 13.7389 15.7659 14.0563C15.5317 14.3661 15.2068 14.521 14.7912 14.521C14.4587 14.521 14.1753 14.4076 13.9411 14.1809C13.7069 13.9542 13.5217 13.6293 13.3857 13.2062C13.2573 12.783 13.1704 12.273 13.125 11.6761L13.9184 11.5401ZM10.8242 11.9368C10.9451 12.2995 11.066 12.5979 11.1869 12.8322C11.3078 13.0588 11.4514 13.2364 11.6176 13.3649C11.7838 13.4933 11.9803 13.5576 12.207 13.5576C12.5319 13.5576 12.7775 13.3913 12.9437 13.0588C13.1175 12.7264 13.1779 12.2655 13.125 11.6761L13.9184 11.5401C13.9562 12.1143 13.9109 12.6395 13.7824 13.1155C13.654 13.584 13.4575 13.958 13.193 14.2376C12.9286 14.5096 12.6226 14.6456 12.275 14.6456C11.9652 14.6456 11.6894 14.5776 11.4476 14.4416C11.2133 14.2981 11.0055 14.0978 10.8242 13.8409C10.6429 13.584 10.4728 13.2666 10.3142 12.8888L10.1441 12.4695L10.8242 11.9368ZM10.5748 18.9866C10.59 18.3141 10.5786 17.6001 10.5408 16.8445C10.5106 16.0813 10.4577 15.4164 10.3822 14.8497C10.299 14.1847 10.1857 13.6029 10.0421 13.1042C9.90613 12.5979 9.73612 12.1143 9.5321 11.6534L10.4955 11.098C10.9035 11.9594 11.1945 13.1684 11.3682 14.725C11.4362 15.3068 11.4816 15.9868 11.5043 16.7651C11.5345 17.5434 11.542 18.2839 11.5269 18.9866H10.5748ZM19.0158 18.4993C18.6833 18.4993 18.3773 18.4199 18.0977 18.2612C17.8182 18.095 17.5953 17.8721 17.429 17.5925C17.2628 17.313 17.1797 17.0107 17.1797 16.6858C17.1797 16.3684 17.2628 16.0737 17.429 15.8017C17.5953 15.5221 17.8182 15.303 18.0977 15.1443C18.3773 14.9781 18.6833 14.895 19.0158 14.895C19.3483 14.895 19.6543 14.9781 19.9339 15.1443C20.2135 15.303 20.4364 15.5221 20.6026 15.8017C20.7688 16.0737 20.852 16.3684 20.852 16.6858C20.852 17.0107 20.7688 17.313 20.6026 17.5925C20.4364 17.8721 20.2135 18.095 19.9339 18.2612C19.6543 18.4199 19.3483 18.4993 19.0158 18.4993ZM19.0158 17.6039C19.2652 17.6039 19.473 17.5207 19.6392 17.3545C19.8054 17.1807 19.8885 16.9616 19.8885 16.6971C19.8885 16.4327 19.8054 16.2173 19.6392 16.0511C19.473 15.8773 19.2652 15.7904 19.0158 15.7904C18.7665 15.7904 18.5549 15.8773 18.3811 16.0511C18.2149 16.2173 18.1317 16.4327 18.1317 16.6971C18.1317 16.9616 18.2149 17.1807 18.3811 17.3545C18.5549 17.5207 18.7665 17.6039 19.0158 17.6039Z" fill="#6C6C6C"/>
<defs>
<clipPath id="clip0_6936_18528">
<rect width="28.7541" height="28.8126" fill="white" transform="translate(0.081543 0.342834)"/>
</clipPath>
</defs>
</svg>
