<svg width="58" height="58" viewBox="0 0 58 58" fill="none" xmlns="http://www.w3.org/2000/svg">
<g id="Iconsax/Bold/tickcircle">
<path id="Vector" d="M29 4.83301C15.6842 4.83301 4.83334 15.6838 4.83334 28.9997C4.83334 42.3155 15.6842 53.1663 29 53.1663C42.3158 53.1663 53.1667 42.3155 53.1667 28.9997C53.1667 15.6838 42.3158 4.83301 29 4.83301ZM40.5517 23.4413L26.8492 37.1438C26.5093 37.4833 26.0486 37.6739 25.5683 37.6739C25.088 37.6739 24.6273 37.4833 24.2875 37.1438L17.4483 30.3047C17.1113 29.9636 16.9222 29.5034 16.9222 29.0238C16.9222 28.5443 17.1113 28.0841 17.4483 27.743C18.1492 27.0422 19.3092 27.0422 20.01 27.743L25.5683 33.3013L37.99 20.8797C38.6908 20.1788 39.8508 20.1788 40.5517 20.8797C41.2525 21.5805 41.2525 22.7163 40.5517 23.4413Z" fill="#11AA63"/>
</g>
</svg>
