<svg width="21" height="20" viewBox="0 0 21 20" fill="none" xmlns="http://www.w3.org/2000/svg">
<g id="Upload">
<path id="Vector" d="M5.71783 18.9384L5.6005 19.6792H5.6005L5.71783 18.9384ZM1.56156 14.7822L2.30232 14.6648L1.56156 14.7822ZM19.4384 14.7822L20.1792 14.8995V14.8995L19.4384 14.7822ZM15.2822 18.9384L15.3995 19.6792H15.3995L15.2822 18.9384ZM19.1 8.54956C18.8513 8.21837 18.3811 8.15156 18.0499 8.40032C17.7187 8.64909 17.6519 9.11924 17.9007 9.45043L19.1 8.54956ZM3.09931 9.45043C3.34808 9.11924 3.28126 8.64909 2.95007 8.40032C2.61888 8.15156 2.14873 8.21837 1.89996 8.54956L3.09931 9.45043ZM9.75 15C9.75 15.4142 10.0858 15.75 10.5 15.75C10.9142 15.75 11.25 15.4142 11.25 15H9.75ZM5.91232 4.53403C5.65497 4.8586 5.70946 5.33034 6.03403 5.58768C6.3586 5.84503 6.83034 5.79054 7.08768 5.46597L5.91232 4.53403ZM7.89785 3.23703L7.31016 2.77106L7.89785 3.23703ZM13.1022 3.23703L13.6898 2.77106L13.1022 3.23703ZM13.9123 5.46597C14.1697 5.79054 14.6414 5.84503 14.966 5.58768C15.2905 5.33034 15.345 4.8586 15.0877 4.53403L13.9123 5.46597ZM10.2493 1.01989L10.1313 0.279231L10.1313 0.279232L10.2493 1.01989ZM10.7507 1.01989L10.8687 0.279232L10.8687 0.279231L10.7507 1.01989ZM18.75 12V13H20.25V12H18.75ZM13.5 18.25H7.5V19.75H13.5V18.25ZM2.25 13V12H0.75V13H2.25ZM7.5 18.25C6.54233 18.25 6.15082 18.2477 5.83515 18.1977L5.6005 19.6792C6.06216 19.7523 6.59965 19.75 7.5 19.75V18.25ZM0.75 13C0.75 13.9003 0.747672 14.4378 0.820792 14.8995L2.30232 14.6648C2.25233 14.3492 2.25 13.9577 2.25 13H0.75ZM5.83515 18.1977C4.01661 17.9096 2.59035 16.4834 2.30232 14.6648L0.820792 14.8995C1.21048 17.3599 3.14012 19.2895 5.6005 19.6792L5.83515 18.1977ZM18.75 13C18.75 13.9577 18.7477 14.3492 18.6977 14.6648L20.1792 14.8995C20.2523 14.4378 20.25 13.9003 20.25 13H18.75ZM13.5 19.75C14.4003 19.75 14.9378 19.7523 15.3995 19.6792L15.1648 18.1977C14.8492 18.2477 14.4577 18.25 13.5 18.25V19.75ZM18.6977 14.6648C18.4096 16.4834 16.9834 17.9096 15.1648 18.1977L15.3995 19.6792C17.8599 19.2895 19.7895 17.3599 20.1792 14.8995L18.6977 14.6648ZM20.25 12C20.25 10.7064 19.8219 9.51064 19.1 8.54956L17.9007 9.45043C18.4342 10.1607 18.75 11.0424 18.75 12H20.25ZM2.25 12C2.25 11.0424 2.56583 10.1607 3.09931 9.45043L1.89996 8.54956C1.17806 9.51064 0.75 10.7064 0.75 12H2.25ZM11.25 15V2H9.75V15H11.25ZM7.08768 5.46597L8.48553 3.703L7.31016 2.77106L5.91232 4.53403L7.08768 5.46597ZM12.5145 3.703L13.9123 5.46597L15.0877 4.53403L13.6898 2.77106L12.5145 3.703ZM8.48553 3.703C9.05429 2.98568 9.44177 2.49884 9.76822 2.17113C10.0913 1.84678 10.2612 1.77747 10.3673 1.76055L10.1313 0.279232C9.55816 0.370553 9.10963 0.706845 8.70552 1.11252C8.30475 1.51484 7.85616 2.08245 7.31016 2.77106L8.48553 3.703ZM13.6898 2.77106C13.1438 2.08245 12.6953 1.51484 12.2945 1.11252C11.8904 0.706846 11.4418 0.370553 10.8687 0.279232L10.6327 1.76055C10.7388 1.77747 10.9087 1.84678 11.2318 2.17113C11.5582 2.49884 11.9457 2.98568 12.5145 3.703L13.6898 2.77106ZM10.3673 1.76055C10.4117 1.75348 10.4559 1.75 10.5 1.75V0.25C10.3766 0.25 10.2534 0.259776 10.1313 0.279231L10.3673 1.76055ZM10.5 1.75C10.5441 1.75 10.5883 1.75348 10.6327 1.76055L10.8687 0.279231C10.7466 0.259776 10.6234 0.25 10.5 0.25V1.75ZM11.25 2V1H9.75V2H11.25Z" fill="white"/>
</g>
</svg>
