<svg width="45" height="45" viewBox="0 0 45 45" fill="none" xmlns="http://www.w3.org/2000/svg">
<path d="M29.9252 20.3063H24.1877L22.7627 24.6H27.0564C28.6314 24.6 29.9252 25.875 29.9252 27.4688C29.9252 29.0438 28.6502 30.3375 27.0564 30.3375H22.7627" stroke="#1D9BF0" stroke-width="1.5" stroke-linecap="round" stroke-linejoin="round"/>
<path d="M17.8877 30.3187V20.3063L15.0752 23.4375" stroke="#1D9BF0" stroke-width="1.5" stroke-linecap="round" stroke-linejoin="round"/>
<path d="M26.2125 8.38119L22.5 3.75" stroke="#1D9BF0" stroke-width="1.5" stroke-linecap="round" stroke-linejoin="round"/>
<path d="M35.7936 14.625C37.8749 17.4 39.1686 20.8313 39.1686 24.5813C39.1686 33.7875 31.7061 41.25 22.4998 41.25C13.2936 41.25 5.83105 33.7875 5.83105 24.5813C5.83105 15.375 13.2936 7.91248 22.4998 7.91248C23.7748 7.91248 25.0123 8.08132 26.2123 8.36257" stroke="#1D9BF0" stroke-width="1.5" stroke-linecap="round" stroke-linejoin="round"/>
</svg>
