<svg width="25" height="24" viewBox="0 0 25 24" fill="none" xmlns="http://www.w3.org/2000/svg">
<path d="M7.71783 20.9384L7.6005 21.6792H7.6005L7.71783 20.9384ZM3.56156 16.7822L4.30232 16.6648L3.56156 16.7822ZM21.4384 16.7822L22.1792 16.8995V16.8995L21.4384 16.7822ZM17.2822 20.9384L17.3995 21.6792H17.3995L17.2822 20.9384ZM21.1 10.5496C20.8513 10.2184 20.3811 10.1516 20.0499 10.4003C19.7187 10.6491 19.6519 11.1192 19.9007 11.4504L21.1 10.5496ZM5.09931 11.4504C5.34808 11.1192 5.28126 10.6491 4.95007 10.4003C4.61888 10.1516 4.14873 10.2184 3.89996 10.5496L5.09931 11.4504ZM11.75 17C11.75 17.4142 12.0858 17.75 12.5 17.75C12.9142 17.75 13.25 17.4142 13.25 17H11.75ZM7.91232 6.53403C7.65497 6.8586 7.70946 7.33034 8.03403 7.58768C8.3586 7.84503 8.83034 7.79054 9.08768 7.46597L7.91232 6.53403ZM9.89785 5.23703L9.31016 4.77106L9.89785 5.23703ZM15.1022 5.23703L15.6898 4.77106L15.1022 5.23703ZM15.9123 7.46597C16.1697 7.79054 16.6414 7.84503 16.966 7.58768C17.2905 7.33034 17.345 6.8586 17.0877 6.53403L15.9123 7.46597ZM12.2493 3.01989L12.1313 2.27923L12.1313 2.27923L12.2493 3.01989ZM12.7507 3.01989L12.8687 2.27923L12.8687 2.27923L12.7507 3.01989ZM20.75 14V15H22.25V14H20.75ZM15.5 20.25H9.5V21.75H15.5V20.25ZM4.25 15V14H2.75V15H4.25ZM9.5 20.25C8.54233 20.25 8.15082 20.2477 7.83515 20.1977L7.6005 21.6792C8.06216 21.7523 8.59965 21.75 9.5 21.75V20.25ZM2.75 15C2.75 15.9003 2.74767 16.4378 2.82079 16.8995L4.30232 16.6648C4.25233 16.3492 4.25 15.9577 4.25 15H2.75ZM7.83515 20.1977C6.01661 19.9096 4.59035 18.4834 4.30232 16.6648L2.82079 16.8995C3.21048 19.3599 5.14012 21.2895 7.6005 21.6792L7.83515 20.1977ZM20.75 15C20.75 15.9577 20.7477 16.3492 20.6977 16.6648L22.1792 16.8995C22.2523 16.4378 22.25 15.9003 22.25 15H20.75ZM15.5 21.75C16.4003 21.75 16.9378 21.7523 17.3995 21.6792L17.1648 20.1977C16.8492 20.2477 16.4577 20.25 15.5 20.25V21.75ZM20.6977 16.6648C20.4096 18.4834 18.9834 19.9096 17.1648 20.1977L17.3995 21.6792C19.8599 21.2895 21.7895 19.3599 22.1792 16.8995L20.6977 16.6648ZM22.25 14C22.25 12.7064 21.8219 11.5106 21.1 10.5496L19.9007 11.4504C20.4342 12.1607 20.75 13.0424 20.75 14H22.25ZM4.25 14C4.25 13.0424 4.56583 12.1607 5.09931 11.4504L3.89996 10.5496C3.17806 11.5106 2.75 12.7064 2.75 14H4.25ZM13.25 17V4H11.75V17H13.25ZM9.08768 7.46597L10.4855 5.703L9.31016 4.77106L7.91232 6.53403L9.08768 7.46597ZM14.5145 5.703L15.9123 7.46597L17.0877 6.53403L15.6898 4.77106L14.5145 5.703ZM10.4855 5.703C11.0543 4.98568 11.4418 4.49884 11.7682 4.17113C12.0913 3.84678 12.2612 3.77747 12.3673 3.76055L12.1313 2.27923C11.5582 2.37055 11.1096 2.70685 10.7055 3.11252C10.3047 3.51484 9.85616 4.08245 9.31016 4.77106L10.4855 5.703ZM15.6898 4.77106C15.1438 4.08245 14.6953 3.51484 14.2945 3.11252C13.8904 2.70685 13.4418 2.37055 12.8687 2.27923L12.6327 3.76055C12.7388 3.77747 12.9087 3.84678 13.2318 4.17113C13.5582 4.49884 13.9457 4.98568 14.5145 5.703L15.6898 4.77106ZM12.3673 3.76055C12.4117 3.75348 12.4559 3.75 12.5 3.75V2.25C12.3766 2.25 12.2534 2.25978 12.1313 2.27923L12.3673 3.76055ZM12.5 3.75C12.5441 3.75 12.5883 3.75348 12.6327 3.76055L12.8687 2.27923C12.7466 2.25978 12.6234 2.25 12.5 2.25V3.75ZM13.25 4V3H11.75V4H13.25Z" fill="white"/>
</svg>
