<svg width="13" height="17" viewBox="0 0 13 17" fill="none" xmlns="http://www.w3.org/2000/svg">
<path d="M6.49958 9.09997C6.12042 9.09997 5.74125 8.95372 5.45417 8.66664L1.9225 5.13497C1.76542 4.97789 1.76542 4.71789 1.9225 4.56081C2.07958 4.40372 2.33958 4.40372 2.49667 4.56081L6.02833 8.09247C6.28833 8.35247 6.71083 8.35247 6.97083 8.09247L10.5025 4.56081C10.6596 4.40372 10.9196 4.40372 11.0767 4.56081C11.2338 4.71789 11.2338 4.97789 11.0767 5.13497L7.545 8.66664C7.25792 8.95372 6.87875 9.09997 6.49958 9.09997Z" fill="#1D9BF0"/>
<path d="M6.49958 13.1C6.12042 13.1 5.74125 12.9537 5.45417 12.6666L1.9225 9.13497C1.76542 8.97789 1.76542 8.71789 1.9225 8.56081C2.07958 8.40372 2.33958 8.40372 2.49667 8.56081L6.02833 12.0925C6.28833 12.3525 6.71083 12.3525 6.97083 12.0925L10.5025 8.56081C10.6596 8.40372 10.9196 8.40372 11.0767 8.56081C11.2338 8.71789 11.2338 8.97789 11.0767 9.13497L7.545 12.6666C7.25792 12.9537 6.87875 13.1 6.49958 13.1Z" fill="#1D9BF0"/>
</svg>
