<svg width="19" height="12" viewBox="0 0 19 12" fill="none" xmlns="http://www.w3.org/2000/svg">
<path d="M4.8193 0.467309C5.12609 0.175726 5.62128 0.177844 5.92535 0.472041C6.22941 0.766238 6.2272 1.24111 5.92041 1.53269L4.08199 3.28C3.33588 3.98914 2.82407 4.47718 2.47776 4.89071C2.36521 5.02509 2.2774 5.1434 2.20922 5.25L17.8834 5.25C18.3154 5.25 18.6655 5.58579 18.6655 6C18.6655 6.41422 18.3154 6.75 17.8834 6.75L2.20922 6.75C2.2774 6.8566 2.36521 6.97491 2.47776 7.10929C2.82407 7.52282 3.33588 8.01086 4.08199 8.72L5.92041 10.4673C6.2272 10.7589 6.22941 11.2338 5.92535 11.528C5.62128 11.8222 5.12609 11.8243 4.8193 11.5327L2.94775 9.7539C2.24285 9.08395 1.66674 8.53641 1.25817 8.04854C0.833302 7.54121 0.525745 7.02628 0.443588 6.40816C0.425575 6.27265 0.416571 6.13632 0.416571 6C0.416571 5.86368 0.425575 5.72735 0.443588 5.59184C0.525745 4.97372 0.833302 4.45878 1.25817 3.95146C1.66674 3.46358 2.24286 2.91604 2.94777 2.24609L4.8193 0.467309Z" fill="#040C1A"/>
</svg>
