<svg version="1.2" xmlns="http://www.w3.org/2000/svg" viewBox="0 0 95 97" width="95" height="97">
	<defs>
		<linearGradient id="g1" x1="47" y1="9.9" x2="64.5" y2="92.3" gradientUnits="userSpaceOnUse">
			<stop offset="0" stop-color="#1d9bf0"/>
			<stop offset=".7" stop-color="#0e80cc"/>
		</linearGradient>
	</defs>
	<style>
		.s0 { fill: url(#g1) } 
		.s1 { fill: #ffffff } 
	</style>
	<g id="Layer">
		<path id="Layer" class="s0" d="m47 96c-26.5 0-48-21.5-48-48 0-26.5 21.5-48 48-48 26.5 0 48 21.5 48 48 0 26.5-21.5 48-48 48z"/>
	</g>
	<path id="Layer" class="s1" d="m41.4 34.7l8 4.6 8 4.6c3.3 1.9 3.3 6.7 0 8.6l-8 4.6-8 4.6c-3.3 1.9-7.4-0.5-7.4-4.3v-18.5c0-3.8 4.1-6.1 7.4-4.2z"/>
</svg>