<svg width="30" height="30" viewBox="0 0 30 30" fill="none" xmlns="http://www.w3.org/2000/svg">
<path d="M20.7359 6.70432C20.272 6.52768 19.753 6.7613 19.5767 7.22615C19.4005 7.69099 19.6336 8.21101 20.0975 8.38766C20.5297 8.55222 20.9808 8.83102 21.434 9.28127C22.0112 9.85469 22.3765 10.4832 22.5801 11.1448C22.7263 11.62 23.2293 11.8865 23.7035 11.7399C24.1778 11.5934 24.4437 11.0894 24.2974 10.6142C24.0055 9.66573 23.4832 8.78132 22.6993 8.00248C22.0808 7.38804 21.4197 6.9647 20.7359 6.70432Z" fill="#6C6C6C"/>
<path fill-rule="evenodd" clip-rule="evenodd" d="M13.6157 4.55981C12.5516 3.8834 11.0946 3.18017 9.47671 3.06149C7.81388 2.93951 6.04323 3.44232 4.45269 5.06763C2.57496 6.98641 1.98584 9.35508 2.2224 11.751C2.45624 14.1194 3.49297 16.527 4.87569 18.6603C6.26211 20.7993 8.03311 22.7197 9.80982 24.1142C11.5475 25.478 13.4381 26.4542 15.0521 26.4542C16.6662 26.4542 18.5568 25.478 20.2944 24.1142C22.0712 22.7197 23.8422 20.7993 25.2286 18.6603C26.6113 16.527 27.648 14.1194 27.8819 11.751C28.1185 9.35508 27.5293 6.98642 25.6516 5.06764C24.0611 3.44234 22.2904 2.93953 20.6276 3.06151C19.0098 3.18019 17.5528 3.88341 16.4886 4.55981C15.6494 5.09323 14.4549 5.09323 13.6157 4.55981ZM5.73584 6.32845C6.94188 5.09604 8.1887 4.77261 9.34549 4.85747C10.5473 4.94563 11.712 5.4823 12.6531 6.08045C14.0799 6.98739 16.0244 6.9874 17.4513 6.08046C18.3923 5.48231 19.5571 4.94564 20.7588 4.85749C21.9156 4.77263 23.1624 5.09606 24.3684 6.32845C25.81 7.80154 26.2873 9.61078 26.0935 11.5738C25.8969 13.5643 25.0065 15.6967 23.7214 17.6794C22.44 19.6564 20.8026 21.428 19.1863 22.6965C17.5309 23.9957 16.044 24.6535 15.0521 24.6535C14.0602 24.6535 12.5733 23.9957 10.918 22.6965C9.30171 21.428 7.66424 19.6564 6.38285 17.6794C5.09776 15.6967 4.20734 13.5643 4.0108 11.5738C3.81699 9.61078 4.29427 7.80153 5.73584 6.32845Z" fill="#6C6C6C"/>
</svg>
