<svg width="32" height="31" viewBox="0 0 32 31" fill="none" xmlns="http://www.w3.org/2000/svg">
<path d="M20.1889 6.98702C17.9831 5.72676 16.2697 4.74783 14.8782 4.11277C13.4815 3.47534 12.269 3.11536 11.0901 3.23798C9.21906 3.43259 7.51572 4.40404 6.4057 5.91594C5.70455 6.87093 5.41262 8.09663 5.27194 9.61409C5.13182 11.1255 5.13183 13.0844 5.13184 15.6036V15.7086C5.13183 18.2279 5.13182 20.1868 5.27194 21.6982C5.41262 23.2156 5.70455 24.4413 6.40569 25.3963C7.51572 26.9082 9.21906 27.8797 11.0901 28.0743C12.269 28.1969 13.4815 27.8369 14.8782 27.1995C16.2697 26.5644 17.9831 25.5855 20.1889 24.3253L20.2784 24.2741C22.484 23.014 24.1975 22.035 25.4492 21.1599C26.7044 20.2823 27.6297 19.421 28.1149 18.3426C28.8841 16.6328 28.8841 14.6794 28.1149 12.9696C27.6297 11.8913 26.7044 11.03 25.4492 10.1524C24.1975 9.27726 22.484 8.29831 20.2784 7.03814L20.1889 6.98702Z" fill="white"/>
</svg>
