<svg width="29" height="30" viewBox="0 0 29 30" fill="none" xmlns="http://www.w3.org/2000/svg">
<g clip-path="url(#clip0_6936_18525)">
<path d="M4.96668 1.54735C4.96889 1.05009 4.56839 0.645172 4.07213 0.642953C3.57587 0.640735 3.17178 1.04205 3.16957 1.53932L3.15872 3.97522C3.15466 4.88144 3.15128 5.63732 3.2175 6.24501C3.28697 6.8824 3.44223 7.46985 3.83637 7.98017C3.9431 8.11836 4.06056 8.24765 4.18761 8.36687C4.26242 8.43707 4.34055 8.50378 4.42176 8.56675C4.93104 8.96169 5.5173 9.11727 6.15341 9.18687C6.75984 9.25324 7.51411 9.24984 8.41848 9.24578H8.41855L10.8495 9.23491C11.3458 9.23269 11.7463 8.82778 11.7441 8.33051C11.7419 7.83324 11.3378 7.43192 10.8415 7.43414L8.46246 7.44478C7.49271 7.44911 6.84132 7.45066 6.3485 7.39673C6.31144 7.39268 6.27598 7.38837 6.24202 7.38381C6.73744 6.82409 7.28841 6.31483 7.88623 5.86477C9.73854 4.47026 12.0398 3.64425 14.5362 3.64425C20.6568 3.64425 25.6185 8.61606 25.6185 14.7491C25.6185 20.8821 20.6568 25.8539 14.5362 25.8539C8.41559 25.8539 3.45387 20.8821 3.45387 14.7491C3.45387 14.2518 3.05157 13.8487 2.5553 13.8487C2.05904 13.8487 1.65674 14.2518 1.65674 14.7491C1.65674 21.8767 7.42306 27.6547 14.5362 27.6547C21.6493 27.6547 27.4156 21.8767 27.4156 14.7491C27.4156 7.62152 21.6493 1.84347 14.5362 1.84347C11.6372 1.84347 8.95961 2.80427 6.80674 4.42505C6.15587 4.91505 5.5529 5.4654 5.00605 6.06784L5.00401 6.04951C4.9502 5.55569 4.95174 4.90298 4.95607 3.93125L4.96668 1.54735Z" fill="#6C6C6C"/>
</g>
<path d="M12.7959 18.9965C12.811 18.324 12.7997 17.6099 12.7619 16.8543C12.7317 16.0911 12.6788 15.4262 12.6032 14.8595C12.5201 14.1945 12.4068 13.6127 12.2632 13.114C12.1272 12.6078 11.9572 12.1242 11.7532 11.6632L12.7166 11.1079C13.1246 11.9693 13.4155 13.1782 13.5893 14.7348C13.6573 15.3166 13.7026 15.9967 13.7253 16.775C13.7555 17.5532 13.7631 18.2937 13.748 18.9965H12.7959ZM17.5935 18.5091C17.261 18.5091 16.955 18.4298 16.6754 18.2711C16.3958 18.1048 16.1729 17.8819 16.0067 17.6024C15.8404 17.3228 15.7573 17.0205 15.7573 16.6956C15.7573 16.3783 15.8404 16.0836 16.0067 15.8116C16.1729 15.532 16.3958 15.3128 16.6754 15.1542C16.955 14.9879 17.261 14.9048 17.5935 14.9048C17.9259 14.9048 18.2319 14.9879 18.5115 15.1542C18.7911 15.3128 19.014 15.532 19.1802 15.8116C19.3465 16.0836 19.4296 16.3783 19.4296 16.6956C19.4296 17.0205 19.3465 17.3228 19.1802 17.6024C19.014 17.8819 18.7911 18.1048 18.5115 18.2711C18.2319 18.4298 17.9259 18.5091 17.5935 18.5091ZM17.5935 17.6137C17.8428 17.6137 18.0506 17.5306 18.2168 17.3643C18.3831 17.1905 18.4662 16.9714 18.4662 16.707C18.4662 16.4425 18.3831 16.2271 18.2168 16.0609C18.0506 15.8871 17.8428 15.8002 17.5935 15.8002C17.3441 15.8002 17.1325 15.8871 16.9587 16.0609C16.7925 16.2271 16.7094 16.4425 16.7094 16.707C16.7094 16.9714 16.7925 17.1905 16.9587 17.3643C17.1325 17.5306 17.3441 17.6137 17.5935 17.6137Z" fill="#6C6C6C"/>
<defs>
<clipPath id="clip0_6936_18525">
<rect width="28.7541" height="28.8126" fill="white" transform="translate(0.158691 0.342834)"/>
</clipPath>
</defs>
</svg>
