<svg width="24" height="25" viewBox="0 0 24 25" fill="none" xmlns="http://www.w3.org/2000/svg">
<path d="M17.2539 6.98865C19.1706 8.32073 20.4931 10.4386 20.7614 12.8824" stroke="#FAFAFA" stroke-width="1.5" stroke-linecap="round" stroke-linejoin="round"/>
<path d="M4.34473 12.9314C4.59389 10.4972 5.89723 8.37933 7.79473 7.03766" stroke="#FAFAFA" stroke-width="1.5" stroke-linecap="round" stroke-linejoin="round"/>
<path d="M8.84863 21.1431C9.9603 21.7085 11.2253 22.0248 12.5574 22.0248C13.8416 22.0248 15.0491 21.7373 16.132 21.2102" stroke="#FAFAFA" stroke-width="1.5" stroke-linecap="round" stroke-linejoin="round"/>
<path d="M12.5577 8.45577C14.0291 8.45577 15.2219 7.26299 15.2219 5.79161C15.2219 4.32023 14.0291 3.12744 12.5577 3.12744C11.0863 3.12744 9.89355 4.32023 9.89355 5.79161C9.89355 7.26299 11.0863 8.45577 12.5577 8.45577Z" stroke="#FAFAFA" stroke-width="1.5" stroke-linecap="round" stroke-linejoin="round"/>
<path d="M5.62803 20.164C7.09941 20.164 8.2922 18.9712 8.2922 17.4999C8.2922 16.0285 7.09941 14.8357 5.62803 14.8357C4.15666 14.8357 2.96387 16.0285 2.96387 17.4999C2.96387 18.9712 4.15666 20.164 5.62803 20.164Z" stroke="#FAFAFA" stroke-width="1.5" stroke-linecap="round" stroke-linejoin="round"/>
<path d="M19.3702 20.164C20.8416 20.164 22.0344 18.9712 22.0344 17.4999C22.0344 16.0285 20.8416 14.8357 19.3702 14.8357C17.8988 14.8357 16.7061 16.0285 16.7061 17.4999C16.7061 18.9712 17.8988 20.164 19.3702 20.164Z" stroke="#FAFAFA" stroke-width="1.5" stroke-linecap="round" stroke-linejoin="round"/>
</svg>
