<svg width="136" height="136" viewBox="0 0 136 136" fill="none" xmlns="http://www.w3.org/2000/svg">
<g filter="url(#filter0_d_5820_16242)">
<rect x="37" y="37" width="56" height="56" rx="20" fill="url(#paint0_linear_5820_16242)"/>
</g>
<path d="M70 74.25H60C59.59 74.25 59.25 73.91 59.25 73.5C59.25 73.09 59.59 72.75 60 72.75H70C72.86 72.75 74.25 71.36 74.25 68.5V61.5C74.25 58.64 72.86 57.25 70 57.25H60C57.14 57.25 55.75 58.64 55.75 61.5C55.75 61.91 55.41 62.25 55 62.25C54.59 62.25 54.25 61.91 54.25 61.5C54.25 57.85 56.35 55.75 60 55.75H70C73.65 55.75 75.75 57.85 75.75 61.5V68.5C75.75 72.15 73.65 74.25 70 74.25Z" fill="#FAFAFA"/>
<path d="M64.9988 65.87C64.1588 65.87 63.3088 65.61 62.6588 65.08L59.5288 62.58C59.2088 62.32 59.1488 61.85 59.4088 61.53C59.6688 61.21 60.1388 61.15 60.4588 61.41L63.5888 63.91C64.3488 64.52 65.6388 64.52 66.3988 63.91L69.5288 61.41C69.8488 61.15 70.3288 61.2 70.5788 61.53C70.8388 61.85 70.7888 62.33 70.4588 62.58L67.3288 65.08C66.6888 65.61 65.8388 65.87 64.9988 65.87Z" fill="#FAFAFA"/>
<path d="M61 70.25H55C54.59 70.25 54.25 69.91 54.25 69.5C54.25 69.09 54.59 68.75 55 68.75H61C61.41 68.75 61.75 69.09 61.75 69.5C61.75 69.91 61.41 70.25 61 70.25Z" fill="#FAFAFA"/>
<path d="M58 66.25H55C54.59 66.25 54.25 65.91 54.25 65.5C54.25 65.09 54.59 64.75 55 64.75H58C58.41 64.75 58.75 65.09 58.75 65.5C58.75 65.91 58.41 66.25 58 66.25Z" fill="#FAFAFA"/>
<defs>
<filter id="filter0_d_5820_16242" x="0" y="0" width="136" height="136" filterUnits="userSpaceOnUse" color-interpolation-filters="sRGB">
<feFlood flood-opacity="0" result="BackgroundImageFix"/>
<feColorMatrix in="SourceAlpha" type="matrix" values="0 0 0 0 0 0 0 0 0 0 0 0 0 0 0 0 0 0 127 0" result="hardAlpha"/>
<feOffset dx="3" dy="3"/>
<feGaussianBlur stdDeviation="20"/>
<feComposite in2="hardAlpha" operator="out"/>
<feColorMatrix type="matrix" values="0 0 0 0 0 0 0 0 0 0 0 0 0 0 0 0 0 0 0.1 0"/>
<feBlend mode="normal" in2="BackgroundImageFix" result="effect1_dropShadow_5820_16242"/>
<feBlend mode="normal" in="SourceGraphic" in2="effect1_dropShadow_5820_16242" result="shape"/>
</filter>
<linearGradient id="paint0_linear_5820_16242" x1="65" y1="42.7715" x2="75.2303" y2="90.8219" gradientUnits="userSpaceOnUse">
<stop stop-color="#1D9BF0"/>
<stop offset="0.71875" stop-color="#0E80CC"/>
</linearGradient>
</defs>
</svg>
