<svg width="136" height="136" viewBox="0 0 136 136" fill="none" xmlns="http://www.w3.org/2000/svg">
<g filter="url(#filter0_d_5820_16231)">
<rect x="37" y="37" width="56" height="56" rx="20" fill="url(#paint0_linear_5820_16231)"/>
</g>
<path d="M62 75H68C73 75 75 73 75 68V62C75 57 73 55 68 55H62C57 55 55 57 55 62V68C55 73 57 75 62 75Z" stroke="#FAFAFA" stroke-width="1.5" stroke-linecap="round" stroke-linejoin="round"/>
<path d="M65 68.5C66.933 68.5 68.5 66.933 68.5 65C68.5 63.067 66.933 61.5 65 61.5C63.067 61.5 61.5 63.067 61.5 65C61.5 66.933 63.067 68.5 65 68.5Z" stroke="#FAFAFA" stroke-width="1.5" stroke-linecap="round" stroke-linejoin="round"/>
<path d="M70.6361 60H70.6477" stroke="#FAFAFA" stroke-width="2" stroke-linecap="round" stroke-linejoin="round"/>
<defs>
<filter id="filter0_d_5820_16231" x="0" y="0" width="136" height="136" filterUnits="userSpaceOnUse" color-interpolation-filters="sRGB">
<feFlood flood-opacity="0" result="BackgroundImageFix"/>
<feColorMatrix in="SourceAlpha" type="matrix" values="0 0 0 0 0 0 0 0 0 0 0 0 0 0 0 0 0 0 127 0" result="hardAlpha"/>
<feOffset dx="3" dy="3"/>
<feGaussianBlur stdDeviation="20"/>
<feComposite in2="hardAlpha" operator="out"/>
<feColorMatrix type="matrix" values="0 0 0 0 0 0 0 0 0 0 0 0 0 0 0 0 0 0 0.1 0"/>
<feBlend mode="normal" in2="BackgroundImageFix" result="effect1_dropShadow_5820_16231"/>
<feBlend mode="normal" in="SourceGraphic" in2="effect1_dropShadow_5820_16231" result="shape"/>
</filter>
<linearGradient id="paint0_linear_5820_16231" x1="65" y1="42.7715" x2="75.2303" y2="90.8219" gradientUnits="userSpaceOnUse">
<stop stop-color="#1D9BF0"/>
<stop offset="0.71875" stop-color="#0E80CC"/>
</linearGradient>
</defs>
</svg>
