<svg width="136" height="136" viewBox="0 0 136 136" fill="none" xmlns="http://www.w3.org/2000/svg">
<g filter="url(#filter0_d_5820_16247)">
<rect x="37" y="37" width="56" height="56" rx="20" fill="url(#paint0_linear_5820_16247)"/>
</g>
<path d="M70.45 75.75C69.32 75.75 68.13 75.48 66.9 74.96C65.7 74.45 64.49 73.75 63.31 72.9C62.14 72.04 61.01 71.08 59.94 70.03C58.88 68.96 57.92 67.83 57.07 66.67C56.21 65.47 55.52 64.27 55.03 63.11C54.51 61.87 54.25 60.67 54.25 59.54C54.25 58.76 54.39 58.02 54.66 57.33C54.94 56.62 55.39 55.96 56 55.39C56.77 54.63 57.65 54.25 58.59 54.25C58.98 54.25 59.38 54.34 59.72 54.5C60.11 54.68 60.44 54.95 60.68 55.31L63 58.58C63.21 58.87 63.37 59.15 63.48 59.43C63.61 59.73 63.68 60.03 63.68 60.32C63.68 60.7 63.57 61.07 63.36 61.42C63.21 61.69 62.98 61.98 62.69 62.27L62.01 62.98C62.02 63.01 62.03 63.03 62.04 63.05C62.16 63.26 62.4 63.62 62.86 64.16C63.35 64.72 63.81 65.23 64.27 65.7C64.86 66.28 65.35 66.74 65.81 67.12C66.38 67.6 66.75 67.84 66.97 67.95L66.95 68L67.68 67.28C67.99 66.97 68.29 66.74 68.58 66.59C69.13 66.25 69.83 66.19 70.53 66.48C70.79 66.59 71.07 66.74 71.37 66.95L74.69 69.31C75.06 69.56 75.33 69.88 75.49 70.26C75.64 70.64 75.71 70.99 75.71 71.34C75.71 71.82 75.6 72.3 75.39 72.75C75.18 73.2 74.92 73.59 74.59 73.95C74.02 74.58 73.4 75.03 72.68 75.32C71.99 75.6 71.24 75.75 70.45 75.75ZM58.59 55.75C58.04 55.75 57.53 55.99 57.04 56.47C56.58 56.9 56.26 57.37 56.06 57.88C55.85 58.4 55.75 58.95 55.75 59.54C55.75 60.47 55.97 61.48 56.41 62.52C56.86 63.58 57.49 64.68 58.29 65.78C59.09 66.88 60 67.95 61 68.96C62 69.95 63.08 70.87 64.19 71.68C65.27 72.47 66.38 73.11 67.48 73.57C69.19 74.3 70.79 74.47 72.11 73.92C72.62 73.71 73.07 73.39 73.48 72.93C73.71 72.68 73.89 72.41 74.04 72.09C74.16 71.84 74.22 71.58 74.22 71.32C74.22 71.16 74.19 71 74.11 70.82C74.08 70.76 74.02 70.65 73.83 70.52L70.51 68.16C70.31 68.02 70.13 67.92 69.96 67.85C69.74 67.76 69.65 67.67 69.31 67.88C69.11 67.98 68.93 68.13 68.73 68.33L67.97 69.08C67.58 69.46 66.98 69.55 66.52 69.38L66.25 69.26C65.84 69.04 65.36 68.7 64.83 68.25C64.35 67.84 63.83 67.36 63.2 66.74C62.71 66.24 62.22 65.71 61.71 65.12C61.24 64.57 60.9 64.1 60.69 63.71L60.57 63.41C60.51 63.18 60.49 63.05 60.49 62.91C60.49 62.55 60.62 62.23 60.87 61.98L61.62 61.2C61.82 61 61.97 60.81 62.07 60.64C62.15 60.51 62.18 60.4 62.18 60.3C62.18 60.22 62.15 60.1 62.1 59.98C62.03 59.82 61.92 59.64 61.78 59.45L59.46 56.17C59.36 56.03 59.24 55.93 59.09 55.86C58.93 55.79 58.76 55.75 58.59 55.75ZM66.95 68.01L66.79 68.69L67.06 67.99C67.01 67.98 66.97 67.99 66.95 68.01Z" fill="#FAFAFA"/>
<defs>
<filter id="filter0_d_5820_16247" x="0" y="0" width="136" height="136" filterUnits="userSpaceOnUse" color-interpolation-filters="sRGB">
<feFlood flood-opacity="0" result="BackgroundImageFix"/>
<feColorMatrix in="SourceAlpha" type="matrix" values="0 0 0 0 0 0 0 0 0 0 0 0 0 0 0 0 0 0 127 0" result="hardAlpha"/>
<feOffset dx="3" dy="3"/>
<feGaussianBlur stdDeviation="20"/>
<feComposite in2="hardAlpha" operator="out"/>
<feColorMatrix type="matrix" values="0 0 0 0 0 0 0 0 0 0 0 0 0 0 0 0 0 0 0.1 0"/>
<feBlend mode="normal" in2="BackgroundImageFix" result="effect1_dropShadow_5820_16247"/>
<feBlend mode="normal" in="SourceGraphic" in2="effect1_dropShadow_5820_16247" result="shape"/>
</filter>
<linearGradient id="paint0_linear_5820_16247" x1="65" y1="42.7715" x2="75.2303" y2="90.8219" gradientUnits="userSpaceOnUse">
<stop stop-color="#1D9BF0"/>
<stop offset="0.71875" stop-color="#0E80CC"/>
</linearGradient>
</defs>
</svg>
