<svg width="136" height="136" viewBox="0 0 136 136" fill="none" xmlns="http://www.w3.org/2000/svg">
<g filter="url(#filter0_d_5820_16226)">
<rect x="37" y="37" width="56" height="56" rx="20" fill="url(#paint0_linear_5820_16226)"/>
</g>
<path d="M73.7638 56.8617C73.5977 56.7178 73.3956 56.6218 73.1791 56.584C72.9627 56.5461 72.74 56.5679 72.5349 56.6469L56.6708 62.8773C56.4274 62.9716 56.2213 63.1426 56.0835 63.3643C55.9458 63.586 55.8839 63.8465 55.9071 64.1065C55.9304 64.3665 56.0376 64.6119 56.2126 64.8056C56.3876 64.9994 56.6208 65.1309 56.8771 65.1805L61.0451 66.0141V71.1875C61.0453 71.4245 61.1156 71.6562 61.2471 71.8534C61.3786 72.0507 61.5654 72.2047 61.7841 72.2961C61.9316 72.3562 62.089 72.3882 62.2482 72.3906C62.4063 72.3916 62.5631 72.3609 62.7092 72.3004C62.8553 72.2399 62.9878 72.1508 63.099 72.0383L65.4451 69.6922L68.9513 72.7773C69.1685 72.9721 69.4502 73.0793 69.7419 73.0781C69.8676 73.0792 69.9926 73.0588 70.1115 73.018C70.3099 72.9549 70.4882 72.8407 70.6285 72.6868C70.7688 72.5329 70.8661 72.3448 70.9107 72.1414L74.1505 58.0391C74.1989 57.8262 74.1885 57.6042 74.1204 57.3968C74.0523 57.1894 73.929 57.0044 73.7638 56.8617ZM56.9458 64.0117C56.9398 63.9755 56.9469 63.9383 56.9658 63.9068C56.9847 63.8753 57.0142 63.8516 57.049 63.8398L70.3263 58.6234L61.4404 65.043L57.0833 64.1664C57.0454 64.1622 57.0103 64.144 56.9849 64.1154C56.9595 64.0869 56.9456 64.0499 56.9458 64.0117ZM62.3685 71.3078C62.3447 71.3328 62.3135 71.3496 62.2796 71.3558C62.2456 71.3619 62.2105 71.3572 62.1794 71.3422C62.1492 71.329 62.1234 71.3074 62.1051 71.28C62.0869 71.2526 62.0769 71.2205 62.0763 71.1875V66.7273L64.663 69.0133L62.3685 71.3078ZM69.9138 71.9094C69.9079 71.9392 69.8943 71.9669 69.8742 71.9897C69.8541 72.0125 69.8284 72.0296 69.7995 72.0392C69.7707 72.0488 69.7399 72.0506 69.7101 72.0444C69.6804 72.0382 69.6528 72.0242 69.6302 72.0039L62.3857 65.6273L73.1279 57.8758L69.9138 71.9094Z" fill="#FAFAFA"/>
<defs>
<filter id="filter0_d_5820_16226" x="0" y="0" width="136" height="136" filterUnits="userSpaceOnUse" color-interpolation-filters="sRGB">
<feFlood flood-opacity="0" result="BackgroundImageFix"/>
<feColorMatrix in="SourceAlpha" type="matrix" values="0 0 0 0 0 0 0 0 0 0 0 0 0 0 0 0 0 0 127 0" result="hardAlpha"/>
<feOffset dx="3" dy="3"/>
<feGaussianBlur stdDeviation="20"/>
<feComposite in2="hardAlpha" operator="out"/>
<feColorMatrix type="matrix" values="0 0 0 0 0 0 0 0 0 0 0 0 0 0 0 0 0 0 0.1 0"/>
<feBlend mode="normal" in2="BackgroundImageFix" result="effect1_dropShadow_5820_16226"/>
<feBlend mode="normal" in="SourceGraphic" in2="effect1_dropShadow_5820_16226" result="shape"/>
</filter>
<linearGradient id="paint0_linear_5820_16226" x1="65" y1="42.7715" x2="75.2303" y2="90.8219" gradientUnits="userSpaceOnUse">
<stop stop-color="#1D9BF0"/>
<stop offset="0.71875" stop-color="#0E80CC"/>
</linearGradient>
</defs>
</svg>
