<svg width="4" height="5" viewBox="0 0 4 5" fill="none" xmlns="http://www.w3.org/2000/svg">
<path d="M2.00588 4.192C1.65388 4.192 1.32321 4.10667 1.01388 3.936C0.715208 3.75467 0.475208 3.51467 0.293875 3.216C0.112542 2.90667 0.021875 2.576 0.021875 2.224C0.021875 1.872 0.112542 1.54667 0.293875 1.248C0.475208 0.938667 0.715208 0.698667 1.01388 0.528C1.32321 0.346666 1.65388 0.256 2.00588 0.256C2.35788 0.256 2.68321 0.346666 2.98188 0.528C3.29121 0.698667 3.53121 0.938667 3.70188 1.248C3.88321 1.54667 3.97388 1.872 3.97388 2.224C3.97388 2.576 3.88321 2.90667 3.70188 3.216C3.53121 3.51467 3.29121 3.75467 2.98188 3.936C2.68321 4.10667 2.35788 4.192 2.00588 4.192Z" fill="#6C6C6C"/>
</svg>
