<svg width="30" height="30" viewBox="0 0 30 30" fill="none" xmlns="http://www.w3.org/2000/svg">
<path d="M20.7385 27.6547H8.75766C4.38464 27.6547 1.86865 25.1336 1.86865 20.7517V14.7491C1.86865 10.3672 4.38464 7.84607 8.75766 7.84607H20.7385C25.1116 7.84607 27.6275 10.3672 27.6275 14.7491V20.7517C27.6275 25.1336 25.1116 27.6547 20.7385 27.6547ZM8.75766 9.64685C5.33113 9.64685 3.66578 11.3156 3.66578 14.7491V20.7517C3.66578 24.1852 5.33113 25.8539 8.75766 25.8539H20.7385C24.1651 25.8539 25.8304 24.1852 25.8304 20.7517V14.7491C25.8304 11.3156 24.1651 9.64685 20.7385 9.64685H8.75766Z" fill="#6C6C6C"/>
<path d="M21.9363 6.64557H7.55921C7.06799 6.64557 6.66064 6.2374 6.66064 5.74518C6.66064 5.25297 7.06799 4.84479 7.55921 4.84479H21.9363C22.4275 4.84479 22.8348 5.25297 22.8348 5.74518C22.8348 6.2374 22.4275 6.64557 21.9363 6.64557Z" fill="#6C6C6C"/>
<path d="M18.3425 3.64423H11.1539C10.6627 3.64423 10.2554 3.23605 10.2554 2.74384C10.2554 2.25162 10.6627 1.84344 11.1539 1.84344H18.3425C18.8337 1.84344 19.241 2.25162 19.241 2.74384C19.241 3.23605 18.8337 3.64423 18.3425 3.64423Z" fill="#6C6C6C"/>
<path d="M11.0214 24.1852C9.61962 24.1852 8.48145 23.0447 8.48145 21.6401C8.48145 20.2355 9.61962 19.095 11.0214 19.095C12.4231 19.095 13.5613 20.2355 13.5613 21.6401C13.5613 23.0447 12.4231 24.1852 11.0214 24.1852ZM11.0214 20.8958C10.614 20.8958 10.2786 21.232 10.2786 21.6401C10.2786 22.0483 10.614 22.3845 11.0214 22.3845C11.4287 22.3845 11.7642 22.0483 11.7642 21.6401C11.7642 21.232 11.4287 20.8958 11.0214 20.8958Z" fill="#6C6C6C"/>
<path d="M12.6627 22.5406C12.1715 22.5406 11.7642 22.1324 11.7642 21.6402V15.0253C11.7642 13.9688 12.4231 13.1164 13.4295 12.8403L16.7123 11.9399C17.7546 11.6518 18.4135 11.928 18.7729 12.2161C19.1324 12.4922 19.5637 13.0564 19.5637 14.1249V20.5477C19.5637 21.0399 19.1564 21.4481 18.6652 21.4481C18.1739 21.4481 17.7666 21.0399 17.7666 20.5477V14.1249C17.7666 13.7887 17.6947 13.6567 17.6707 13.6447C17.6468 13.6327 17.503 13.5847 17.1675 13.6807L13.8967 14.5811C13.5972 14.6651 13.5493 14.8692 13.5493 15.0373V21.6522C13.5613 22.1324 13.1539 22.5406 12.6627 22.5406Z" fill="#6C6C6C"/>
<path d="M17.0355 23.0927C15.6338 23.0927 14.4956 21.9522 14.4956 20.5476C14.4956 19.143 15.6338 18.0025 17.0355 18.0025C18.4373 18.0025 19.5756 19.143 19.5756 20.5476C19.5756 21.9522 18.4373 23.0927 17.0355 23.0927ZM17.0355 19.8033C16.6282 19.8033 16.2927 20.1394 16.2927 20.5476C16.2927 20.9558 16.6282 21.2919 17.0355 21.2919C17.4429 21.2919 17.7784 20.9558 17.7784 20.5476C17.7784 20.1394 17.4429 19.8033 17.0355 19.8033Z" fill="#6C6C6C"/>
<path d="M12.6632 17.8465C12.2679 17.8465 11.9084 17.5824 11.8006 17.1862C11.6688 16.706 11.9563 16.2137 12.4356 16.0817L18.438 14.437C18.9292 14.3049 19.4084 14.5931 19.5402 15.0733C19.672 15.5535 19.3844 16.0457 18.9052 16.1778L12.9029 17.8225C12.819 17.8345 12.7471 17.8465 12.6632 17.8465Z" fill="#6C6C6C"/>
</svg>
