<svg width="18" height="19" viewBox="0 0 18 19" fill="none" xmlns="http://www.w3.org/2000/svg">
<path d="M16.8391 0.830219C16.8375 0.485045 16.5565 0.206474 16.2113 0.208014C15.8661 0.209554 15.5875 0.490622 15.5891 0.835797L15.5965 2.49056C15.5993 3.13097 15.6004 3.57177 15.5685 3.90808C15.2042 3.51547 14.8052 3.1556 14.3763 2.83332C12.8788 1.70827 11.0164 1.04134 9.00002 1.04134C4.05247 1.04134 0.041687 5.05212 0.041687 9.99967C0.041687 14.9472 4.05247 18.958 9.00002 18.958C13.9476 18.958 17.9584 14.9472 17.9584 9.99967C17.9584 9.6545 17.6785 9.37467 17.3334 9.37467C16.9882 9.37467 16.7084 9.6545 16.7084 9.99967C16.7084 14.2569 13.2572 17.708 9.00002 17.708C4.74283 17.708 1.29169 14.2569 1.29169 9.99967C1.29169 5.74248 4.74283 2.29134 9.00002 2.29134C10.7364 2.29134 12.337 2.86471 13.6254 3.83269C14.0381 4.14278 14.4188 4.49336 14.7614 4.87849C14.7205 4.88493 14.6762 4.89082 14.6279 4.89609C14.2852 4.93353 13.8321 4.93245 13.1576 4.92944L11.5028 4.92206C11.1576 4.92052 10.8766 5.19909 10.875 5.54426C10.8735 5.88944 11.1521 6.17051 11.4972 6.17205L13.1881 6.17959C13.8172 6.18241 14.3418 6.18477 14.7636 6.1387C15.2061 6.09039 15.6139 5.98239 15.9681 5.70825C16.0443 5.64928 16.1166 5.58559 16.1846 5.51759C16.2526 5.44959 16.3163 5.37729 16.3753 5.30108C16.6494 4.94685 16.7574 4.53907 16.8057 4.09663C16.8518 3.67481 16.8494 3.15017 16.8466 2.52112L16.8391 0.830219Z" fill="#6C6C6C"/>
</svg>
