<svg width="16" height="17" viewBox="0 0 16 17" fill="none" xmlns="http://www.w3.org/2000/svg">
<path d="M9.93308 3.12185C8.56187 2.34001 7.49676 1.7327 6.63173 1.33872C5.76346 0.943271 5.00977 0.719948 4.27691 0.796018C3.11378 0.916749 2.05492 1.51942 1.36488 2.45737C0.929023 3.04982 0.747547 3.81023 0.660094 4.75163C0.572991 5.68926 0.572994 6.90451 0.572998 8.46741V8.53255C0.572994 10.0954 0.572991 11.3107 0.660093 12.2483C0.747546 13.1897 0.929023 13.9501 1.36488 14.5426C2.05492 15.4805 3.11378 16.0832 4.27691 16.2039C5.00977 16.28 5.76346 16.0567 6.63173 15.6612C7.49675 15.2673 8.56185 14.66 9.93305 13.8781L9.98872 13.8464C11.3598 13.0646 12.425 12.4573 13.2031 11.9144C13.9834 11.3699 14.5586 10.8356 14.8602 10.1666C15.3384 9.1059 15.3384 7.89406 14.8602 6.83333C14.5586 6.16434 13.9834 5.63003 13.2031 5.08557C12.425 4.54266 11.3598 3.93534 9.98871 3.15356L9.93308 3.12185Z" fill="white"/>
</svg>
